<svg width="23" height="22" viewBox="0 0 23 22" fill="none" xmlns="http://www.w3.org/2000/svg">
<path d="M2.84807 9.74188H20.8699C20.8869 9.74188 20.9059 9.73435 20.9173 9.72123C20.9305 9.70812 20.9382 9.69124 20.9382 9.67241V8.15316C20.9382 8.13628 20.9305 8.11744 20.9173 8.10614C20.9059 8.09303 20.887 8.0855 20.8699 8.0855H2.46341C2.44637 8.0855 2.42736 8.09303 2.41595 8.10614C2.40271 8.11744 2.39511 8.13614 2.39511 8.15316V9.67241C2.39511 9.69305 2.40271 9.70993 2.41412 9.72305L2.41595 9.72123C2.42736 9.73435 2.44623 9.74188 2.46341 9.74188L2.84807 9.74188ZM10.497 1.00011H12.8362C13.202 1.00011 13.513 1.2349 13.6266 1.55968H14.5423C15.0598 1.55968 15.5148 1.72862 15.8919 2.02536C16.2616 2.31637 16.5479 2.72764 16.7298 3.21789L17.8861 6.70338H20.8699C21.2718 6.70338 21.6395 6.86675 21.903 7.12974C22.1684 7.39076 22.3333 7.75517 22.3333 8.15317V9.67242C22.3333 10.0724 22.1684 10.4348 21.903 10.6978C21.685 10.9138 21.3968 11.064 21.0765 11.1091L19.5164 20.4198C19.4615 20.7578 19.1658 20.9982 18.8302 20.9982V21H4.50327C4.13923 21 3.83986 20.7239 3.80944 20.371L2.25687 11.1088C1.9365 11.0638 1.64837 10.9135 1.43037 10.6975V10.6957C1.16492 10.4328 1 10.0703 1 9.67231V8.15306C1 7.75492 1.1649 7.39063 1.43037 7.12963C1.69385 6.86666 2.0617 6.70328 2.46345 6.70328H5.44722L6.60352 3.21778C6.78546 2.72768 7.07174 2.31643 7.44141 2.02525C7.81868 1.72851 8.27551 1.55957 8.79108 1.55957H9.70669C9.82048 1.23465 10.1313 1 10.4971 1L10.497 1.00011ZM13.5659 2.94193C13.4237 3.19541 13.149 3.36828 12.8362 3.36828H10.497C10.1842 3.36828 9.9093 3.19557 9.76722 2.94193H8.79104C8.60332 2.94193 8.44039 3.00205 8.3076 3.10529C8.14072 3.23671 8.00624 3.43774 7.91147 3.69122L6.91247 6.70336H16.4209L15.4219 3.69122C15.3271 3.43773 15.1925 3.23668 15.0257 3.10529C14.8931 3.00205 14.73 2.94193 14.5423 2.94193H13.5659ZM12.3641 17.1955C12.3641 17.5786 12.0514 17.8866 11.6665 17.8866C11.2816 17.8866 10.9688 17.5786 10.9688 17.1955V13.5466C10.9688 13.1653 11.2816 12.8554 11.6665 12.8554C12.0514 12.8554 12.3641 13.1653 12.3641 13.5466V17.1955ZM15.9184 17.3062C15.8559 17.6818 15.4976 17.9372 15.1203 17.8753C14.7412 17.8152 14.4834 17.4603 14.5441 17.0865L15.1564 13.4358C15.2189 13.0603 15.5753 12.8048 15.9544 12.8668C16.3335 12.9269 16.5914 13.2818 16.5289 13.6574L15.9185 17.3063L15.9184 17.3062ZM8.78899 17.0865C8.84968 17.4603 8.59183 17.8152 8.21275 17.8753C7.83548 17.9373 7.47724 17.6819 7.41653 17.3062L6.80425 13.6573C6.74172 13.2817 6.99943 12.9269 7.37868 12.8667C7.75779 12.8048 8.11419 13.0601 8.17674 13.4358L8.78899 17.0865ZM11.6666 11.124H3.66905L5.09263 19.6179H18.2407L19.6663 11.124H11.6666Z" fill="black" stroke="white" stroke-width="0.5"/>
</svg>
