<svg width="37" height="49" viewBox="0 0 37 49" fill="none" xmlns="http://www.w3.org/2000/svg">
<rect width="36.4805" height="48.0171" rx="2" fill="#8BD2F1"/>
<rect x="5.3006" y="4.9888" width="26.1911" height="9.66578" rx="4" fill="#375E9B"/>
<rect x="5.3006" y="17.149" width="11.5366" height="11.5366" rx="3" fill="#659AB0"/>
<rect x="5.3006" y="31.1799" width="11.5366" height="11.5366" rx="3" fill="#659AB0"/>
<path d="M14.2898 40.2898C14.5434 40.0367 14.5434 39.6272 14.2898 39.3737L12.1561 37.24L14.2898 35.1063C14.5434 34.8532 14.5434 34.4437 14.2898 34.1902C14.0367 33.9366 13.6272 33.9366 13.3737 34.1902L11.24 36.3239L9.10631 34.1902C8.85321 33.9366 8.44372 33.9366 8.19016 34.1902C7.93661 34.4433 7.93661 34.8528 8.19016 35.1063L10.3239 37.24L8.19016 39.3737C7.93661 39.6268 7.93661 40.0363 8.19016 40.2898C8.44282 40.5434 8.85366 40.5434 9.10631 40.2898L11.24 38.1561L13.3737 40.2898C13.6263 40.5434 14.0372 40.5434 14.2898 40.2898Z" fill="#FFF5F5"/>
<rect x="19.9551" y="17.149" width="11.5366" height="11.5366" rx="3" fill="#659AB0"/>
<rect x="19.9551" y="31.1799" width="11.5366" height="11.5366" rx="3" fill="#A263D4"/>
<path d="M7.84712 22.0856C7.47344 22.0856 7.17139 22.3886 7.17139 22.7614C7.17139 23.1341 7.47344 23.4366 7.84712 23.4371H10.549V26.139C10.549 26.5122 10.8511 26.8147 11.2248 26.8147C11.5985 26.8147 11.9005 26.5117 11.9005 26.139V23.4371H14.6024C14.9761 23.4371 15.2782 23.1341 15.2782 22.7614C15.2782 22.3881 14.9761 22.0856 14.6024 22.0856H11.9005V19.3837C11.9005 19.0105 11.5985 18.708 11.2248 18.708C10.8511 18.708 10.549 19.011 10.549 19.3837V22.0856H7.84712Z" fill="#FFF5F5"/>
<path d="M22.7462 23.2472C22.4097 23.2472 22.1378 22.9676 22.1378 22.6236C22.1378 22.2796 22.4093 22.0004 22.7458 22.0004L28.8293 22C29.1658 22 29.4378 22.2796 29.4378 22.6236C29.4378 22.968 29.1658 23.2472 28.8293 23.2472H22.7462Z" fill="#FFF5F5"/>
<path d="M28.6915 36.1435C29.028 36.1435 29.3 35.8872 29.3 35.5718C29.3 35.2564 29.028 35 28.6915 35H22.6085C22.272 35 22 35.2564 22 35.5718C22 35.8876 22.272 36.1435 22.6085 36.1435H28.6915Z" fill="white"/>
<path d="M28.6915 38.4298C29.028 38.4298 29.3 38.1734 29.3 37.858C29.3 37.5426 29.028 37.2866 28.6915 37.2862H22.6085C22.272 37.2862 22 37.5426 22 37.858C22 38.1738 22.272 38.4298 22.6085 38.4298H28.6915Z" fill="white"/>
</svg>
