<svg width="18" height="18" viewBox="0 0 18 18" fill="none" xmlns="http://www.w3.org/2000/svg">
<g id="Group 142">
<circle id="Ellipse 47" cx="9" cy="9" r="9" fill="#000091"/>
<path id="Vector" d="M11.8844 11.8844C11.7302 12.0385 11.4802 12.0385 11.3261 11.8844L9 9.55824L6.67389 11.8844C6.51969 12.0385 6.26977 12.0385 6.11565 11.8844C5.96145 11.7302 5.96145 11.4802 6.11565 11.3261L8.44176 9L6.11565 6.67389C5.96145 6.51978 5.96145 6.26977 6.11565 6.11565C6.26985 5.96145 6.51977 5.96145 6.67389 6.11565L9 8.44176L11.3261 6.11565C11.4803 5.96145 11.7302 5.96154 11.8844 6.11565C12.0385 6.26985 12.0385 6.51977 11.8844 6.67389L9.55824 9L11.8844 11.3261C12.0385 11.4803 12.0385 11.7302 11.8844 11.8844Z" fill="white"/>
</g>
</svg>
