<svg width="86" height="63" viewBox="0 0 86 63" fill="none" xmlns="http://www.w3.org/2000/svg">
<ellipse cx="76.9747" cy="27.0539" rx="1.77038" ry="5.90126" transform="rotate(31.7281 76.9747 27.0539)" fill="#7EC872"/>
<ellipse cx="78.4926" cy="29.5344" rx="1.77038" ry="5.90126" transform="rotate(60.1587 78.4926 29.5344)" fill="#7EC872"/>
<ellipse cx="73.7618" cy="26.4957" rx="1.77038" ry="5.90126" transform="rotate(-0.515213 73.7618 26.4957)" fill="#7EC872"/>
<path d="M70.6554 29.9529C71.1563 28.8592 72.5024 28.4519 73.5256 29.0845L76.6987 31.0464C77.7219 31.679 77.9591 33.0653 77.2045 34.0022L67.7947 45.6834C67.1619 46.4689 66.0392 46.6578 65.1813 46.1273C64.3234 45.5969 63.9906 44.5081 64.4105 43.591L70.6554 29.9529Z" fill="#FA8921"/>
<mask id="mask0_235_12425" style="mask-type:alpha" maskUnits="userSpaceOnUse" x="64" y="28" width="14" height="19">
<path d="M70.6554 29.9529C71.1563 28.8592 72.5024 28.4519 73.5256 29.0845L76.6987 31.0464C77.7219 31.679 77.9591 33.0653 77.2045 34.0022L67.7977 45.6797C67.1632 46.4673 66.0415 46.6592 65.1813 46.1273C64.321 45.5954 63.9915 44.5062 64.4125 43.5867L70.6554 29.9529Z" fill="#FA8921"/>
</mask>
<g mask="url(#mask0_235_12425)">
<line x1="69.3792" y1="31.4834" x2="77.4101" y2="36.4489" stroke="#D97A23"/>
<line x1="67.5169" y1="34.4949" x2="75.5478" y2="39.4603" stroke="#D97A23"/>
<line x1="65.6545" y1="37.5066" x2="73.6855" y2="42.472" stroke="#D97A23"/>
<line x1="63.7922" y1="40.5181" x2="71.8232" y2="45.4835" stroke="#D97A23"/>
</g>
<ellipse cx="60.3441" cy="26.8667" rx="1.77038" ry="5.90126" transform="rotate(-4.83089 60.3441 26.8667)" fill="#7EC872"/>
<ellipse cx="63.041" cy="27.9551" rx="1.77038" ry="5.90126" transform="rotate(23.5997 63.041 27.9551)" fill="#7EC872"/>
<ellipse cx="57.431" cy="28.332" rx="1.77038" ry="5.90126" transform="rotate(-37.0742 57.431 28.332)" fill="#7EC872"/>
<path d="M56.9947 32.9593C56.7455 31.7824 57.5842 30.6534 58.7829 30.5521L62.5003 30.2379C63.699 30.1366 64.7153 31.1089 64.6671 32.3109L64.0667 47.2987C64.0263 48.3066 63.237 49.127 62.2319 49.212C61.2269 49.2969 60.311 48.6206 60.1021 47.6338L56.9947 32.9593Z" fill="#FA8921"/>
<mask id="mask1_235_12425" style="mask-type:alpha" maskUnits="userSpaceOnUse" x="56" y="30" width="9" height="20">
<path d="M56.9947 32.9593C56.7455 31.7824 57.5842 30.6534 58.7829 30.5521L62.5003 30.2379C63.699 30.1366 64.7153 31.1089 64.6671 32.3109L64.0669 47.2939C64.0264 48.3045 63.2397 49.1268 62.2319 49.212C61.2241 49.2972 60.3106 48.6186 60.1011 47.6291L56.9947 32.9593Z" fill="#FA8921"/>
</mask>
<g mask="url(#mask1_235_12425)">
<line x1="56.8807" y1="34.9488" x2="66.2892" y2="34.1536" stroke="#D97A23"/>
<line x1="57.1786" y1="38.4771" x2="66.5871" y2="37.682" stroke="#D97A23"/>
<line x1="57.4774" y1="42.0054" x2="66.8859" y2="41.2103" stroke="#D97A23"/>
<line x1="57.7753" y1="45.5335" x2="67.1837" y2="44.7384" stroke="#D97A23"/>
</g>
<line x1="38.8601" y1="24.4748" x2="27.5884" y2="35.2262" stroke="#625D5D" stroke-width="0.5"/>
<line x1="14.2873" y1="15.2772" x2="34.4461" y2="36.4115" stroke="#625D5D" stroke-width="0.5"/>
<line x1="19.219" y1="10.5735" x2="39.3777" y2="31.7079" stroke="#625D5D" stroke-width="0.5"/>
<line x1="19.219" y1="10.5735" x2="39.3777" y2="31.7079" stroke="#625D5D" stroke-width="0.5"/>
<line x1="36.237" y1="18.9038" x2="22.1474" y2="32.3429" stroke="#625D5D" stroke-width="0.5"/>
<line x1="33.614" y1="13.333" x2="16.7065" y2="29.46" stroke="#625D5D" stroke-width="0.5"/>
<line x1="28.1735" y1="10.4499" x2="14.084" y2="23.8891" stroke="#625D5D" stroke-width="0.5"/>
<line x1="24.0768" y1="8.97631" x2="12.8052" y2="19.7276" stroke="#625D5D" stroke-width="0.5"/>
<path d="M34.424 14.906C37.3254 17.9479 39.0137 21.5703 39.4155 24.9519C39.8173 28.3334 38.9333 31.4406 36.7382 33.5343C34.5432 35.628 31.3977 36.3643 28.039 35.8033C24.6802 35.2422 21.1415 33.3847 18.2401 30.3428C15.3386 27.3009 13.6503 23.6785 13.2485 20.2969C12.8467 16.9155 13.7308 13.8083 15.9258 11.7146C18.1208 9.62088 21.2663 8.88452 24.625 9.44558C27.9839 10.0067 31.5225 11.8642 34.424 14.906Z" stroke="#370A0A"/>
<path d="M38.6877 24.2938C38.8575 26.8227 40.348 35.6261 42.5243 36.7793M27.416 35.0452C29.9341 35.3342 38.6573 37.2389 39.7064 39.4672" stroke="#370A0A"/>
<rect x="36.9531" y="39.4021" width="7.78847" height="15.5769" transform="rotate(-43.6465 36.9531 39.4021)" fill="#E33E3E"/>
<line x1="40.6402" y1="43.2669" x2="46.2761" y2="37.8912" stroke="#FAA5A5"/>
<line x1="44.6715" y1="47.4939" x2="50.3073" y2="42.1182" stroke="#FAA5A5"/>
<rect x="50.0527" y="33.9771" width="8.98987" height="12.4204" transform="rotate(175.943 50.0527 33.9771)" fill="#323232"/>
<rect x="49.5039" y="26.2336" width="8.98987" height="1.55255" transform="rotate(175.943 49.5039 26.2336)" fill="#F8CE3C"/>
<path d="M49.1075 41.8265L44.7518 44.49C44.1122 44.8811 43.2856 44.4554 43.2326 43.7076L42.5801 34.5072L48.5583 34.0832L49.1075 41.8265Z" fill="#CE2828"/>
<path d="M42.4033 53.197L25.9632 54.363L25.7004 29.4783L37.6569 28.6304L42.4033 53.197Z" fill="#E1ABDC"/>
<mask id="mask2_235_12425" style="mask-type:alpha" maskUnits="userSpaceOnUse" x="25" y="28" width="18" height="27">
<path d="M42.4033 53.197L25.9632 54.363L25.7004 29.4783L37.6569 28.6304L42.4033 53.197Z" fill="#E1ABDC"/>
</mask>
<g mask="url(#mask2_235_12425)">
<rect x="42.0742" y="48.5513" width="16.4814" height="1.55255" transform="rotate(175.943 42.0742 48.5513)" fill="#C288BD"/>
<rect x="38.9746" y="47.2146" width="15.5255" height="1.49831" transform="rotate(85.9433 38.9746 47.2146)" fill="#C288BD"/>
<rect x="41.9639" y="47.0024" width="15.5255" height="1.49831" transform="rotate(85.9433 41.9639 47.0024)" fill="#C288BD"/>
<rect x="35.9854" y="47.4265" width="15.5255" height="1.49831" transform="rotate(85.9433 35.9854 47.4265)" fill="#C288BD"/>
<rect x="32.9971" y="47.6384" width="15.5255" height="1.49831" transform="rotate(85.9433 32.9971 47.6384)" fill="#C288BD"/>
<rect x="30.0078" y="47.8506" width="15.5255" height="1.49831" transform="rotate(85.9433 30.0078 47.8506)" fill="#C288BD"/>
<rect x="27.0186" y="48.0625" width="15.5255" height="1.49831" transform="rotate(85.9433 27.0186 48.0625)" fill="#C288BD"/>
</g>
<rect x="36.1631" y="28.7363" width="8.98987" height="6.21021" transform="rotate(175.943 36.1631 28.7363)" fill="#8CC0C4"/>
<rect x="34.668" y="28.8423" width="1.49831" height="6.21021" transform="rotate(175.943 34.668 28.8423)" fill="#B3E5E9"/>
<rect x="30.1846" y="29.1604" width="1.49831" height="6.21021" transform="rotate(175.943 30.1846 29.1604)" fill="#B3E5E9"/>
<ellipse opacity="0.7" cx="35.4366" cy="39.6831" rx="1.49831" ry="1.55255" transform="rotate(175.943 35.4366 39.6831)" fill="white"/>
<ellipse opacity="0.7" cx="29.0196" cy="33.9126" rx="1.49831" ry="1.55255" transform="rotate(175.943 29.0196 33.9126)" fill="white"/>
<ellipse opacity="0.7" rx="0.749156" ry="0.776277" transform="matrix(-0.997495 0.0707429 0.0707429 0.997495 36.459 43.5019)" fill="white"/>
<ellipse opacity="0.7" rx="0.749155" ry="0.776277" transform="matrix(-0.997495 0.0707429 0.0707429 0.997495 31.6455 39.1738)" fill="white"/>
<ellipse opacity="0.7" rx="0.749156" ry="0.776278" transform="matrix(-0.997495 0.0707429 0.0707429 0.997495 34.1953 32.7673)" fill="white"/>
<rect x="53.9873" y="22.4895" width="11.756" height="4.65766" transform="rotate(7.80944 53.9873 22.4895)" fill="#6781DD"/>
<rect x="56.9834" y="15.0649" width="7.83732" height="7.76277" transform="rotate(7.80944 56.9834 15.0649)" fill="#FBD758"/>
<rect x="48.3778" y="21.9723" width="24.9713" height="22.7883" transform="rotate(7.80944 48.3778 21.9723)" fill="#B7F1EE" stroke="#85BEBB" stroke-width="0.5"/>
<rect x="48.3778" y="21.9723" width="19.0933" height="22.7883" transform="rotate(7.80944 48.3778 21.9723)" fill="#B7F1EE" stroke="#85BEBB" stroke-width="0.5"/>
<rect x="50.9912" y="29.9141" width="11.756" height="4.65766" transform="rotate(7.80944 50.9912 29.9141)" fill="white"/>
<mask id="mask3_235_12425" style="mask-type:alpha" maskUnits="userSpaceOnUse" x="55" y="15" width="10" height="9">
<rect x="56.9834" y="15.0649" width="7.83732" height="7.76277" transform="rotate(7.80944 56.9834 15.0649)" fill="#FBD758"/>
</mask>
<g mask="url(#mask3_235_12425)">
<ellipse cx="58.5028" cy="18.4074" rx="0.979665" ry="1.55255" transform="rotate(7.80944 58.5028 18.4074)" fill="#D3B54A"/>
</g>
<path d="M22 35H77L71.1489 63H27.8511L22 35Z" fill="#EEB7B7"/>
<path d="M46 13.5C46 11.567 47.567 10 49.5 10C51.433 10 53 11.567 53 13.5V51H46V13.5Z" fill="#EEB7B7"/>
</svg>
