<svg width="18" height="14" viewBox="0 0 18 14" fill="none" xmlns="http://www.w3.org/2000/svg">
<ellipse cx="8.24198" cy="3.2126" rx="8.24198" ry="3.2126" transform="matrix(0.98966 -0.14343 0.142757 0.989758 0 7.64062)" fill="#28282D"/>
<ellipse cx="9.98907" cy="8.26157" rx="6.86798" ry="3.67172" fill="#5D5D7E"/>
<path d="M16.8571 8.26123C16.8571 10.2891 13.7822 11.933 9.98907 11.933C6.19599 11.933 3.12109 10.2891 3.12109 8.26123" stroke="white" stroke-width="0.5"/>
<rect x="3.12109" y="2.75391" width="13.736" height="6.42552" rx="1" fill="#5D5D7E"/>
<ellipse cx="9.98907" cy="3.67172" rx="6.86798" ry="3.67172" fill="#5D5D7E"/>
<path d="M16.6071 3.67172C16.6071 4.54868 15.9381 5.40039 14.7276 6.04755C13.5277 6.68905 11.8528 7.09345 9.98907 7.09345C8.12535 7.09345 6.45047 6.68905 5.25055 6.04755C4.04002 5.40039 3.37109 4.54868 3.37109 3.67172C3.37109 2.79477 4.04002 1.94306 5.25055 1.29589C6.45047 0.654398 8.12535 0.25 9.98907 0.25C11.8528 0.25 13.5277 0.654398 14.7276 1.29589C15.9381 1.94306 16.6071 2.79477 16.6071 3.67172Z" stroke="white" stroke-width="0.5"/>
<ellipse cx="5.41001" cy="8.26119" rx="0.457865" ry="0.917931" fill="white"/>
</svg>
