<svg width="20" height="21" viewBox="0 0 20 21" fill="none" xmlns="http://www.w3.org/2000/svg">
<path fill-rule="evenodd" clip-rule="evenodd" d="M10.7025 1.29887L15.4732 6.1205C16.2434 6.89046 15.0883 8.04519 14.3186 7.27522L11.1031 4.05687C10.9453 3.89882 10.8163 3.95293 10.8163 4.17875V13.0579C10.8163 13.5106 10.4508 13.8763 9.99987 13.8763C9.54586 13.8763 9.18314 13.5098 9.18314 13.0579V4.17875C9.18314 3.95407 9.05501 3.89854 8.89663 4.05687L5.68112 7.27522C4.91092 8.04519 3.75632 6.89051 4.52652 6.1205L9.26584 1.30463C9.66392 0.900267 10.3063 0.898561 10.7024 1.29894L10.7025 1.29887ZM17.3638 17.96V15.1012C17.3638 14.6502 17.7299 14.2848 18.1819 14.2848C18.6339 14.2848 19 14.6502 19 15.1012V18.7773C19 19.455 18.4475 20 17.7692 20H2.2308C1.55363 20 1 19.451 1 18.7773V15.1012C1 14.6502 1.36612 14.2848 1.81812 14.2848C2.27012 14.2848 2.63624 14.6502 2.63624 15.1012V17.96C2.63624 18.1821 2.81945 18.3672 3.04546 18.3672H16.9548C17.1776 18.3672 17.364 18.1849 17.364 17.96H17.3638Z" fill="black" stroke="white" stroke-width="0.5"/>
</svg>
