<svg width="12" height="12" viewBox="0 0 12 12" fill="none" xmlns="http://www.w3.org/2000/svg">
<path fill-rule="evenodd" clip-rule="evenodd" d="M4.92762 6.49995C4.71241 7.22282 4.04278 7.75 3.2501 7.75C2.45734 7.75 1.7877 7.22282 1.57258 6.49995H0.500416C0.224098 6.49995 0.000107246 6.27806 0.000107246 5.99998C0.000107246 5.72383 0.223841 5.50001 0.500416 5.50001H1.57258C1.7877 4.77714 2.45734 4.24996 3.2501 4.24996C4.04278 4.24996 4.71241 4.77714 4.92762 5.50001H11.4997C11.776 5.50001 12 5.7219 12 5.99998C12 6.27613 11.7763 6.49995 11.4997 6.49995H4.92762ZM7.07238 9.75001C7.28759 9.02714 7.95722 8.50004 8.7499 8.50004C9.54266 8.50004 10.2123 9.02714 10.4274 9.75001H11.4996C11.7759 9.75001 11.9999 9.9719 11.9999 10.25C11.9999 10.5261 11.7762 10.75 11.4996 10.75H10.4274C10.2123 11.4729 9.54266 12 8.7499 12C7.95722 12 7.28759 11.4729 7.07238 10.75H0.500309C0.22399 10.75 0 10.5281 0 10.25C0 9.97383 0.223733 9.75001 0.500309 9.75001H7.07238ZM7.07238 1.24997C7.28759 0.527098 7.95722 0 8.7499 0C9.54266 0 10.2123 0.527098 10.4274 1.24997H11.4996C11.7759 1.24997 11.9999 1.47194 11.9999 1.75002C11.9999 2.02617 11.7762 2.24999 11.4996 2.24999H10.4274C10.2123 2.97286 9.54266 3.49996 8.7499 3.49996C7.95722 3.49996 7.28759 2.97286 7.07238 2.24999H0.500309C0.22399 2.24999 0 2.0281 0 1.75002C0 1.47387 0.223733 1.24997 0.500309 1.24997H7.07238ZM8.7499 2.50002C9.16415 2.50002 9.49989 2.16419 9.49989 1.75002C9.49989 1.33577 9.16415 1.00002 8.7499 1.00002C8.33573 1.00002 7.99991 1.33577 7.99991 1.75002C7.99991 2.16419 8.33573 2.50002 8.7499 2.50002ZM8.7499 10.9998C9.16415 10.9998 9.49989 10.6641 9.49989 10.2498C9.49989 9.83568 9.16415 9.49985 8.7499 9.49985C8.33573 9.49985 7.99991 9.83568 7.99991 10.2498C7.99991 10.6641 8.33573 10.9998 8.7499 10.9998ZM3.2501 5.24994C2.83585 5.24994 2.50011 5.58577 2.50011 5.99994C2.50011 6.41411 2.83585 6.74993 3.2501 6.74993C3.66427 6.74993 4.00009 6.41411 4.00009 5.99994C4.00009 5.58577 3.66427 5.24994 3.2501 5.24994Z" fill="black"/>
</svg>
