<svg width="16" height="17" viewBox="0 0 16 17" fill="none" xmlns="http://www.w3.org/2000/svg">
<path d="M0.32172 7.08764L7.32172 0.626105C7.70478 0.272509 8.29522 0.272509 8.67828 0.626104L15.6783 7.08764C15.8834 7.27695 16 7.54335 16 7.82245V15.6154C16 16.1677 15.5523 16.6154 15 16.6154H11.4615C10.9093 16.6154 10.4615 16.1677 10.4615 15.6154V12.0769C10.4615 11.5246 10.0138 11.0769 9.46154 11.0769H6.53846C5.98618 11.0769 5.53846 11.5246 5.53846 12.0769V15.6154C5.53846 16.1677 5.09075 16.6154 4.53846 16.6154H1C0.447715 16.6154 0 16.1677 0 15.6154V7.82245C0 7.54335 0.116637 7.27695 0.32172 7.08764Z" fill="#7171CE"/>
</svg>
