<svg width="14" height="14" viewBox="0 0 14 14" fill="none" xmlns="http://www.w3.org/2000/svg">
<circle cx="7" cy="7" r="7" fill="#000091"/>
<path d="M6 5.4C5.8409 5.4 5.68823 5.46321 5.57572 5.57572C5.46321 5.68823 5.4 5.8409 5.4 6C5.4 6.1591 5.46321 6.31177 5.57572 6.42428C5.68823 6.53679 5.8409 6.6 6 6.6H6.4V10.5C6.4 10.6591 6.46321 10.8118 6.57572 10.9243C6.68823 11.0368 6.8409 11.1 7 11.1H8C8.1591 11.1 8.31177 11.0368 8.42428 10.9243C8.53679 10.8118 8.6 10.6591 8.6 10.5C8.6 10.3409 8.53679 10.1882 8.42428 10.0757C8.31177 9.96321 8.1591 9.9 8 9.9H7.6V6C7.6 5.8409 7.53679 5.68823 7.42428 5.57572C7.31177 5.46321 7.1591 5.4 7 5.4H6Z" fill="white" stroke="white" stroke-width="0.2"/>
<path d="M7.72349 3.72344C7.72349 3.91529 7.64726 4.09932 7.51166 4.23492C7.37594 4.37064 7.192 4.44676 7.00017 4.44676C6.80834 4.44676 6.6244 4.37064 6.48869 4.23492C6.35308 4.09932 6.27686 3.91527 6.27686 3.72344C6.27686 3.53161 6.35308 3.34767 6.48869 3.21195C6.6244 3.07635 6.80834 3.00012 7.00017 3.00012C7.192 3.00012 7.37594 3.07635 7.51166 3.21195C7.64726 3.34767 7.72349 3.53161 7.72349 3.72344Z" fill="white"/>
</svg>
