<svg width="20" height="20" viewBox="0 0 20 20" fill="none" xmlns="http://www.w3.org/2000/svg">
<path d="M0.05 10C0.05 4.51333 4.51333 0.05 10 0.05C15.4867 0.05 19.95 4.51333 19.95 10C19.95 15.4867 15.4867 19.95 10 19.95C4.51333 19.95 0.05 15.4867 0.05 10ZM18.6214 10C18.6214 5.23002 14.7701 1.37857 10 1.37857C5.23002 1.37857 1.37857 5.23002 1.37857 10C1.37857 14.77 5.23002 18.6214 10 18.6214C14.77 18.6214 18.6214 14.77 18.6214 10Z" fill="#000091" stroke="white" stroke-width="0.1"/>
<path d="M9.3355 9.2855V9.2355H9.2855H8.57122C8.39506 9.2355 8.22602 9.16551 8.10147 9.04097C7.97693 8.91642 7.90693 8.74738 7.90693 8.57122C7.90693 8.39506 7.97693 8.22602 8.10147 8.10147C8.22602 7.97693 8.39506 7.90693 8.57122 7.90693H9.99979C10.1759 7.90693 10.345 7.97693 10.4695 8.10147C10.5941 8.22602 10.6641 8.39506 10.6641 8.57122V14.2855V14.3355H10.7141H11.4284C11.6045 14.3355 11.7736 14.4055 11.8981 14.53C12.0227 14.6546 12.0926 14.8236 12.0926 14.9998C12.0926 15.1759 12.0227 15.345 11.8981 15.4695C11.7736 15.5941 11.6045 15.6641 11.4284 15.6641H9.99979C9.82363 15.6641 9.65459 15.5941 9.53004 15.4695C9.4055 15.345 9.3355 15.1759 9.3355 14.9998V9.2855Z" fill="#000091" stroke="white" stroke-width="0.1"/>
<path d="M9.27039 4.58826L9.30573 4.62363C9.49024 4.43927 9.74031 4.33564 10.0011 4.33564C10.2618 4.33564 10.5119 4.43926 10.6964 4.6236C10.8808 4.80811 10.9844 5.05818 10.9844 5.31895C10.9844 5.57977 10.8808 5.82996 10.6964 6.01429C10.5119 6.19879 10.2619 6.30226 10.0011 6.30226C9.74029 6.30226 9.49024 6.19879 9.30574 6.01429C9.12141 5.82995 9.01777 5.57974 9.01777 5.31895C9.01777 5.05818 9.1214 4.80811 9.30576 4.6236L9.27039 4.58826ZM9.27039 4.58826C9.46427 4.39454 9.72704 4.28564 10.0011 4.28564C10.2751 4.28564 10.5379 4.39454 10.7318 4.58826H9.27039Z" fill="#000091" stroke="white" stroke-width="0.1"/>
</svg>
