<svg width="25" height="17" viewBox="0 0 25 17" fill="none" xmlns="http://www.w3.org/2000/svg">
<path fill-rule="evenodd" clip-rule="evenodd" d="M24.243 16.9173H0.761206C0.550874 16.9173 0.379761 16.734 0.379761 16.5082V4.66101C0.379761 4.43545 0.550668 4.25195 0.761206 4.25195H24.243C24.4534 4.25195 24.6245 4.43523 24.6245 4.66101V16.5082C24.6243 16.7411 24.4534 16.9173 24.243 16.9173ZM1.14219 16.1064H23.8679L23.8681 5.07013H1.14239L1.14219 16.1064Z" fill="currentColor"/>
<path fill-rule="evenodd" clip-rule="evenodd" d="M4.16046 8.68801H2.64811C2.43778 8.68801 2.26666 8.50473 2.26666 8.27895V6.65711C2.26666 6.43155 2.43757 6.24805 2.64811 6.24805H4.16046C4.37079 6.24805 4.5419 6.43133 4.5419 6.65711V8.27895C4.5419 8.51181 4.371 8.68801 4.16046 8.68801ZM3.02296 7.87718H3.77921V7.06617H3.02296V7.87718Z" fill="currentColor"/>
<path fill-rule="evenodd" clip-rule="evenodd" d="M7.19189 8.68801H5.67954C5.46921 8.68801 5.2981 8.50473 5.2981 8.27895V6.65711C5.2981 6.43155 5.469 6.24805 5.67954 6.24805H7.19189C7.40222 6.24805 7.57334 6.43133 7.57334 6.65711V8.27895C7.57334 8.51181 7.40243 8.68801 7.19189 8.68801ZM6.05439 7.87718H6.81065V7.06617H6.05439V7.87718Z" fill="currentColor"/>
<path fill-rule="evenodd" clip-rule="evenodd" d="M10.2234 8.68801H8.71104C8.5007 8.68801 8.32959 8.50473 8.32959 8.27895V6.65711C8.32959 6.43155 8.5005 6.24805 8.71104 6.24805H10.2234C10.4337 6.24805 10.6048 6.43133 10.6048 6.65711V8.27895C10.6048 8.51181 10.4337 8.68801 10.2234 8.68801ZM9.09228 7.87718H9.84854V7.06617H9.09228V7.87718Z" fill="currentColor"/>
<path fill-rule="evenodd" clip-rule="evenodd" d="M13.2612 8.68801H11.7488C11.5385 8.68801 11.3674 8.50473 11.3674 8.27895V6.65711C11.3674 6.43155 11.5383 6.24805 11.7488 6.24805H13.2612C13.4715 6.24805 13.6426 6.43133 13.6426 6.65711V8.27895C13.636 8.51181 13.4717 8.68801 13.2612 8.68801ZM12.1237 7.87718H12.8798V7.06617H12.1235L12.1237 7.87718Z" fill="currentColor"/>
<path fill-rule="evenodd" clip-rule="evenodd" d="M16.2927 8.68801H14.7803C14.57 8.68801 14.3989 8.50473 14.3989 8.27895V6.65711C14.3989 6.43155 14.5698 6.24805 14.7803 6.24805H16.2927C16.503 6.24805 16.6741 6.43133 16.6741 6.65711V8.27895C16.6739 8.51181 16.503 8.68801 16.2927 8.68801ZM15.155 7.87718H15.9112V7.06617H15.155V7.87718Z" fill="currentColor"/>
<path fill-rule="evenodd" clip-rule="evenodd" d="M19.324 8.68801H17.8117C17.6014 8.68801 17.4302 8.50473 17.4302 8.27895V6.65711C17.4302 6.43155 17.6011 6.24805 17.8117 6.24805H19.324C19.5344 6.24805 19.7055 6.43133 19.7055 6.65711V8.27895C19.7055 8.51181 19.5346 8.68801 19.324 8.68801ZM18.1931 7.87718H18.9494V7.06617H18.1931V7.87718Z" fill="currentColor"/>
<path fill-rule="evenodd" clip-rule="evenodd" d="M22.3619 8.68801H20.8496C20.6393 8.68801 20.4681 8.50473 20.4681 8.27895V6.65711C20.4681 6.43155 20.639 6.24805 20.8496 6.24805H22.3619C22.5723 6.24805 22.7434 6.43133 22.7434 6.65711V8.27895C22.7368 8.50473 22.5725 8.68801 22.3619 8.68801ZM21.2244 7.87009H21.9807V7.05909H21.2244V7.87009Z" fill="currentColor"/>
<path fill-rule="evenodd" clip-rule="evenodd" d="M4.16046 14.9429H2.64811C2.43778 14.9429 2.26666 14.7596 2.26666 14.5338V12.912C2.26666 12.6864 2.43757 12.5029 2.64811 12.5029H4.16046C4.37079 12.5029 4.5419 12.6862 4.5419 12.912V14.5338C4.5419 14.7596 4.371 14.9429 4.16046 14.9429ZM3.02296 14.125H3.77921V13.314H3.02296V14.125Z" fill="currentColor"/>
<path fill-rule="evenodd" clip-rule="evenodd" d="M22.3619 14.9361H20.8496C20.6393 14.9361 20.4681 14.7528 20.4681 14.527V12.9052C20.4681 12.6796 20.639 12.4961 20.8496 12.4961H22.3619C22.5723 12.4961 22.7434 12.6794 22.7434 12.9052V14.527C22.7368 14.7528 22.5725 14.9361 22.3619 14.9361ZM21.2244 14.1252H21.9807V13.3142H21.2244V14.1252Z" fill="currentColor"/>
<path fill-rule="evenodd" clip-rule="evenodd" d="M5.67961 11.812H2.6417C2.43137 11.812 2.26025 11.6288 2.26025 11.403V9.78113C2.26025 9.55557 2.43116 9.37207 2.6417 9.37207H5.67301C5.88334 9.37207 6.05445 9.55535 6.05445 9.78113V11.403C6.05445 11.6288 5.88354 11.812 5.67961 11.812ZM3.02316 11.0012H5.29842V10.1902H3.02316V11.0012Z" fill="currentColor"/>
<path fill-rule="evenodd" clip-rule="evenodd" d="M8.71106 11.812H7.19871C6.98838 11.812 6.81726 11.6288 6.81726 11.403V9.78113C6.81726 9.55557 6.98817 9.37207 7.19871 9.37207H8.71106C8.92139 9.37207 9.0925 9.55535 9.0925 9.78113V11.403C9.0859 11.6288 8.92139 11.812 8.71106 11.812ZM7.57335 11.0012H8.3296V10.1902H7.57335V11.0012Z" fill="currentColor"/>
<path fill-rule="evenodd" clip-rule="evenodd" d="M11.7426 11.812H10.2302C10.0199 11.812 9.84875 11.6288 9.84875 11.403V9.78113C9.84875 9.55557 10.0197 9.37207 10.2302 9.37207H11.7426C11.9529 9.37207 12.124 9.55535 12.124 9.78113V11.403C12.124 11.6288 11.9531 11.812 11.7426 11.812ZM10.6051 11.0012H11.3678V10.1902H10.6115V11.0012H10.6051Z" fill="currentColor"/>
<path fill-rule="evenodd" clip-rule="evenodd" d="M14.774 11.812H13.2616C13.0513 11.812 12.8802 11.6288 12.8802 11.403V9.78113C12.8802 9.55557 13.0511 9.37207 13.2616 9.37207H14.774C14.9843 9.37207 15.1554 9.55535 15.1554 9.78113V11.403C15.1552 11.6288 14.9843 11.812 14.774 11.812ZM13.6429 11.0012H14.3991V10.1902H13.6429V11.0012Z" fill="currentColor"/>
<path fill-rule="evenodd" clip-rule="evenodd" d="M17.8118 11.812H16.2995C16.0891 11.812 15.918 11.6288 15.918 11.403V9.78113C15.918 9.55557 16.0889 9.37207 16.2995 9.37207H17.8118C18.0222 9.37207 18.1933 9.55535 18.1933 9.78113V11.403C18.1867 11.6288 18.0222 11.812 17.8118 11.812ZM16.6741 11.0012H17.4304V10.1902H16.6741V11.0012Z" fill="currentColor"/>
<path fill-rule="evenodd" clip-rule="evenodd" d="M22.3619 11.8052H19.3306C19.1203 11.8052 18.9492 11.6219 18.9492 11.3961V9.7743C18.9492 9.54874 19.1201 9.36523 19.3306 9.36523H22.3619C22.5722 9.36523 22.7434 9.54852 22.7434 9.7743V11.3961C22.7368 11.6217 22.5724 11.8052 22.3619 11.8052ZM19.7055 10.9942H21.9807V10.1832H19.7055V10.9942Z" fill="currentColor"/>
<path fill-rule="evenodd" clip-rule="evenodd" d="M7.19189 14.9361H5.67954C5.46921 14.9361 5.2981 14.7528 5.2981 14.527V12.9052C5.2981 12.6796 5.469 12.4961 5.67954 12.4961H7.19189C7.40222 12.4961 7.57334 12.6794 7.57334 12.9052V14.527C7.57334 14.7528 7.40243 14.9361 7.19189 14.9361ZM6.05439 14.1252H6.81065V13.3142H6.05439V14.1252Z" fill="currentColor"/>
<path fill-rule="evenodd" clip-rule="evenodd" d="M16.2927 14.9361H8.7111C8.50077 14.9361 8.32965 14.7528 8.32965 14.527V12.9052C8.32965 12.6796 8.50056 12.4961 8.7111 12.4961H16.2927C16.503 12.4961 16.6741 12.6794 16.6741 12.9052V14.527C16.6739 14.7528 16.503 14.9361 16.2927 14.9361V14.9361ZM9.09208 14.1252H15.9175V13.3142H9.09208V14.1252Z" fill="currentColor"/>
<path fill-rule="evenodd" clip-rule="evenodd" d="M19.324 14.9292H17.8117C17.6014 14.9292 17.4302 14.7459 17.4302 14.5202V12.8983C17.4302 12.6728 17.6011 12.4893 17.8117 12.4893H19.324C19.5344 12.4893 19.7055 12.6725 19.7055 12.8983V14.5202C19.7055 14.7457 19.5346 14.9292 19.324 14.9292ZM18.1931 14.1182H18.9494V13.3072H18.1931V14.1182Z" fill="currentColor"/>
<path fill-rule="evenodd" clip-rule="evenodd" d="M12.5055 5.07029C12.2952 5.07029 12.1241 4.88701 12.1241 4.66123V3.23681C12.1241 2.62323 12.591 2.12961 13.1565 2.12961H18.5685C18.9039 2.12961 19.18 1.83344 19.18 1.47376C19.18 1.11406 18.9039 0.817901 18.5685 0.817901L5.4434 0.818123C5.23306 0.818123 5.06195 0.634842 5.06195 0.409061C5.06195 0.183502 5.23286 0 5.4434 0H18.5685C19.3247 0 19.9361 0.655854 19.9361 1.46669C19.9361 2.2777 19.3246 2.93338 18.5685 2.93338H13.1565C13.0052 2.93338 12.8804 3.0673 12.8804 3.22955V4.65397C12.8804 4.89414 12.7095 5.07033 12.5057 5.07033L12.5055 5.07029Z" fill="currentColor"/>
</svg>
