<svg width="9" height="12" viewBox="0 0 9 12" fill="none" xmlns="http://www.w3.org/2000/svg">
<rect y="4.23535" width="9" height="7.76471" rx="1" fill="#A3A3A3"/>
<path d="M6.61553 3.88235C6.61553 5.69089 5.47423 6.76471 4.50015 6.76471C3.52607 6.76471 2.38477 5.69089 2.38477 3.88235C2.38477 2.07381 3.52607 1 4.50015 1C5.47423 1 6.61553 2.07381 6.61553 3.88235Z" stroke="#A3A3A3" stroke-width="2"/>
<ellipse cx="4.5003" cy="6.70611" rx="1.73077" ry="1.76471" fill="#4D4D4D"/>
<path d="M3.75 10.588C3.75 11.0022 4.08579 11.338 4.5 11.338C4.91421 11.338 5.25 11.0022 5.25 10.588L3.75 10.588ZM3.75 7.05859L3.75 10.588L5.25 10.588L5.25 7.05859L3.75 7.05859Z" fill="#4D4D4D"/>
</svg>
