<svg width="40" height="40" viewBox="0 0 40 40" fill="none" xmlns="http://www.w3.org/2000/svg">
<rect x="1" y="14" width="38" height="25" fill="#F2F7FF"/>
<path d="M1.81805 15.318H1.31805V15.818V17.1674V17.4246L1.52729 17.5742L19.7091 30.5709L19.9999 30.7788L20.2906 30.5709L38.4725 17.5742L38.6817 17.4246V17.1674V15.818V15.318H38.1817H1.81805ZM2.10878 18.9909L1.31805 18.4258V19.3977V36.4286V37.5633L2.15545 36.7976L12.61 27.2384L13.0657 26.8217L12.5633 26.4626L2.10878 18.9909ZM38.6817 19.3977V18.4258L37.891 18.9909L27.4364 26.4625L26.934 26.8216L27.3897 27.2383L37.8443 36.7975L38.6817 37.5632V36.4285V19.3977ZM14.0829 27.5421L13.7535 27.3066L13.4547 27.5798L2.85836 37.267L1.90777 38.136H3.19573H36.8037H38.0916L37.1411 37.267L26.5445 27.5795L26.2456 27.3063L25.9163 27.5418L20.2361 31.6032C20.2358 31.6034 20.2355 31.6036 20.2353 31.6038C20.0937 31.7036 19.9048 31.7035 19.7638 31.604C19.7635 31.6039 19.7633 31.6037 19.7631 31.6035L14.0829 27.5421ZM0.5 15.3637C0.5 14.9003 0.89091 14.5 1.34943 14.5H38.6506C39.109 14.5 39.5 14.9006 39.5 15.3637V38.091C39.5 38.5543 39.1091 38.9547 38.6506 38.9547H1.34943C0.890985 38.9547 0.5 38.5541 0.5 38.091V15.3637Z" stroke="#8EACDA"/>
<path fill-rule="evenodd" clip-rule="evenodd" d="M18.5187 2.55199L14.9427 6.12799L14 5.18532L19.1853 -9.7634e-06L24.3707 5.18532L23.428 6.12799L19.852 2.55199L19.852 10.6667L18.5187 10.6667L18.5187 2.55199Z" fill="#B6DF82"/>
</svg>
