<svg width="30" height="34" viewBox="0 0 30 34" fill="none" xmlns="http://www.w3.org/2000/svg">
<mask id="path-1-inside-1_235_12055" fill="white">
<path fill-rule="evenodd" clip-rule="evenodd" d="M0.169561 21.9159C0.271305 21.4452 0.389582 20.9785 0.464138 20.5027C1.66717 12.8259 4.50855 2.01709 9.3538 0.242942C10.0868 -0.0254369 10.8876 0.0774256 11.653 0.230502L13.3006 0.560033C16.2383 1.14757 18.6766 3.16473 19.9736 5.86526C21.2002 8.41935 22.7753 11.4631 24.5294 14.4097C25.1593 15.4679 26.0579 16.3285 26.9625 17.1641C28.8689 18.9251 30 21.12 30 23.4999C30 29.2989 23.2843 33.9999 15 33.9999C6.95996 33.9999 0.397343 29.572 0.0173792 24.0098C0.0170719 24.0053 0.0136283 24.0017 0.00915699 24.0011C0.00406635 24.0004 0.000433831 23.9958 0.000977589 23.9907C0.00391344 23.9632 0.00687936 23.9355 0.00987537 23.9078C0.010422 23.9027 0.010559 23.8976 0.010292 23.8925C0.00345064 23.7622 0 23.6314 0 23.4999C0 22.9615 0.0578936 22.4325 0.169561 21.9159Z"/>
</mask>
<path fill-rule="evenodd" clip-rule="evenodd" d="M0.169561 21.9159C0.271305 21.4452 0.389582 20.9785 0.464138 20.5027C1.66717 12.8259 4.50855 2.01709 9.3538 0.242942C10.0868 -0.0254369 10.8876 0.0774256 11.653 0.230502L13.3006 0.560033C16.2383 1.14757 18.6766 3.16473 19.9736 5.86526C21.2002 8.41935 22.7753 11.4631 24.5294 14.4097C25.1593 15.4679 26.0579 16.3285 26.9625 17.1641C28.8689 18.9251 30 21.12 30 23.4999C30 29.2989 23.2843 33.9999 15 33.9999C6.95996 33.9999 0.397343 29.572 0.0173792 24.0098C0.0170719 24.0053 0.0136283 24.0017 0.00915699 24.0011C0.00406635 24.0004 0.000433831 23.9958 0.000977589 23.9907C0.00391344 23.9632 0.00687936 23.9355 0.00987537 23.9078C0.010422 23.9027 0.010559 23.8976 0.010292 23.8925C0.00345064 23.7622 0 23.6314 0 23.4999C0 22.9615 0.0578936 22.4325 0.169561 21.9159Z" fill="#D62E2E"/>
<path d="M0.00987537 23.9078L-1.97857 23.6931L0.00987537 23.9078ZM0.010292 23.8925L-1.98696 23.9974L0.010292 23.8925ZM0.000977589 23.9907L-1.98777 23.7788L0.000977589 23.9907ZM19.9736 5.86526L18.1707 6.73113L19.9736 5.86526ZM0.0173792 24.0098L2.01273 23.8735L0.0173792 24.0098ZM8.66613 -1.63512C6.91167 -0.992701 5.53191 0.384728 4.45063 1.93164C3.35431 3.50007 2.43796 5.42445 1.67207 7.45285C0.138874 11.5134 -0.89893 16.2825 -1.51175 20.1931L2.44002 20.8124C3.03023 17.0461 4.01463 12.5724 5.4142 8.86582C6.11468 7.01064 6.89235 5.42036 7.72912 4.22326C8.58092 3.00464 9.3733 2.36566 10.0415 2.121L8.66613 -1.63512ZM13.6928 -1.40113L12.0452 -1.73066L11.2607 2.19166L12.9084 2.52119L13.6928 -1.40113ZM26.2479 13.3867C24.5316 10.5034 22.9844 7.51449 21.7764 4.99939L18.1707 6.73113C19.4161 9.3242 21.0191 12.4227 22.8108 15.4327L26.2479 13.3867ZM25.6054 18.6332C27.1961 20.1026 28 21.7944 28 23.4999H32C32 20.4457 30.5417 17.7476 28.3196 15.695L25.6054 18.6332ZM28 23.4999C28 25.5677 26.8053 27.6441 24.4597 29.2861C22.1204 30.9236 18.7821 31.9999 15 31.9999V35.9999C19.5022 35.9999 23.6639 34.7257 26.7535 32.563C29.8368 30.4047 32 27.2312 32 23.4999H28ZM15 31.9999C11.3309 31.9999 8.07688 30.9867 5.74847 29.4285C3.40984 27.8635 2.1489 25.8669 2.01273 23.8735L-1.97797 24.1462C-1.73418 27.7149 0.476174 30.7134 3.52385 32.7528C6.58175 34.7992 10.6291 35.9999 15 35.9999V31.9999ZM-1.97857 23.6931C-1.98167 23.7218 -1.98473 23.7504 -1.98777 23.7788L1.98972 24.2026C1.99256 24.176 1.99542 24.1493 1.99832 24.1224L-1.97857 23.6931ZM2.00754 23.7876C2.00253 23.6923 2 23.5963 2 23.4999H-2C-2 23.6664 -1.99563 23.8322 -1.98696 23.9974L2.00754 23.7876ZM2 23.4999C2 23.1057 2.04231 22.7183 2.12441 22.3385L-1.78529 21.4934C-1.92652 22.1467 -2 22.8173 -2 23.4999H2ZM1.99832 24.1224C2.01042 24.0104 2.01336 23.8984 2.00754 23.7876L-1.98696 23.9974C-1.99224 23.8968 -1.98957 23.795 -1.97857 23.6931L1.99832 24.1224ZM0.26408 22.0174C1.33829 22.1554 2.10436 23.1266 1.98972 24.2026L-1.98777 23.7788C-2.10349 24.865 -1.33016 25.8454 -0.245766 25.9848L0.26408 22.0174ZM22.8108 15.4327C23.6076 16.7712 24.713 17.8089 25.6054 18.6332L28.3196 15.695C27.4027 14.848 26.711 14.1646 26.2479 13.3867L22.8108 15.4327ZM12.9084 2.52119C15.1818 2.97587 17.1238 4.55128 18.1707 6.73113L21.7764 4.99939C20.2293 1.77819 17.2948 -0.68074 13.6928 -1.40113L12.9084 2.52119ZM2.01273 23.8735C1.94792 22.9249 1.22311 22.1406 0.26408 22.0174L-0.245766 25.9848C-1.19585 25.8627 -1.91378 25.0858 -1.97797 24.1462L2.01273 23.8735ZM-1.51175 20.1931C-1.57452 20.5937 -1.66354 20.9301 -1.78529 21.4934L2.12441 22.3385C2.20615 21.9603 2.35369 21.3633 2.44002 20.8124L-1.51175 20.1931ZM10.0415 2.121C10.2057 2.06087 10.5146 2.04245 11.2607 2.19166L12.0452 -1.73066C11.2605 -1.8876 9.9678 -2.11174 8.66613 -1.63512L10.0415 2.121Z" fill="#821717" mask="url(#path-1-inside-1_235_12055)"/>
<path fill-rule="evenodd" clip-rule="evenodd" d="M4.07719 21.2313C4.15953 20.7568 4.28235 20.2911 4.35873 19.8156C5.20104 14.5726 7.11572 7.38999 10.3331 5.93476C10.9711 5.64621 11.6977 5.74642 12.3843 5.88374C15.0196 6.4108 17.2044 8.22238 18.3952 10.6317C19.1104 12.0787 19.9587 13.6907 20.8864 15.2814C21.5068 16.3452 22.4275 17.1895 23.2719 18.0859C24.3642 19.2454 25 20.6342 25 22.127C25 26.1863 20.299 29.477 14.5 29.477C8.87192 29.477 4.27805 26.3774 4.01216 22.4838C4.01194 22.4807 4.00953 22.4781 4.00641 22.4777C4.00284 22.4773 4.0003 22.474 4.00068 22.4705C4.00274 22.4512 4.00481 22.4318 4.00691 22.4124C4.00729 22.4089 4.00739 22.4053 4.0072 22.4018C4.00241 22.3106 4 22.219 4 22.127C4 21.8238 4.02623 21.5249 4.07719 21.2313Z" fill="#F06262"/>
<path fill-rule="evenodd" clip-rule="evenodd" d="M8.01222 20.1263C8.05401 19.6465 8.18686 19.1788 8.26699 18.704C8.80986 15.4871 9.98401 11.2597 11.9205 10.3838C12.3154 10.2051 12.7652 10.2672 13.1903 10.3522C14.8217 10.6785 16.1742 11.7999 16.9113 13.2914C17.2616 14.0001 17.6635 14.7728 18.1005 15.5523C18.7027 16.6265 19.6847 17.44 20.3757 18.4594C20.776 19.0499 21 19.7104 21 20.4075C21 22.9204 18.0899 24.9575 14.5 24.9575C11.016 24.9575 8.17213 23.0387 8.00753 20.6284C8.00739 20.6265 8.0059 20.6249 8.00397 20.6247C8.00176 20.6244 8.00019 20.6224 8.00042 20.6202C8.0017 20.6082 8.00298 20.5963 8.00428 20.5842C8.00451 20.582 8.00457 20.5798 8.00446 20.5776C8.00149 20.5212 8 20.4645 8 20.4075C8 20.3131 8.00411 20.2193 8.01222 20.1263Z" fill="#D62E2E"/>
<path fill-rule="evenodd" clip-rule="evenodd" d="M12 19.4593C12 19.0991 12.1068 18.7475 12.1696 18.3928C12.4724 16.6817 13.098 14.5201 14.111 14.0619C14.3237 13.9657 14.5659 13.9991 14.7948 14.0449C15.6732 14.2206 16.4015 14.8245 16.7984 15.6276C16.9787 15.9923 17.1843 16.3884 17.4075 16.7892C17.7508 17.4053 18.3204 17.8687 18.6989 18.4637C18.8924 18.7679 19 19.1048 19 19.4593C19 20.8124 17.433 21.9093 15.5 21.9093C13.624 21.9093 12.0927 20.8761 12.0041 19.5783C12.004 19.5772 12.0032 19.5764 12.0021 19.5762C12.0009 19.5761 12.0001 19.575 12.0002 19.5738C12.0009 19.5674 12.0016 19.5609 12.0023 19.5545C12.0024 19.5533 12.0025 19.5521 12.0024 19.5509C12.0008 19.5205 12 19.49 12 19.4593Z" fill="white"/>
</svg>
