<svg width="39" height="20" viewBox="0 0 39 20" fill="none" xmlns="http://www.w3.org/2000/svg">
<rect x="5" y="5" width="28" height="15" fill="#D9D9D9"/>
<rect x="11" y="5" width="25" height="15" fill="#B9E7ED"/>
<mask id="mask0_235_12292" style="mask-type:alpha" maskUnits="userSpaceOnUse" x="11" y="5" width="25" height="15">
<rect x="11" y="5" width="25" height="15" fill="#B9E7ED"/>
</mask>
<g mask="url(#mask0_235_12292)">
<path d="M20 11.5C10.8 13.1 8.16667 18.5 8 21L43 22.5L40 3C32 13 31.5 9.5 20 11.5Z" fill="#D696D8"/>
</g>
<path d="M6 0H10L11 5H5L6 0Z" fill="#B9E7ED"/>
<path d="M0 8C0 6.89543 0.895431 6 2 6H11V20H2C0.895431 20 0 19.1046 0 18V8Z" fill="#9D9898"/>
<circle cx="3.5" cy="9.5" r="1.5" fill="#766F6F"/>
<circle cx="3.5" cy="15.5" r="1.5" fill="#766F6F"/>
<circle cx="3.5" cy="15.5" r="1" fill="#E6AEF4"/>
<circle cx="8.5" cy="9.5" r="1.5" fill="#766F6F"/>
<circle cx="8.5" cy="15.5" r="1.5" fill="#766F6F"/>
<circle cx="8.5" cy="15.5" r="1" fill="#E6AEF4"/>
<circle cx="8.5" cy="9.5" r="1" fill="#E6AEF4"/>
<ellipse cx="23.1841" cy="12.5172" rx="7.5" ry="3" transform="rotate(-12.4001 23.1841 12.5172)" fill="white"/>
<ellipse cx="22.9693" cy="11.5404" rx="7.5" ry="3" transform="rotate(-12.4001 22.9693 11.5404)" fill="#FED7FF"/>
</svg>
