<svg width="33" height="33" viewBox="0 0 33 33" fill="none" xmlns="http://www.w3.org/2000/svg">
<rect x="2" y="1" width="21" height="32" fill="#68A6C8"/>
<rect x="11" y="1" width="21" height="32" fill="#76BCE3"/>
<path d="M2 1L6 8.5L10.5 1" stroke="#4F819D"/>
<path d="M25.9474 19.5263C25.9474 21.9971 23.9444 24 21.4737 24C19.0029 24 17 21.9971 17 19.5263C17 17.0556 21.4737 7 21.4737 7C21.4737 7 25.9474 17.0556 25.9474 19.5263Z" fill="white"/>
<path d="M6.09724 29.3078C1.18371 28.4498 -0.02965 30.1208 0.000545585 31.7043C0.0159417 32.5116 0.80837 33 1.61587 33H31C32.1046 33 33 32.1046 33 31V30.9164C33 29.9771 32.3463 29.1643 31.4287 28.9629L28.1908 28.2523C24.482 27.4383 20.6251 27.9142 16.9227 28.757C13.695 29.4918 9.75002 29.9456 6.09724 29.3078Z" fill="white" fill-opacity="0.3"/>
</svg>
