<svg width="20" height="16" viewBox="0 0 20 16" fill="none" xmlns="http://www.w3.org/2000/svg">
<ellipse cx="10" cy="10.4999" rx="9" ry="3.5" transform="rotate(-8.22689 10 10.4999)" fill="#28282D"/>
<ellipse cx="11.5" cy="9" rx="7.5" ry="4" fill="#5D5D7E"/>
<path d="M19 9C19 11.2091 15.6421 13 11.5 13C7.35786 13 4 11.2091 4 9" stroke="white" stroke-width="0.5"/>
<rect x="4" y="3" width="15" height="7" rx="1" fill="#5D5D7E"/>
<ellipse cx="11.5" cy="4" rx="7.5" ry="4" fill="#5D5D7E"/>
<path d="M18.75 4C18.75 4.96729 18.0107 5.90113 16.6857 6.60784C15.3713 7.30882 13.5383 7.75 11.5 7.75C9.46166 7.75 7.62869 7.30882 6.31435 6.60784C4.98926 5.90113 4.25 4.96729 4.25 4C4.25 3.03271 4.98926 2.09887 6.31435 1.39216C7.62869 0.691178 9.46166 0.25 11.5 0.25C13.5383 0.25 15.3713 0.691178 16.6857 1.39216C18.0107 2.09887 18.75 3.03271 18.75 4Z" stroke="white" stroke-width="0.5"/>
<ellipse cx="6.5" cy="9" rx="0.5" ry="1" fill="white"/>
</svg>
