<svg viewBox="0 0 36 30" fill="none" xmlns="http://www.w3.org/2000/svg">
<mask id="path-1-inside-1_101_2089" fill="white">
<path d="M22.8203 5.82634C25.3846 5.84906 27.4451 7.94612 27.4224 10.5105C27.3999 13.0746 25.3029 15.135 22.7385 15.1126C20.1741 15.0898 18.1139 12.9928 18.1364 10.4287C18.1589 7.86434 20.2559 5.80387 22.8203 5.82634Z"/>
</mask>
<path d="M22.8203 5.82634C25.3846 5.84906 27.4451 7.94612 27.4224 10.5105C27.3999 13.0746 25.3029 15.135 22.7385 15.1126C20.1741 15.0898 18.1139 12.9928 18.1364 10.4287C18.1589 7.86434 20.2559 5.80387 22.8203 5.82634Z" fill="#6A6AF4"/>
<path d="M27.4224 10.5105L26.9224 10.506V10.5061L27.4224 10.5105ZM22.7385 15.1126L22.7341 15.6125H22.7341L22.7385 15.1126ZM18.1364 10.4287L18.6364 10.4331V10.4331L18.1364 10.4287ZM22.8158 6.32632C25.1041 6.3466 26.9427 8.21785 26.9224 10.506L27.9223 10.5149C27.9475 7.67438 25.6652 5.35153 22.8247 5.32636L22.8158 6.32632ZM26.9224 10.5061C26.9023 12.794 25.0311 14.6326 22.7429 14.6126L22.7341 15.6125C25.5746 15.6374 27.8975 13.3551 27.9223 10.5148L26.9224 10.5061ZM22.7429 14.6126C20.4547 14.5923 18.6163 12.7211 18.6364 10.4331L17.6364 10.4243C17.6115 13.2645 19.8936 15.5874 22.7341 15.6125L22.7429 14.6126ZM18.6364 10.4331C18.6564 8.14487 20.5277 6.30627 22.8159 6.32632L22.8247 5.32636C19.9842 5.30147 17.6613 7.58381 17.6364 10.4243L18.6364 10.4331Z" fill="white" mask="url(#path-1-inside-1_101_2089)"/>
<path d="M31.9295 9.43743C32.2256 8.51612 33.211 7.99501 34.1236 8.28825C35.034 8.58106 35.5324 9.55915 35.2349 10.5208C35.2347 10.5214 35.2346 10.5219 35.2344 10.5225L34.1497 13.8516L34.1493 13.8529C33.2745 16.5872 31.1973 18.7738 28.4644 19.7586C28.1426 19.8658 27.8195 19.9377 27.4819 20.0128L27.4809 20.013L27.2852 20.0566L27.2852 20.2571L27.285 28.7193C27.285 29.2553 26.8352 29.705 26.2993 29.705H19.185C18.649 29.705 18.1994 29.2552 18.1994 28.7194V23.0654V22.1877L17.7369 22.9337L14.2552 28.5495C14.2552 28.5497 14.2551 28.5498 14.255 28.5499C13.9274 29.0742 13.3717 29.3681 12.7824 29.3681C12.4992 29.3681 12.169 29.273 11.8622 29.1038C11.0422 28.5741 10.788 27.4947 11.308 26.6824L11.3099 26.6794L15.8397 19.379C15.8398 19.3788 15.84 19.3786 15.8401 19.3784C16.8054 17.8415 18.485 16.9124 20.3084 16.9124H24.8393C25.6939 16.9124 26.5082 16.757 27.2809 16.4864L27.2809 16.4865L27.2855 16.4848C28.9659 15.8595 30.2956 14.492 30.8438 12.7698C30.8438 12.7696 30.8439 12.7694 30.844 12.7692L31.9292 9.43837L31.9295 9.43743Z" fill="#6A6AF4" stroke="white" stroke-width="0.5"/>
<path d="M14.1301 16.2879C14.3174 16.3628 14.5047 16.3628 14.6543 16.3628C15.1036 16.3628 15.5155 16.1756 15.8527 15.876C16.3019 15.4268 16.4892 14.7526 16.2646 14.1161L15.4034 11.4952C16.8637 8.42464 16.2272 4.79274 13.8308 2.3589C10.6856 -0.7863 5.55575 -0.7863 2.37304 2.3589C-0.809807 5.5041 -0.772162 10.634 2.37304 13.8167C4.76943 16.2131 8.40147 16.8495 11.5093 15.3893L14.1301 16.2879Z" fill="#C2F1FB"/>
<path d="M8.93787 11.4202C8.93787 11.8197 8.61388 12.1437 8.2144 12.1437C7.81465 12.1437 7.49072 11.8197 7.49072 11.4202C7.49072 11.0205 7.81471 10.6965 8.2144 10.6965C8.61383 10.6965 8.93787 11.0205 8.93787 11.4202Z" fill="#000091" stroke="#C2F1FB" stroke-width="0.5"/>
<path d="M8.1024 4.03174H8.13064C9.15695 4.04101 9.99219 4.55625 10.3911 5.28496C10.7963 6.06355 10.7256 6.96991 10.2244 7.63823L10.2242 7.63812L10.2188 7.64595C9.91374 8.08674 9.57741 8.32685 9.31868 8.51155C9.31431 8.51467 9.30996 8.51778 9.30564 8.52087L9.3056 8.52081L9.30094 8.5243C9.28719 8.53461 9.27334 8.5449 9.25945 8.55521C9.14041 8.64358 9.0187 8.73393 8.93703 8.8596C8.83952 9.00964 8.80888 9.1868 8.78989 9.4151L8.78904 9.42544V9.43581C8.78904 9.53427 8.70324 9.63505 8.55219 9.63505H7.91568C7.8615 9.63505 7.82824 9.6283 7.80395 9.61897C7.78079 9.61007 7.75341 9.59411 7.71792 9.55862C7.68249 9.52319 7.66651 9.49577 7.65758 9.47253C7.64866 9.44929 7.64212 9.41796 7.64152 9.36832C7.6776 8.82371 7.7995 8.47747 7.96131 8.22884C8.12506 7.97721 8.34353 7.80338 8.61593 7.62169C8.85527 7.46222 9.06888 7.29282 9.27981 6.99745L9.28719 6.98712L9.29349 6.97609C9.47823 6.65242 9.5297 6.22673 9.33736 5.84172L9.33731 5.84163C9.26855 5.70412 9.15035 5.52546 8.94143 5.38224C8.73084 5.23788 8.44607 5.1419 8.06529 5.1419C7.57989 5.1419 7.22999 5.29178 6.99222 5.53564C6.7607 5.77309 6.66244 6.07222 6.6204 6.32409C6.61295 6.36856 6.58393 6.42113 6.53264 6.46433C6.48122 6.50763 6.42432 6.52726 6.38012 6.52726H5.74361C5.69203 6.52726 5.64025 6.50762 5.54585 6.41322L5.36907 6.58999L5.54585 6.41321C5.53505 6.40242 5.51744 6.37806 5.50628 6.34677C5.49559 6.31679 5.49509 6.29294 5.49932 6.27598L5.50173 6.26633L5.50336 6.25651C5.59026 5.73467 5.82443 5.17671 6.24022 4.75244C6.65083 4.33345 7.25066 4.03174 8.1024 4.03174Z" fill="#000091" stroke="#C2F1FB" stroke-width="0.5"/>
</svg>
