<svg width="28" height="24" viewBox="0 0 28 24" fill="none" xmlns="http://www.w3.org/2000/svg">
<path d="M23.1326 0.939684L18 6.5C19.6667 10.1667 23.1 17.2 23.5 16C23.8674 14.8978 23.9817 6.3991 23.9979 1.27601C23.9993 0.820852 23.4413 0.605235 23.1326 0.939684Z" fill="#D9D9D9"/>
<path d="M4.8674 0.939684L10 6.5C8.33333 10.1667 4.9 17.2 4.5 16C4.13259 14.8978 4.01829 6.3991 4.0021 1.27601C4.00066 0.820852 4.55868 0.605235 4.8674 0.939684Z" fill="#D9D9D9"/>
<ellipse cx="14" cy="14.5" rx="10" ry="9" fill="#D9D9D9"/>
<mask id="mask0_235_12291" style="mask-type:alpha" maskUnits="userSpaceOnUse" x="4" y="5" width="20" height="19">
<ellipse cx="14" cy="14.5" rx="10" ry="9" fill="#D9D9D9"/>
</mask>
<g mask="url(#mask0_235_12291)">
<path d="M13.8327 10.2752L12.5565 4.74497C12.5276 4.61965 12.6228 4.5 12.7514 4.5H15.7292C15.8638 4.5 15.9599 4.63021 15.9204 4.75882L14.2188 10.289C14.1586 10.4844 13.8787 10.4744 13.8327 10.2752Z" fill="#808989"/>
<path d="M12.0885 8.71677L10.1217 5.42458C10.0581 5.31816 10.1056 5.18013 10.2213 5.13545L11.6316 4.59049C11.7514 4.5442 11.8831 4.62123 11.9016 4.74834L12.4581 8.58549C12.4895 8.80188 12.2006 8.90447 12.0885 8.71677Z" fill="#808989"/>
<path d="M16.5795 8.71677L18.5463 5.42458C18.6099 5.31816 18.5623 5.18013 18.4467 5.13545L17.0364 4.59049C16.9166 4.5442 16.7848 4.62123 16.7664 4.74834L16.2099 8.58549C16.1785 8.80188 16.4674 8.90447 16.5795 8.71677Z" fill="#808989"/>
<path d="M22.1915 15.465L26.0265 15.4713C26.1504 15.4715 26.2447 15.36 26.224 15.2378L25.971 13.7472C25.9495 13.6206 25.8159 13.5467 25.6972 13.5959L22.1153 15.0802C21.9133 15.1639 21.9729 15.4646 22.1915 15.465Z" fill="#808989"/>
<path d="M6.07215 15.465L2.2372 15.4713C2.11324 15.4715 2.01895 15.36 2.03969 15.2378L2.2927 13.7472C2.3142 13.6206 2.44779 13.5467 2.56645 13.5959L6.14838 15.0802C6.35037 15.1639 6.29079 15.4646 6.07215 15.465Z" fill="#808989"/>
</g>
<circle cx="17.9" cy="12.4" r="0.9" fill="black"/>
<circle cx="9.9" cy="12.4" r="0.9" fill="black"/>
<path d="M18 16.5C18 17.6046 17.1046 18.5 16 18.5C14.8954 18.5 14 17.6046 14 16.5" stroke="#959191" stroke-width="0.5"/>
<path d="M14 16.5C14 17.6046 13.1046 18.5 12 18.5C10.8954 18.5 10 17.6046 10 16.5" stroke="#959191" stroke-width="0.5"/>
<path d="M11.8536 15.1819C11.5386 14.8669 11.7617 14.3284 12.2071 14.3284H13.9698H15.7326C16.178 14.3284 16.4011 14.8669 16.0861 15.1819L14.3234 16.9447C14.1281 17.1399 13.8116 17.1399 13.6163 16.9447L11.8536 15.1819Z" fill="#D9A4DA"/>
<line y1="-0.25" x2="7.61577" y2="-0.25" transform="matrix(0.919145 -0.393919 0.250962 0.967997 21 14.5)" stroke="black" stroke-width="0.5"/>
<line y1="-0.25" x2="7.61577" y2="-0.25" transform="matrix(-0.919145 -0.393919 -0.250962 0.967997 7 14.5)" stroke="black" stroke-width="0.5"/>
<line x1="21.0928" y1="16.2679" x2="26.0928" y2="18.2679" stroke="black" stroke-width="0.5"/>
<line y1="-0.25" x2="5.38516" y2="-0.25" transform="matrix(-0.928477 0.371391 0.371391 0.928477 7 16.5)" stroke="black" stroke-width="0.5"/>
</svg>
