<svg width="40" height="40" viewBox="0 0 40 40" fill="none" xmlns="http://www.w3.org/2000/svg">
<mask id="mask0_45_6058" style="mask-type:alpha" maskUnits="userSpaceOnUse" x="0" y="0" width="40" height="40">
<path d="M5.85522 34.084C9.11402 37.3304 13.3905 39.357 17.967 39.8237C22.5433 40.2901 27.1409 39.1682 30.9881 36.6457C32.066 35.9331 32.7663 34.7738 32.8959 33.4883C33.0252 32.2029 32.5699 30.9269 31.6558 30.0141L30.888 29.2552L31.901 28.2423V28.2426C32.5581 27.5845 32.8559 26.6489 32.6998 25.7319C32.5435 24.8153 31.9533 24.0311 31.1152 23.6274L25.3964 20.8703C24.9538 20.6567 24.424 20.7521 24.0837 21.1066L22.2942 22.9643H22.2397C19.8389 22.0029 17.9397 20.0956 16.9886 17.6906L18.8462 15.833H18.8465C19.1909 15.4946 19.2841 14.9753 19.0782 14.5383L16.3073 8.81037C15.903 7.97329 15.1182 7.38359 14.2016 7.22867C13.2846 7.07341 12.3496 7.37156 11.6921 8.02903L10.611 9.10564C9.38863 10.3303 8.54359 11.8803 8.17728 13.5716C7.81069 15.263 7.93807 17.0237 8.54451 18.6447C9.63669 21.5578 11.3407 24.2028 13.5415 26.4015C15.7426 28.6 18.3896 30.3012 21.3036 31.3902C23.8872 32.3556 26.7708 32.081 29.1257 30.6453C29.1716 30.723 29.2264 30.7946 29.2891 30.8589L30.0477 31.6174C30.4792 32.0483 30.6944 32.65 30.6335 33.2568C30.5727 33.8632 30.2425 34.4105 29.7343 34.7472C26.3263 36.9775 22.2551 37.969 18.2033 37.5555C14.1511 37.142 10.3644 35.3486 7.47689 32.4761C5.21902 30.2214 3.61201 27.3986 2.82554 24.3064C2.03912 21.2139 2.10281 17.9666 3.00931 14.907C3.91615 11.8475 5.63218 9.08997 7.97651 6.9253C11.2413 3.94253 15.4997 2.28126 19.922 2.26544C24.3443 2.24928 28.6141 3.87975 31.9008 6.83884C34.562 9.24116 36.4273 12.3979 37.2479 15.8878C38.0682 19.3775 37.8053 23.0346 36.4932 26.3709C36.2562 26.9554 36.5379 27.6215 37.1225 27.8585C37.7067 28.0955 38.3727 27.8138 38.6101 27.2295C40.0984 23.4619 40.3996 19.3295 39.4744 15.3854C38.5489 11.4416 36.4406 7.87482 33.4318 5.16192C29.7237 1.82265 24.906 -0.0173165 19.916 0.000122841C14.9259 0.0178663 10.1216 1.892 6.43659 5.25722C3.79027 7.69791 1.85208 10.8078 0.827133 14.2592C-0.197569 17.7099 -0.271706 21.3737 0.613262 24.8631C1.49821 28.3522 3.3093 31.5381 5.85519 34.0832L5.85522 34.084ZM22.0981 29.2644C19.4867 28.2879 17.115 26.7623 15.1436 24.7906C13.1719 22.8191 11.6463 20.4475 10.6698 17.8361C10.2186 16.6254 10.1245 15.3111 10.3982 14.0485C10.672 12.7859 11.3022 11.6288 12.2141 10.7137L13.2952 9.63266C13.4045 9.51891 13.5553 9.4549 13.7131 9.45554H13.8177C14.0157 9.48152 14.1868 9.60636 14.2717 9.78696L16.6835 14.7837L15.3207 16.1465H15.3211C15.0324 16.4396 14.8357 16.8106 14.7549 17.2142C14.6741 17.6176 14.713 18.0358 14.8667 18.4176C16.0317 21.4397 18.3989 23.843 21.4033 25.054L21.5351 25.104V25.1037C21.9318 25.2621 22.3671 25.2986 22.7847 25.208C23.2023 25.1173 23.5832 24.9038 23.8788 24.5952L25.155 23.2688L30.1517 25.6718V25.6715C30.3263 25.7561 30.4493 25.9199 30.4816 26.111C30.5142 26.302 30.4521 26.4972 30.3152 26.6347L29.2341 27.7158C28.3185 28.6311 27.1591 29.2639 25.8936 29.5383C24.6284 29.813 23.3109 29.718 22.0981 29.2645L22.0981 29.2644Z" fill="#6A6AF4"/>
</mask>
<g mask="url(#mask0_45_6058)">
<path d="M13.5 4.50002L34.7544 25.6457L22 36.5L4.00002 15.5L13.5 4.50002Z" fill="#6A6AF4"/>
</g>
</svg>
