<svg width="46" height="40" viewBox="0 0 46 40" fill="none" xmlns="http://www.w3.org/2000/svg">
<path d="M22.001 32C21.9454 28.2857 21.0676 20.4857 18.001 19" stroke="#87AE61"/>
<path d="M22.001 32C22.1399 28 24.3343 19.6 32.001 18" stroke="#87AE61"/>
<path d="M22.001 32C21.8621 24 19.6676 7.2 12.001 4" stroke="#87AE61"/>
<path d="M22.001 32C22.1399 24 24.3343 7.2 32.001 4" stroke="#87AE61"/>
<path d="M24.2847 33.3685C20.8221 26.1553 15.2516 10.1545 20.6699 3.85693" stroke="#87AE61"/>
<rect x="13.001" y="27" width="19" height="3" fill="#D38F5E"/>
<path d="M15.001 28H30.001L28.501 40H16.501L15.001 28Z" fill="#D38F5E"/>
<path d="M18.0249 23.9406C16.8693 26.3293 12.1831 29.1205 12.1831 29.1205C12.1831 29.1205 11.4629 23.7138 12.6185 21.3251C13.7741 18.9364 15.9212 17.5855 17.4141 18.3078C18.9071 19.03 19.1805 21.5519 18.0249 23.9406Z" fill="#9BDC5D"/>
<mask id="mask0_235_12290" style="mask-type:alpha" maskUnits="userSpaceOnUse" x="11" y="18" width="8" height="12">
<path d="M18.0249 23.9406C16.8693 26.3293 12.1831 29.1205 12.1831 29.1205C12.1831 29.1205 11.4629 23.7138 12.6185 21.3251C13.7741 18.9364 15.9212 17.5855 17.4141 18.3078C18.9071 19.03 19.1805 21.5519 18.0249 23.9406Z" fill="#9BDC5D"/>
</mask>
<g mask="url(#mask0_235_12290)">
<line x1="17.8466" y1="17.1826" x2="11.3078" y2="30.6985" stroke="#87AE61"/>
<line x1="16.5331" y1="19.4388" x2="19.2889" y2="24.775" stroke="#87AE61"/>
<line y1="-0.5" x2="6.00583" y2="-0.5" transform="matrix(-0.981451 0.191715 0.191715 0.981451 16.6299 19.9297)" stroke="#87AE61"/>
<line x1="15.4872" y1="21.6011" x2="18.243" y2="26.9374" stroke="#87AE61"/>
<line y1="-0.5" x2="6.00583" y2="-0.5" transform="matrix(-0.981451 0.191715 0.191715 0.981451 15.583 22.0923)" stroke="#87AE61"/>
<line x1="14.4403" y1="23.7637" x2="17.1961" y2="29.1" stroke="#87AE61"/>
<line y1="-0.5" x2="6.00583" y2="-0.5" transform="matrix(-0.981451 0.191715 0.191715 0.981451 14.5371 24.2549)" stroke="#87AE61"/>
<line x1="13.3945" y1="25.9263" x2="16.1502" y2="31.2626" stroke="#87AE61"/>
<line y1="-0.5" x2="6.00583" y2="-0.5" transform="matrix(-0.981451 0.191715 0.191715 0.981451 13.4912 26.4175)" stroke="#87AE61"/>
</g>
<path d="M30.9836 23.0212C32.4857 26.126 38.5767 29.7539 38.5767 29.7539C38.5767 29.7539 39.5127 22.7264 38.0107 19.6217C36.5087 16.5169 33.718 14.761 31.7775 15.6998C29.837 16.6386 29.4816 19.9165 30.9836 23.0212Z" fill="#9BDC5D"/>
<mask id="mask1_235_12290" style="mask-type:alpha" maskUnits="userSpaceOnUse" x="30" y="15" width="9" height="15">
<path d="M30.9836 23.0212C32.4857 26.126 38.5767 29.7539 38.5767 29.7539C38.5767 29.7539 39.5127 22.7264 38.0107 19.6217C36.5087 16.5169 33.718 14.761 31.7775 15.6998C29.837 16.6386 29.4816 19.9165 30.9836 23.0212Z" fill="#9BDC5D"/>
</mask>
<g mask="url(#mask1_235_12290)">
<line y1="-0.5" x2="19.5155" y2="-0.5" transform="matrix(0.435498 0.90019 0.90019 -0.435498 31.8008 13.9543)" stroke="#87AE61"/>
<line y1="-0.5" x2="7.8062" y2="-0.5" transform="matrix(-0.458853 0.888512 0.888512 0.458853 33.5 17.468)" stroke="#87AE61"/>
<line x1="32.8937" y1="17.3174" x2="40.5551" y2="18.8139" stroke="#87AE61"/>
<line y1="-0.5" x2="7.8062" y2="-0.5" transform="matrix(-0.458853 0.888512 0.888512 0.458853 34.8604 20.2788)" stroke="#87AE61"/>
<line x1="34.2531" y1="20.1279" x2="41.9145" y2="21.6245" stroke="#87AE61"/>
<line y1="-0.5" x2="7.8062" y2="-0.5" transform="matrix(-0.458853 0.888512 0.888512 0.458853 36.2197 23.0896)" stroke="#87AE61"/>
<line x1="35.6125" y1="22.939" x2="43.2739" y2="24.4355" stroke="#87AE61"/>
<line y1="-0.5" x2="7.8062" y2="-0.5" transform="matrix(-0.458853 0.888512 0.888512 0.458853 37.5791 25.9004)" stroke="#87AE61"/>
<line x1="36.9728" y1="25.7498" x2="44.6342" y2="27.2463" stroke="#87AE61"/>
</g>
<path d="M14.8332 12.435C12.1576 15.4939 4.10453 17.7148 4.10453 17.7148C4.10453 17.7148 5.23443 9.43791 7.91012 6.37908C10.5858 3.32025 14.3047 2.19625 16.2164 3.86856C18.1282 5.54086 17.5089 9.37621 14.8332 12.435Z" fill="#9BDC5D"/>
<mask id="mask2_235_12290" style="mask-type:alpha" maskUnits="userSpaceOnUse" x="4" y="3" width="14" height="15">
<path d="M14.8332 12.435C12.1576 15.4939 4.10453 17.7148 4.10453 17.7148C4.10453 17.7148 5.23443 9.43791 7.91012 6.37908C10.5858 3.32025 14.3047 2.19625 16.2164 3.86856C18.1282 5.54086 17.5089 9.37621 14.8332 12.435Z" fill="#9BDC5D"/>
</mask>
<g mask="url(#mask2_235_12290)">
<line x1="17.1117" y1="2.20762" x2="1.97179" y2="19.5154" stroke="#87AE61"/>
<line x1="14.1962" y1="5.23629" x2="16.1011" y2="14.2349" stroke="#87AE61"/>
<line y1="-0.5" x2="9.19806" y2="-0.5" transform="matrix(-0.997175 -0.0751123 -0.0751123 0.997175 14.3994 5.94556)" stroke="#87AE61"/>
<line x1="11.7743" y1="8.00582" x2="13.6792" y2="17.0045" stroke="#87AE61"/>
<line y1="-0.5" x2="9.19806" y2="-0.5" transform="matrix(-0.997175 -0.0751123 -0.0751123 0.997175 11.9775 8.7146)" stroke="#87AE61"/>
<line x1="9.35146" y1="10.7749" x2="11.2564" y2="19.7735" stroke="#87AE61"/>
<line y1="-0.5" x2="9.19806" y2="-0.5" transform="matrix(-0.997175 -0.0751123 -0.0751123 0.997175 9.55469 11.4839)" stroke="#87AE61"/>
<line x1="6.92959" y1="13.5442" x2="8.83452" y2="22.5428" stroke="#87AE61"/>
<line y1="-0.5" x2="9.19806" y2="-0.5" transform="matrix(-0.997175 -0.0751123 -0.0751123 0.997175 7.13281 14.2534)" stroke="#87AE61"/>
</g>
<path d="M31.8999 12.1767C34.6059 14.9669 42.4069 16.6926 42.4069 16.6926C42.4069 16.6926 40.921 8.84237 38.2151 6.05215C35.5091 3.26192 31.9017 2.37102 30.1578 4.06226C28.4139 5.75351 29.1939 9.38645 31.8999 12.1767Z" fill="#9BDC5D"/>
<mask id="mask3_235_12290" style="mask-type:alpha" maskUnits="userSpaceOnUse" x="29" y="3" width="14" height="14">
<path d="M31.8999 12.1767C34.6059 14.9669 42.4069 16.6926 42.4069 16.6926C42.4069 16.6926 40.921 8.84237 38.2151 6.05215C35.5091 3.26192 31.9017 2.37102 30.1578 4.06226C28.4139 5.75351 29.1939 9.38645 31.8999 12.1767Z" fill="#9BDC5D"/>
</mask>
<g mask="url(#mask3_235_12290)">
<line y1="-0.5" x2="21.9931" y2="-0.5" transform="matrix(0.696188 0.71786 0.71786 -0.696188 29.5645 2.18677)" stroke="#87AE61"/>
<line y1="-0.5" x2="8.79724" y2="-0.5" transform="matrix(-0.156575 0.987666 0.987666 0.156575 32.627 5.34424)" stroke="#87AE61"/>
<line x1="31.932" y1="5.46103" x2="40.6589" y2="4.35052" stroke="#87AE61"/>
<line y1="-0.5" x2="8.79724" y2="-0.5" transform="matrix(-0.156575 0.987666 0.987666 0.156575 35.0762 7.87061)" stroke="#87AE61"/>
<line x1="34.3812" y1="7.98691" x2="43.1081" y2="6.8764" stroke="#87AE61"/>
<line y1="-0.5" x2="8.79724" y2="-0.5" transform="matrix(-0.156575 0.987666 0.987666 0.156575 37.5264 10.3967)" stroke="#87AE61"/>
<line x1="36.8314" y1="10.513" x2="45.5583" y2="9.40252" stroke="#87AE61"/>
<line y1="-0.5" x2="8.79724" y2="-0.5" transform="matrix(-0.156575 0.987666 0.987666 0.156575 39.9756 12.9229)" stroke="#87AE61"/>
<line x1="39.2816" y1="13.0392" x2="48.0085" y2="11.9286" stroke="#87AE61"/>
</g>
<path d="M19.4441 11.4104C20.7934 14.9209 27.0817 19.4179 27.0817 19.4179C27.0817 19.4179 28.7389 11.8669 27.3895 8.35636C26.0402 4.84584 23.1676 2.68367 20.9736 3.52703C18.7795 4.37038 18.0947 7.89989 19.4441 11.4104Z" fill="#9BDC5D"/>
<mask id="mask4_235_12290" style="mask-type:alpha" maskUnits="userSpaceOnUse" x="18" y="3" width="10" height="17">
<path d="M19.4441 11.4104C20.7934 14.9209 27.0817 19.4179 27.0817 19.4179C27.0817 19.4179 28.7389 11.8669 27.3895 8.35636C26.0402 4.84584 23.1676 2.68367 20.9736 3.52703C18.7795 4.37038 18.0947 7.89989 19.4441 11.4104Z" fill="#9BDC5D"/>
</mask>
<g mask="url(#mask4_235_12290)">
<line y1="-0.5" x2="21.2805" y2="-0.5" transform="matrix(0.358786 0.93342 0.93342 -0.358786 21.1572 1.63257)" stroke="#87AE61"/>
<line y1="-0.5" x2="8.51219" y2="-0.5" transform="matrix(-0.531465 0.84708 0.84708 0.531465 22.6846 5.60522)" stroke="#87AE61"/>
<line x1="22.0262" y1="5.42964" x2="30.215" y2="7.75367" stroke="#87AE61"/>
<line y1="-0.5" x2="8.51219" y2="-0.5" transform="matrix(-0.531465 0.84708 0.84708 0.531465 23.9062 8.78345)" stroke="#87AE61"/>
<line x1="23.2478" y1="8.60786" x2="31.4366" y2="10.9319" stroke="#87AE61"/>
<line y1="-0.5" x2="8.51219" y2="-0.5" transform="matrix(-0.531465 0.84708 0.84708 0.531465 25.1279 11.9617)" stroke="#87AE61"/>
<line x1="24.4695" y1="11.7861" x2="32.6583" y2="14.1101" stroke="#87AE61"/>
<line y1="-0.5" x2="8.51219" y2="-0.5" transform="matrix(-0.531465 0.84708 0.84708 0.531465 26.3486 15.1399)" stroke="#87AE61"/>
<line x1="25.6912" y1="14.9643" x2="33.88" y2="17.2883" stroke="#87AE61"/>
</g>
</svg>
