<svg width="42" height="46" viewBox="0 0 42 46" fill="none" xmlns="http://www.w3.org/2000/svg">
<path d="M40.9856 44.2483C41.0198 44.3542 40.992 44.4703 40.9132 44.5491C40.8563 44.6059 40.7809 44.6362 40.7032 44.6362C40.6724 44.6362 40.6417 44.6316 40.6121 44.622L34.0376 42.5017C31.7563 43.8989 29.1373 44.6361 26.4544 44.6361C18.4339 44.6361 11.909 38.1113 11.909 30.0907C11.909 22.0702 18.4339 15.5453 26.4544 15.5453C34.475 15.5453 40.9998 22.0702 40.9998 30.0907C40.9998 32.7735 40.2623 35.3924 38.8656 37.6739L40.9856 44.2483ZM40.4064 30.0906C40.4064 22.3972 34.1474 16.1388 26.4546 16.1388C18.7618 16.1388 12.5028 22.3978 12.5028 30.0906C12.5028 37.7834 18.7618 44.0424 26.4546 44.0424C29.0724 44.0424 31.6262 43.3103 33.8407 41.9252C33.8888 41.8954 33.9434 41.8799 33.9983 41.8799C34.0291 41.8799 34.0598 41.8845 34.0894 41.894L40.2435 43.8789L38.2594 37.7248C38.232 37.6417 38.2436 37.5506 38.2901 37.4763C39.6747 35.2617 40.407 32.7075 40.407 30.0902L40.4064 30.0906Z" fill="#8EACDA" stroke="#8EACDA"/>
<ellipse cx="20.5454" cy="20.9999" rx="16.8181" ry="16.3635" fill="white"/>
<path d="M1.01796 36.8786C0.975254 37.0109 1.00999 37.1562 1.1085 37.2547C1.17968 37.3256 1.27392 37.3634 1.37101 37.3634C1.40945 37.3634 1.44789 37.3577 1.4849 37.3458L9.70293 34.6954C12.5546 36.4418 15.8283 37.3634 19.1819 37.3634C29.2075 37.3634 37.3636 29.2073 37.3636 19.1817C37.3636 9.15607 29.2075 1 19.1819 1C9.15628 1 1.0002 9.15607 1.0002 19.1817C1.0002 22.5351 1.92208 25.8088 3.66802 28.6607L1.01796 36.8786ZM1.74199 19.1815C1.74199 9.56481 9.56571 1.74183 19.1817 1.74183C28.7977 1.74183 36.6214 9.56554 36.6214 19.1815C36.6214 28.7976 28.7977 36.6213 19.1817 36.6213C15.9094 36.6213 12.7173 35.7062 9.94909 33.9748C9.88902 33.9375 9.82069 33.9181 9.75207 33.9181C9.71364 33.9181 9.6752 33.9238 9.63819 33.9358L1.94567 36.4168L4.4258 28.7243C4.45997 28.6204 4.44545 28.5065 4.38737 28.4137C2.65659 25.6454 1.7412 22.4526 1.7412 19.181L1.74199 19.1815Z" stroke="#9090FD"/>
<path d="M13.9787 15.8506C14.1837 15.8506 14.3497 15.6846 14.3497 15.4796C14.3497 14.0483 14.9786 12.6991 16.0767 11.7778C17.1726 10.857 18.6235 10.4734 20.0613 10.7252C22.0022 11.0654 23.5958 12.6592 23.9372 14.6007C24.3588 17.0046 23.0016 19.3031 20.7085 20.0658C19.5736 20.4436 18.8112 21.4911 18.8112 22.6732V25.3188C18.8112 25.5238 18.9771 25.6898 19.1821 25.6898C19.3871 25.6898 19.5531 25.5238 19.5531 25.3188V22.6732C19.5531 21.8114 20.112 21.0467 20.9431 20.7702C23.5875 19.8905 25.1538 17.2414 24.6675 14.4723C24.274 12.2291 22.4325 10.3875 20.1894 9.99376C18.5321 9.70507 16.8637 10.1475 15.599 11.2092C14.3337 12.2724 13.6074 13.8289 13.6074 15.4797C13.6074 15.6847 13.7734 15.8507 13.9787 15.8507L13.9787 15.8506Z" fill="#6A6AF4" stroke="#000091"/>
<path d="M19.1967 27.7159H19.1896C18.9846 27.7159 18.822 27.8819 18.822 28.0869C18.822 28.2919 18.9923 28.4579 19.1967 28.4579C19.4017 28.4579 19.5677 28.2919 19.5677 28.0869C19.5677 27.8819 19.4017 27.7159 19.1967 27.7159H19.1967Z" fill="#6A6AF4" stroke="#000091"/>
</svg>
