<svg width="19" height="18" viewBox="0 0 19 18" fill="none" xmlns="http://www.w3.org/2000/svg">
<path d="M8.35873 1.51246C8.71795 0.406888 10.282 0.406888 10.6413 1.51246L11.8125 5.11712C11.9731 5.61155 12.4339 5.9463 12.9538 5.9463H16.7439C17.9064 5.9463 18.3897 7.43384 17.4493 8.11712L14.383 10.3449C13.9624 10.6505 13.7864 11.1921 13.947 11.6866L15.1183 15.2912C15.4775 16.3968 14.2121 17.3162 13.2717 16.6329L10.2053 14.4051C9.78476 14.0995 9.21524 14.0995 8.79466 14.4051L5.72835 16.6329C4.78789 17.3162 3.52252 16.3968 3.88174 15.2912L5.05296 11.6866C5.21361 11.1921 5.03762 10.6505 4.61704 10.3449L1.55073 8.11713C0.610272 7.43384 1.0936 5.9463 2.25607 5.9463H6.04624C6.56611 5.9463 7.02686 5.61155 7.18751 5.11712L8.35873 1.51246Z" stroke="#929292"/>
</svg>
