<svg width="44" height="32" viewBox="0 0 44 32" fill="none" xmlns="http://www.w3.org/2000/svg">
<line x1="12.4138" y1="11.9655" x2="31.9655" y2="30.5862" stroke="#C09A77" stroke-width="2" stroke-linecap="round"/>
<circle cx="11" cy="11" r="11" fill="#F77DD5"/>
<circle cx="11" cy="11" r="9" fill="#CC54AB"/>
<circle cx="11" cy="11" r="7" fill="#F67DD5"/>
<circle cx="11" cy="11" r="4" fill="#CC54AB"/>
<circle cx="11" cy="11" r="2" fill="#F67DD5"/>
<ellipse cx="34" cy="15.5" rx="5" ry="4.5" fill="#A72099"/>
<path d="M40.0075 12.4925L37.9065 14.5935C37.6462 14.8538 37.5 15.2068 37.5 15.5748V15.7426C37.5 16.2013 37.7758 16.6149 38.1991 16.7913L40.8962 17.9151C41.4604 18.1502 41.9376 17.4376 41.5054 17.0054C41.2487 16.7487 41.3016 16.3191 41.6129 16.1323L41.9712 15.9173C42.5983 15.541 42.5237 14.6095 41.8447 14.3379L41.6937 14.2775C41.3082 14.1233 41.1165 13.6892 41.2623 13.3005C41.5506 12.5316 40.5881 11.9119 40.0075 12.4925Z" fill="#A72099"/>
<path d="M27.4925 12.4925L29.5935 14.5935C29.8538 14.8538 30 15.2068 30 15.5748V15.7426C30 16.2013 29.7242 16.6149 29.3009 16.7913L26.6038 17.9151C26.0396 18.1502 25.5624 17.4376 25.9946 17.0054C26.2513 16.7487 26.1984 16.3191 25.8871 16.1323L25.5288 15.9173C24.9017 15.541 24.9763 14.6095 25.6553 14.3379L25.8063 14.2775C26.1918 14.1233 26.3835 13.6892 26.2377 13.3005C25.9494 12.5316 26.9119 11.9119 27.4925 12.4925Z" fill="#A72099"/>
</svg>
