<svg width="53" height="31" viewBox="0 0 53 31" fill="none" xmlns="http://www.w3.org/2000/svg">
<path d="M20 29C31.0457 29 40 20.0457 40 9H0C0 20.0457 8.9543 29 20 29Z" fill="#E8F3F2"/>
<path d="M47.501 11.6283C49.2982 14.8779 47.8955 19.4093 43.888 21.6256C39.8805 23.842 35.2967 22.6213 33.4996 19.3717C31.7024 16.1221 33.105 11.5907 37.1125 9.37441C41.12 7.15808 45.7038 8.37872 47.501 11.6283Z" stroke="#E8F3F2" stroke-width="3"/>
<ellipse cx="21" cy="29" rx="21" ry="2" fill="#E8F3F2"/>
<ellipse cx="19.5" cy="8" rx="19.5" ry="4" fill="#E8F3F2"/>
<ellipse cx="20.5" cy="8" rx="17.5" ry="2" fill="#89A960"/>
<path d="M20.75 0L32 1.5V9H17L20.75 0Z" fill="#EDE9E9"/>
<path d="M23 4L24 0.5L29 1.20699L28.5 4.5L23 4Z" fill="#CAB25E"/>
</svg>
