<svg width="14" height="15" viewBox="0 0 14 15" fill="none" xmlns="http://www.w3.org/2000/svg">
<path d="M0.269848 14.1149C-0.08995 13.7551 -0.0899499 13.172 0.269848 12.8124L5.69744 7.38477L0.269848 1.95718C-0.0899495 1.59738 -0.0899495 1.01422 0.269848 0.654614C0.629646 0.294816 1.21281 0.294816 1.57241 0.654614L7 6.0822L12.4276 0.654615C12.7872 0.294817 13.3705 0.294817 13.7302 0.654615C14.0899 1.01441 14.0899 1.59757 13.7302 1.95718L8.30256 7.38477L13.7302 12.8124C14.0899 13.1722 14.0897 13.7553 13.7302 14.1149C13.3704 14.4747 12.7872 14.4747 12.4276 14.1149L7 8.68733L1.57241 14.1149C1.21261 14.4747 0.629454 14.4747 0.269848 14.1149Z" fill="black"/>
</svg>
