<svg viewBox="0 0 40 27" fill="none" xmlns="http://www.w3.org/2000/svg">
<circle cx="9.51223" cy="20.561" r="2.85366" fill="#646464"/>
<circle cx="16.1707" cy="20.561" r="2.85366" fill="#646464"/>
<circle cx="26.6342" cy="20.561" r="2.85366" fill="#646464"/>
<circle cx="33.2926" cy="20.561" r="2.85366" fill="#646464"/>
<path d="M2.85364 0.585419H21.4215C31.1298 0.585419 39 8.4556 39 18.164C39 19.4878 37.9268 20.561 36.6029 20.561H2.85364V0.585419Z" fill="#9090FD"/>
<mask id="mask0_101_1449" style="mask-type:alpha" maskUnits="userSpaceOnUse" x="0" y="0" width="39" height="21">
<path d="M0 0.585434H21.4215C31.1298 0.585434 39 8.45561 39 18.164C39 19.4878 37.9268 20.561 36.6029 20.561H0V0.585434Z" fill="#9090FD"/>
</mask>
<g mask="url(#mask0_101_1449)">
<path d="M24.2805 3.43907C24.2805 3.18987 24.4825 2.98785 24.7317 2.98785H38.5V11.5H32.3415C27.8895 11.5 24.2805 7.89103 24.2805 3.43907Z" fill="#3E4C61" stroke="#435674"/>
<rect x="2.85364" y="15.8049" width="37.0976" height="0.951219" fill="#E8E8FF"/>
</g>
<path d="M3.5 2.50006H15.6109C17.2633 2.50006 18.7828 3.40569 19.5689 4.85911L22.762 10.7622C22.9422 11.0953 22.7009 11.5001 22.3222 11.5001H3.5V2.50006Z" fill="#3E4C61" stroke="#435674"/>
<rect x="6.25" y="2.25008" width="8.5" height="18.5" fill="#9090FD" stroke="#5555A3" stroke-width="0.5"/>
<rect x="2" y="26.0001" width="38" height="1" fill="#3C3C3C"/>
</svg>
