<svg width="24" height="8" viewBox="0 0 24 8" fill="none" xmlns="http://www.w3.org/2000/svg">
<path d="M4 1.5L3 2.5L3.5 5L4 6L5.5 7L6.5 6.5L8.5 6L10 4.5V2.5V1.5L9 1H7.5H5.5L4 1.5Z" fill="#3F3F3F" stroke="#3F3F3F"/>
<mask id="mask0_80_7997" style="mask-type:alpha" maskUnits="userSpaceOnUse" x="2" y="0" width="9" height="8">
<path d="M4 1.5L3 2.5L3.5 5L4 6L5.5 7L6.5 6.5L8.5 6L10 4.5V2.5V1.5L9 1H7.5H5.5L4 1.5Z" fill="#3F3F3F" stroke="#3F3F3F"/>
</mask>
<g mask="url(#mask0_80_7997)">
<rect x="3.36035" y="-1" width="10" height="2" transform="rotate(42.8614 3.36035 -1)" fill="#C4C4C4" fill-opacity="0.3"/>
</g>
<path d="M20 1.5L21 2.5L20.5 5V6L20 7H17L15.5 6L14.5 5L14 2.5V1.5L15 1H16.5H18.5L20 1.5Z" fill="#3F3F3F" stroke="#3F3F3F"/>
<mask id="mask1_80_7997" style="mask-type:alpha" maskUnits="userSpaceOnUse" x="13" y="0" width="9" height="8">
<path d="M20 1.5L21 2.5L20.5 5V6L20 7H17L15.5 6L14.5 5L14 2.5V1.5L15 1H16.5H18.5L20 1.5Z" fill="#3F3F3F" stroke="#3F3F3F"/>
</mask>
<g mask="url(#mask1_80_7997)">
<rect x="15.3604" y="-1" width="10" height="2" transform="rotate(42.8614 15.3604 -1)" fill="#C4C4C4" fill-opacity="0.3"/>
</g>
<path d="M22.8316 1.87365H21.7072C21.2334 0.720284 19.7482 0.136505 17.2732 0.136505C15.8128 0.136505 13.8985 0.136676 13.3297 1.56458C12.5998 1.33216 11.9523 1.28064 11.0262 1.56783C10.4591 0.136865 8.54268 0.13669 7.08144 0.13669C4.60647 0.13669 3.12104 0.720469 2.64745 1.87383L1.52336 1.87366C1.05937 1.87366 1 1.8764 1 2.28339C1 2.69517 1.07137 2.69312 1.52336 2.69312H2.48574C2.48505 2.72034 2.48111 2.74635 2.48111 2.77408C2.48111 6.98194 3.9155 7.86528 5.11868 7.86528C9.92202 7.86528 11.1913 4.37435 11.1913 2.52872C11.1913 2.49021 11.1891 2.45393 11.1875 2.41662C12.0079 2.1438 12.5014 2.18916 13.1665 2.41491C13.1653 2.45273 13.1628 2.4897 13.1628 2.52872C13.1628 4.37439 14.432 7.86528 19.2354 7.86528C20.4386 7.86528 21.873 6.98199 21.873 2.77408C21.873 2.74636 21.869 2.72034 21.8684 2.69313H22.8309C23.2944 2.69313 23.354 2.69022 23.354 2.28339C23.3546 1.87161 23.2831 1.87366 22.8314 1.87366L22.8316 1.87365ZM5.11888 7.00647C3.57119 7.00647 3.33994 4.35471 3.33994 2.77394C3.33994 2.33409 3.33994 0.994998 7.08157 0.994998C9.37428 0.994998 10.3325 1.20791 10.3325 2.52849C10.3327 4.07754 9.24301 7.00629 5.11866 7.00629L5.11888 7.00647ZM19.2362 7.00647C15.112 7.00647 14.0223 4.07741 14.0223 2.52867C14.0223 1.20807 14.9808 0.995174 17.2733 0.995174C21.0149 0.995174 21.0149 2.33409 21.0149 2.77411C21.0151 4.35449 20.7839 7.00647 19.2362 7.00647H19.2362Z" fill="#375E9B" stroke="#4861BA" stroke-width="0.1"/>
</svg>
