<svg width="16" height="17" viewBox="0 0 16 17" fill="none" xmlns="http://www.w3.org/2000/svg">
<path d="M16 15C16 16.1046 15.1046 17 14 17L5 17C3.89543 17 3 16.1046 3 15L3 3L16 3L16 15Z" fill="#D9D9D9"/>
<path d="M12.5 16.5L2 16.5C1.17157 16.5 0.5 15.8284 0.5 15L0.500001 0.499999L12.5 0.5L12.5 16.5Z" fill="white" stroke="#D9D9D9"/>
<rect x="2" y="5" width="3" height="5" fill="#D9D9D9"/>
<rect x="6" y="5" width="5" height="1" fill="#D9D9D9"/>
<rect x="6" y="7" width="5" height="1" fill="#D9D9D9"/>
<rect x="6" y="9" width="5" height="1" fill="#D9D9D9"/>
<rect x="2" y="11" width="9" height="1" fill="#D9D9D9"/>
<rect x="2" y="13" width="9" height="1" fill="#D9D9D9"/>
<rect x="2" y="2" width="9" height="2" fill="#5D5F5E"/>
</svg>
