<svg width="20" height="13" viewBox="0 0 20 13" fill="none" xmlns="http://www.w3.org/2000/svg">
<rect width="20" height="13" fill="#F0E6CC"/>
<rect width="17" height="13" fill="url(#paint0_radial_259_12504)"/>
<line x1="19.125" y1="5.46392e-09" x2="19.125" y2="13" stroke="black" stroke-opacity="0.2" stroke-width="0.25"/>
<line x1="18.125" y1="5.46392e-09" x2="18.125" y2="13" stroke="black" stroke-opacity="0.2" stroke-width="0.25"/>
<rect x="8" y="1" width="2" height="1" fill="white"/>
<rect x="6" y="11" width="6" height="1" fill="white"/>
<path d="M3.56128 6.214V4.541H3.86228C4.73028 4.541 5.15728 4.681 5.15728 5.409C5.15728 6.102 4.72328 6.214 3.86228 6.214H3.56128ZM3.56128 6.753H3.86228C3.91828 6.753 3.97428 6.753 4.03028 6.753C4.54828 6.753 4.95428 6.739 5.29028 6.501C5.60528 6.277 5.80128 5.864 5.80128 5.374C5.80128 4.884 5.60528 4.471 5.29028 4.247C4.95428 4.009 4.54128 3.995 4.03028 3.995C3.97428 3.995 3.91828 3.995 3.86228 3.995H2.98028V9H3.56128V6.753ZM6.37397 3.995V7.11C6.37397 8.461 7.01097 9.133 8.31297 9.133C9.61497 9.133 10.252 8.461 10.252 7.11V3.995H9.64997V7.11C9.64997 8.111 9.24397 8.58 8.31297 8.58C7.38197 8.58 6.97597 8.111 6.97597 7.11V3.995H6.37397ZM11.8741 4.513H12.3361C13.1271 4.513 13.4911 4.66 13.4911 5.381C13.4911 5.99 13.1411 6.186 12.3361 6.186H11.8741V4.513ZM11.8741 6.655H12.3361C12.3991 6.655 12.4551 6.655 12.5111 6.655C12.8191 6.655 13.0641 6.662 13.2741 6.788C13.5471 6.942 13.6871 7.215 13.6871 7.579C13.6871 7.894 13.5611 8.167 13.3581 8.314C13.1411 8.468 12.8121 8.482 12.3361 8.482H11.8741V6.655ZM11.2931 9H12.3361C13.0501 9 13.5401 8.979 13.9041 8.622C14.1561 8.37 14.3171 7.992 14.3171 7.579C14.3171 6.907 13.9461 6.438 13.3581 6.347C13.8341 6.207 14.1001 5.843 14.1001 5.311C14.1001 4.863 13.9111 4.478 13.5961 4.247C13.2811 4.016 12.8821 3.995 12.3361 3.995H11.2931V9Z" fill="white"/>
<defs>
<radialGradient id="paint0_radial_259_12504" cx="0" cy="0" r="1" gradientUnits="userSpaceOnUse" gradientTransform="translate(0.944444 13) scale(15.1111 22.1538)">
<stop stop-color="#106083"/>
<stop offset="1" stop-color="#8BD2F1"/>
</radialGradient>
</defs>
</svg>
