<svg width="17" height="20" viewBox="0 0 17 20" fill="none" xmlns="http://www.w3.org/2000/svg">
<rect x="1" y="5" width="6" height="10" rx="1" stroke="url(#paint0_radial_740_14169)" stroke-width="2"/>
<path d="M4 5C4 3.89543 4.89543 3 6 3H14C15.1046 3 16 3.89543 16 5V18C16 19.1046 15.1046 20 14 20H6C4.89543 20 4 19.1046 4 18V5Z" fill="url(#paint1_linear_740_14169)"/>
<path d="M4 3H16V17H4V3Z" fill="url(#paint2_linear_740_14169)"/>
<line x1="4.25" y1="17" x2="4.25" y2="4" stroke="#D1E9E9" stroke-width="0.5"/>
<line x1="15.75" y1="17" x2="15.75" y2="4" stroke="#D1E9E9" stroke-width="0.5"/>
<circle cx="6.5" cy="3.5" r="2.5" fill="#FFEDBF"/>
<circle cx="9.5" cy="2.5" r="2.5" fill="#FFEDBF"/>
<circle cx="15.5" cy="3.5" r="1.5" fill="#FFEDBF"/>
<circle cx="4.5" cy="2.5" r="1.5" fill="#FFEDBF"/>
<ellipse cx="13" cy="2.5" rx="3" ry="2.5" fill="#FFEDBF"/>
<path d="M7 8.5L7.5 3L8 8.5H7Z" fill="#FFEDBF"/>
<circle cx="7.5" cy="8.5" r="0.5" fill="#FFEDBF"/>
<circle cx="12.25" cy="6.25" r="0.25" fill="#FFEDBF"/>
<circle cx="11.25" cy="9.25" r="0.25" fill="#FFEDBF"/>
<circle cx="10.25" cy="12.25" r="0.25" fill="#FFEDBF"/>
<circle cx="7.25" cy="15.25" r="0.25" fill="#FFEDBF"/>
<circle cx="5.25" cy="12.25" r="0.25" fill="#FFEDBF"/>
<circle cx="14.25" cy="9.25" r="0.25" fill="#FFEDBF"/>
<circle cx="9.25" cy="6.25" r="0.25" fill="#FFEDBF"/>
<circle cx="5.25" cy="8.25" r="0.25" fill="#FFEDBF"/>
<circle cx="13.25" cy="11.25" r="0.25" fill="#FFEDBF"/>
<circle cx="14.25" cy="13.25" r="0.25" fill="#FFEDBF"/>
<defs>
<radialGradient id="paint0_radial_740_14169" cx="0" cy="0" r="1" gradientUnits="userSpaceOnUse" gradientTransform="translate(1.5 12.5) rotate(-93.0128) scale(9.51315 6.3421)">
<stop stop-color="#DAE3E3"/>
<stop offset="1" stop-color="#C3F1F1"/>
</radialGradient>
<linearGradient id="paint1_linear_740_14169" x1="10" y1="3" x2="10" y2="20" gradientUnits="userSpaceOnUse">
<stop offset="0.785199" stop-color="#C7F0F0"/>
<stop offset="1" stop-color="#D9D9D9"/>
</linearGradient>
<linearGradient id="paint2_linear_740_14169" x1="10" y1="3" x2="10" y2="17" gradientUnits="userSpaceOnUse">
<stop stop-color="#CE7D32"/>
<stop offset="0.598958" stop-color="#EDC253"/>
<stop offset="1" stop-color="#CE7D32"/>
</linearGradient>
</defs>
</svg>
