<svg width="18" height="19" viewBox="0 0 18 19" fill="none" xmlns="http://www.w3.org/2000/svg">
<path d="M1 3H7L8 17L6.68328 17.6584C4.99412 18.5029 3.00588 18.5029 1.31672 17.6584L0 17L1 3Z" fill="#8BA74F"/>
<mask id="mask0_154_9132" style="mask-type:alpha" maskUnits="userSpaceOnUse" x="0" y="3" width="8" height="16">
<path d="M1 3H7L8 17L6.68328 17.6584C4.99412 18.5029 3.00588 18.5029 1.31672 17.6584L0 17L1 3Z" fill="#96B456"/>
</mask>
<g mask="url(#mask0_154_9132)">
<rect x="-5" y="15" width="20" height="5" fill="#578999"/>
</g>
<path d="M11 3H17L18 17L16.6833 17.6584C14.9941 18.5029 13.0059 18.5029 11.3167 17.6584L10 17L11 3Z" fill="#8BA74F"/>
<mask id="mask1_154_9132" style="mask-type:alpha" maskUnits="userSpaceOnUse" x="10" y="3" width="8" height="16">
<path d="M11 3H17L18 17L16.6833 17.6584C14.9941 18.5029 13.0059 18.5029 11.3167 17.6584L10 17L11 3Z" fill="#96B456"/>
</mask>
<g mask="url(#mask1_154_9132)">
<rect x="5" y="15" width="20" height="5" fill="#578999"/>
</g>
<rect width="8" height="3" fill="#666060"/>
<rect x="10" width="8" height="3" fill="#666060"/>
<rect y="13" width="8" height="3" fill="#666060"/>
<rect x="10" y="13" width="8" height="3" fill="#666060"/>
<line y1="16.5" x2="8" y2="16.5" stroke="black"/>
<line x1="10" y1="16.5" x2="18" y2="16.5" stroke="black"/>
<rect x="6" y="5" width="6" height="5" fill="#96B456"/>
<rect x="7" y="6" width="4" height="3" fill="#666060"/>
<line x1="1.5" y1="2.18557e-08" x2="1.5" y2="3" stroke="black" stroke-opacity="0.3"/>
<line x1="3.5" y1="2.18557e-08" x2="3.5" y2="3" stroke="black" stroke-opacity="0.3"/>
<line x1="5.5" y1="2.18557e-08" x2="5.5" y2="3" stroke="black" stroke-opacity="0.3"/>
<line x1="11.5" y1="2.18557e-08" x2="11.5" y2="3" stroke="black" stroke-opacity="0.3"/>
<line x1="13.5" y1="2.18557e-08" x2="13.5" y2="3" stroke="black" stroke-opacity="0.3"/>
<line x1="15.5" y1="2.18557e-08" x2="15.5" y2="3" stroke="black" stroke-opacity="0.3"/>
<line x1="8.25" y1="6" x2="8.25" y2="9" stroke="black" stroke-opacity="0.6" stroke-width="0.5"/>
<line x1="7.25" y1="6" x2="7.25" y2="9" stroke="black" stroke-opacity="0.6" stroke-width="0.5"/>
<line x1="9.25" y1="6" x2="9.25" y2="9" stroke="black" stroke-opacity="0.6" stroke-width="0.5"/>
<line x1="10.25" y1="6" x2="10.25" y2="9" stroke="black" stroke-opacity="0.6" stroke-width="0.5"/>
<rect y="7" width="6" height="1" fill="#96B456"/>
<rect x="12" y="7" width="6" height="1" fill="#96B456"/>
</svg>
