<svg width="16" height="17" viewBox="0 0 16 17" fill="none" xmlns="http://www.w3.org/2000/svg">
<path d="M0 0H16V10.6667L8.6576 11.8904C8.2222 11.963 7.7778 11.963 7.3424 11.8904L0 10.6667V0Z" fill="#564F4F"/>
<circle cx="8" cy="11" r="6" fill="url(#paint0_linear_154_9057)"/>
<circle cx="8" cy="11" r="2" fill="#D4CEE2"/>
<circle cx="8" cy="11" r="1" fill="white"/>
<path d="M0 5.25L8 7L16 5.25V0H0V5.25Z" fill="#C4C4C4"/>
<path d="M6.194 4H6.754C7.2 4 7.504 3.678 7.504 3.3C7.504 2.922 7.2 2.6 6.754 2.6H6.194V4ZM6.756 2.922C6.976 2.922 7.136 3.082 7.136 3.3C7.136 3.516 6.976 3.678 6.756 3.678H6.55V2.922H6.756ZM7.73213 4H8.08813V2.6H7.73213V4ZM8.29427 3.804C8.42227 3.95 8.58427 4.04 8.84227 4.04C9.10627 4.04 9.32627 3.88 9.33027 3.6C9.33027 3.11 8.71427 3.18 8.71427 2.972C8.71427 2.914 8.76427 2.87 8.83627 2.87C8.93027 2.87 9.01827 2.94 9.10027 3.036L9.35827 2.8C9.22827 2.656 9.05627 2.56 8.83427 2.56C8.55027 2.56 8.35427 2.754 8.35427 2.988C8.35427 3.468 8.97027 3.398 8.97027 3.612C8.97027 3.692 8.92027 3.728 8.83827 3.728C8.73627 3.728 8.62627 3.664 8.55227 3.566L8.29427 3.804ZM10.1923 3.706C9.96828 3.706 9.80828 3.536 9.80828 3.3C9.80828 3.066 9.96828 2.894 10.1923 2.894C10.3323 2.894 10.4383 2.962 10.5043 3.058L10.7863 2.842C10.6563 2.672 10.4483 2.56 10.1923 2.56C9.74628 2.56 9.44228 2.9 9.44228 3.3C9.44228 3.7 9.74628 4.04 10.1923 4.04C10.4483 4.04 10.6563 3.928 10.7863 3.756L10.5043 3.542C10.4383 3.638 10.3303 3.706 10.1923 3.706Z" fill="white"/>
<defs>
<linearGradient id="paint0_linear_154_9057" x1="12" y1="6.5" x2="3" y2="14" gradientUnits="userSpaceOnUse">
<stop stop-color="#FBF3AE"/>
<stop offset="1" stop-color="#AEFBF6"/>
</linearGradient>
</defs>
</svg>
