<svg width="19" height="19" viewBox="0 0 19 19" fill="none" xmlns="http://www.w3.org/2000/svg">
<path d="M4.54822 17.8367L1.06841 14.3569L14.4041 1.02116L17.8839 4.50096L4.54822 17.8367Z" fill="#9E7B5B"/>
<path d="M13.3137 9.07104L11.1924 6.94972L15.7886 2.35353L17.9099 4.47485L13.3137 9.07104Z" fill="#9E7B5B"/>
<ellipse cx="2.72835" cy="16.1633" rx="2.46999" ry="0.5" transform="rotate(-135 2.72835 16.1633)" fill="#484040"/>
<ellipse cx="16.1634" cy="2.72827" rx="2.46999" ry="0.5" transform="rotate(-135 16.1634 2.72827)" fill="#9E7B5B"/>
<ellipse cx="3.44784" cy="15.4686" rx="2.45253" ry="0.5" transform="rotate(-135 3.44784 15.4686)" fill="#484040"/>
<path d="M4.47485 17.9099L1.03125 14.4663L1.73836 13.7592L5.18196 17.2028L4.47485 17.9099Z" fill="#484040"/>
<mask id="mask0_706_14479" style="mask-type:alpha" maskUnits="userSpaceOnUse" x="0" y="1" width="18" height="18">
<path d="M4.12134 18.2634L0.677733 14.8198L14.1128 1.38479L17.5564 4.8284L4.12134 18.2634Z" fill="#9E7B5B"/>
</mask>
<g mask="url(#mask0_706_14479)">
<line y1="-0.25" x2="7.29386" y2="-0.25" transform="matrix(0.363587 0.93156 -0.978122 0.208031 4 9.61694)" stroke="#73563C" stroke-width="0.5"/>
<line y1="-0.25" x2="7.29386" y2="-0.25" transform="matrix(0.363587 0.93156 -0.978122 0.208031 8.6178 5.10278)" stroke="#73563C" stroke-width="0.5"/>
<line y1="-0.25" x2="7.29386" y2="-0.25" transform="matrix(0.363587 0.93156 -0.978122 0.208031 13.2357 0.588379)" stroke="#73563C" stroke-width="0.5"/>
</g>
</svg>
