<svg width="15" height="16" viewBox="0 0 15 16" fill="none" xmlns="http://www.w3.org/2000/svg">
<path d="M2.19571 13.3468C3.41776 14.5649 5.02143 15.3254 6.73764 15.5005C8.45373 15.6755 10.1778 15.2545 11.6205 14.308C12.0248 14.0406 12.2874 13.6056 12.336 13.1233C12.3844 12.6409 12.2137 12.1622 11.8709 11.8197L11.583 11.5349L11.9629 11.1548V11.155C12.2093 10.908 12.321 10.557 12.2624 10.2129C12.2038 9.86894 11.9825 9.57468 11.6682 9.42324L9.52366 8.38867C9.35767 8.30854 9.15901 8.34432 9.03138 8.47736L8.36031 9.1744H8.33988C7.43958 8.81367 6.72739 8.09798 6.37071 7.19559L7.06733 6.49855H7.06745C7.19661 6.37158 7.23154 6.17673 7.15431 6.01277L6.11525 3.86349C5.96364 3.5494 5.66933 3.32813 5.32558 3.27C4.98172 3.21174 4.63109 3.32362 4.38453 3.57031L3.97913 3.97428C3.52074 4.4338 3.20385 5.0154 3.06648 5.65004C2.92901 6.28469 2.97678 6.94535 3.20419 7.55358C3.61376 8.64665 4.25277 9.63912 5.07806 10.4641C5.90349 11.2891 6.8961 11.9274 7.98885 12.336C8.95771 12.6983 10.039 12.5952 10.9221 12.0565C10.9394 12.0856 10.9599 12.1125 10.9834 12.1367L11.2679 12.4213C11.4297 12.583 11.5104 12.8087 11.4876 13.0364C11.4648 13.264 11.341 13.4693 11.1504 13.5957C9.87235 14.4325 8.34567 14.8045 6.82623 14.6494C5.30667 14.4942 3.88666 13.8213 2.80383 12.7435C1.95713 11.8974 1.35451 10.8383 1.05958 9.67799C0.764672 8.51762 0.788553 7.29913 1.12849 6.1511C1.46856 5.0031 2.11207 3.9684 2.99119 3.15617C4.21549 2.03696 5.81241 1.4136 7.47077 1.40767C9.12912 1.4016 10.7303 2.0134 11.9628 3.12372C12.9608 4.02514 13.6603 5.20963 13.968 6.51913C14.2756 7.82856 14.177 9.20078 13.685 10.4526C13.5961 10.672 13.7017 10.9219 13.9209 11.0108C14.14 11.0998 14.3898 10.9941 14.4788 10.7748C15.0369 9.36112 15.1499 7.81055 14.8029 6.33061C14.4559 4.8508 13.6652 3.51245 12.5369 2.4945C11.1464 1.24152 9.33977 0.55112 7.46849 0.557663C5.59721 0.564321 3.79558 1.26755 2.41372 2.53026C1.42135 3.44607 0.694529 4.61297 0.310175 5.90801C-0.0740882 7.20284 -0.10189 8.57756 0.229974 9.88687C0.561827 11.1961 1.24099 12.3915 2.1957 13.3465L2.19571 13.3468ZM8.2868 11.5384C7.30751 11.172 6.41813 10.5995 5.67887 9.85967C4.93945 9.11993 4.36736 8.23005 4.00117 7.25018C3.83197 6.79589 3.79668 6.30274 3.89934 5.82898C4.002 5.35522 4.23834 4.92103 4.58029 4.57768L4.9857 4.17203C5.02669 4.12935 5.08324 4.10534 5.14242 4.10557H5.18163C5.25589 4.11532 5.32005 4.16217 5.35189 4.22993L6.25633 6.10483L5.74528 6.61618H5.7454C5.63716 6.72615 5.56337 6.86537 5.53307 7.01684C5.50277 7.16818 5.51739 7.32512 5.57501 7.46838C6.0119 8.60235 6.8996 9.50413 8.02623 9.9585L8.07566 9.97729V9.97717C8.22442 10.0366 8.38768 10.0503 8.54427 10.0163C8.70087 9.98228 8.84369 9.90215 8.95454 9.78635L9.43313 9.28867L11.3069 10.1903V10.1902C11.3724 10.222 11.4185 10.2834 11.4306 10.3551C11.4428 10.4268 11.4195 10.5 11.3682 10.5516L10.9628 10.9573C10.6194 11.3007 10.1847 11.5382 9.7101 11.6411C9.23565 11.7442 8.74161 11.7085 8.28678 11.5384L8.2868 11.5384Z" fill="#000091"/>
<mask id="mask0_150_5120" style="mask-type:alpha" maskUnits="userSpaceOnUse" x="0" y="0" width="15" height="16">
<path d="M5.14242 3.75487C4.992 3.75573 4.8464 3.81549 4.73818 3.92377L4.73773 3.92422L4.9857 4.17203M5.14242 3.75487L3.67073 7.37367C3.67069 7.37354 3.67064 7.37342 3.6706 7.3733C3.47841 6.85629 3.43835 6.2951 3.55515 5.75589L3.55517 5.75582C3.55526 5.75537 3.55536 5.75492 3.55546 5.75447C3.67249 5.215 3.94173 4.72054 4.33106 4.32946C4.33121 4.32932 4.33135 4.32917 4.33149 4.32903C4.33187 4.32865 4.33225 4.32827 4.33263 4.32789C4.33279 4.32773 4.33295 4.32757 4.33311 4.3274L4.7328 3.92913L4.9857 4.17203M5.14242 3.75487V4.10557C5.08324 4.10534 5.02669 4.12935 4.9857 4.17203M5.14242 3.75487L4.58029 4.57768L4.9857 4.17203M9.78423 11.9824C10.0906 11.915 10.3874 11.797 10.6617 11.6297L10.9684 11.4426L11.2082 11.2026L11.2083 11.2026L11.2294 11.1815L9.78423 11.9824ZM9.78423 11.9824L9.7101 11.6411M9.78423 11.9824L9.78414 11.9824L9.7101 11.6411M7.46951 1.05766L7.47077 1.40767L7.46951 1.05766ZM7.46951 1.05766C7.46976 1.05766 7.47002 1.05766 7.47027 1.05766C9.21549 1.05156 10.9005 1.69478 12.1983 2.86236C12.1984 2.86247 12.1985 2.86257 12.1986 2.86267L7.46951 1.05766ZM9.7101 11.6411C9.40684 11.707 9.09558 11.7162 8.79167 11.6699M9.7101 11.6411C10.1847 11.5382 10.6194 11.3007 10.9628 10.9573L11.2177 10.7023L8.79167 11.6699M8.79167 11.6699L8.71455 11.7973L8.71453 11.7973L8.28678 11.5384L8.79167 11.6699ZM5.80302 4.01432C5.803 4.01429 5.80299 4.01426 5.80298 4.01423L5.80302 4.01432ZM7.46973 0.907668L7.46849 0.557663L7.46973 0.907668ZM7.81949 11.3448L7.63625 11.6476C6.81801 11.2698 6.0713 10.7499 5.43155 10.1105L7.81949 11.3448Z" fill="#6A6AF4" stroke="#000091"/>
</mask>
<g mask="url(#mask0_150_5120)">
<path d="M5.06212 2.02416L13.0325 9.95379L8.24962 14.0242L1.49962 6.14916L5.06212 2.02416Z" fill="#6A6AF4"/>
</g>
</svg>
