<svg width="30" height="26" viewBox="0 0 30 26" fill="none" xmlns="http://www.w3.org/2000/svg">
<rect x="19.0391" y="7.10474" width="3" height="16" transform="rotate(57.9531 19.0391 7.10474)" fill="#EFAD4A"/>
<path d="M17.9469 3.47214C17.9868 3.2985 18.2168 3.25982 18.3113 3.41085L21.0567 7.79641L23.8021 12.182C23.8967 12.333 23.7614 12.523 23.5878 12.483L16.2619 10.798L17.9469 3.47214Z" fill="#EFAD4A"/>
<path d="M7.24036 19.552C7.20254 19.7261 6.97308 19.7676 6.8767 19.6177L5.52638 17.5181L4.17607 15.4185C4.07969 15.2686 4.21261 15.077 4.38673 15.1148L7.83666 15.8641C7.9446 15.8876 8.0131 15.9941 7.98966 16.102L7.24036 19.552Z" fill="#EFAD4A"/>
<rect x="16.1561" y="11.6891" width="3.57932" height="8.80944" rx="1.78966" transform="rotate(57.9531 16.1561 11.6891)" stroke="#EFAD4A"/>
<line y1="-0.5" x2="4.88787" y2="-0.5" transform="matrix(-0.529655 -0.848213 0.847013 -0.531572 14 13.2698)" stroke="#EFAD4A"/>
<line y1="-0.5" x2="4.88787" y2="-0.5" transform="matrix(-0.529655 -0.848213 0.847013 -0.531572 12.6215 14.1349)" stroke="#EFAD4A"/>
<line y1="-0.5" x2="4.88787" y2="-0.5" transform="matrix(-0.529655 -0.848213 0.847013 -0.531572 11.243 15)" stroke="#EFAD4A"/>
</svg>
