<svg width="14" height="18" viewBox="0 0 14 18" fill="none" xmlns="http://www.w3.org/2000/svg">
<path d="M0.5 14.5V0.5H8.29289L10.5 2.70711V14.5H0.5Z" fill="white" stroke="white" stroke-linecap="round"/>
<path d="M9 2V1.20711L9.79289 2H9Z" stroke="#F0EEEE" stroke-linecap="round"/>
<circle cx="9.25" cy="13.25" r="4.25" fill="#27A658"/>
<path d="M8.73475 11.5784C8.72854 11.2799 8.99724 11.0031 9.29641 11C9.59955 10.9967 9.87629 11.2756 9.86995 11.5783V12.7117H11.0052C11.305 12.7073 11.5809 12.9789 11.5809 13.2784C11.5809 13.5779 11.3051 13.8494 11.0052 13.8451H9.86995V14.9785C9.87418 15.2779 9.60218 15.5532 9.30235 15.5532C9.00238 15.5532 8.73053 15.2779 8.73475 14.9785V13.8451H7.59955C7.30182 13.8616 7.01625 13.6053 7.00067 13.308C6.9851 13.0108 7.24258 12.7263 7.54043 12.7118H8.73475V11.5784Z" fill="white"/>
</svg>
