<svg width="18" height="17" viewBox="0 0 18 17" fill="none" xmlns="http://www.w3.org/2000/svg">
<path d="M0.441548 15.75L3.14155 11.25H14.8585L17.5585 15.75H0.441548Z" fill="#A9F98D" stroke="#569A4A" stroke-width="0.5"/>
<line x1="7.16117" y1="11.272" x2="5.30299" y2="15.9139" stroke="#569A4A" stroke-width="0.5"/>
<line x1="10.3702" y1="11.0677" x2="12.0989" y2="15.7594" stroke="#569A4A" stroke-width="0.5"/>
<path fill-rule="evenodd" clip-rule="evenodd" d="M9 13C9 13 13 6.20911 13 4C13 1.79089 11.2091 0 9 0C6.79089 0 5 1.79089 5 4C5 6.20911 9 13 9 13ZM9 6C10.1046 6 11 5.10461 11 4C11 2.89539 10.1046 2 9 2C7.89539 2 7 2.89539 7 4C7 5.10461 7.89539 6 9 6Z" fill="#F05B5B"/>
</svg>
