<svg width="20" height="7" viewBox="0 0 20 7" fill="none" xmlns="http://www.w3.org/2000/svg">
<path fill-rule="evenodd" clip-rule="evenodd" d="M0 1.09998C0 1.0448 0.0447998 1 0.0999756 1H19.9C19.9221 1 19.9424 1.00714 19.959 1.01923C19.9838 1.03741 20 1.06683 20 1.09998V5.90002C20 5.92383 19.9917 5.94568 19.9778 5.96283C19.9595 5.98547 19.9314 6 19.9 6H0.0999756C0.0447998 6 0 5.9552 0 5.90002V1.09998ZM3 3.5C3 3.77612 2.77612 4 2.5 4C2.22388 4 2 3.77612 2 3.5C2 3.22388 2.22388 3 2.5 3C2.77612 3 3 3.22388 3 3.5ZM9.5 4C9.77612 4 10 3.77612 10 3.5C10 3.22388 9.77612 3 9.5 3C9.22388 3 9 3.22388 9 3.5C9 3.77612 9.22388 4 9.5 4Z" fill="#6C543E"/>
<mask id="path-2-inside-1_127_7699" fill="white">
<rect x="6" width="10" height="7" rx="0.1"/>
</mask>
<rect x="6" width="10" height="7" rx="0.1" stroke="#D6A323" stroke-width="2" mask="url(#path-2-inside-1_127_7699)"/>
<rect x="5" y="3" width="3" height="1" rx="0.5" fill="#D6A323"/>
</svg>
