<svg width="20" height="20" viewBox="0 0 20 20" fill="none" xmlns="http://www.w3.org/2000/svg">
<path d="M8.5 10.5C8.66667 11.8333 9.5 14.3 11.5 13.5C13.5 12.7 14.3333 11.8333 14.5 11.5" stroke="#E1DBDB" stroke-width="0.25"/>
<path d="M8.5 3.50004C8.66667 1.50004 10.6 -1.59996 17 2.00004C25 6.50004 10 28.5 4 14C-2 -0.5 8 15.5 12 9C15.2 3.8 16.6667 6.83333 17 9" stroke="#E1DBDB" stroke-width="0.25"/>
<rect y="5" width="10" height="15" fill="#9662D7"/>
<circle cx="5" cy="14" r="4" fill="white"/>
<circle cx="5" cy="14" r="1.875" fill="white" stroke="#706969" stroke-width="0.25"/>
<rect x="6" y="6" width="3" height="1" fill="#7E4EBC"/>
<rect x="8" y="3" width="1" height="2" fill="#E1DBDB"/>
<path fill-rule="evenodd" clip-rule="evenodd" d="M16.9571 7.43462L16 7.72437L17.0141 11.0742L17.159 11.5528L17.2134 11.5363C17.5136 12.054 17.9891 12.3463 18.4058 12.2202C18.9344 12.0601 19.6469 11.1427 19.4069 10.3499C19.1668 9.55705 18.0651 9.18883 17.5366 9.34884L16.9571 7.43462Z" fill="#E1DBDB"/>
<path fill-rule="evenodd" clip-rule="evenodd" d="M11.7631 12.8348L12.2717 13.6958L15.2851 11.9154L15.7156 11.6611L15.6866 11.6121C16.1184 11.1976 16.2893 10.6663 16.0679 10.2915C15.7869 9.81598 14.7267 9.34165 14.0134 9.76305C13.3002 10.1844 13.204 11.342 13.485 11.8175L11.7631 12.8348Z" fill="#E1DBDB"/>
</svg>
