<svg width="20" height="19" viewBox="0 0 20 19" fill="none" xmlns="http://www.w3.org/2000/svg">
<path d="M15.5469 18.5561C15.7529 18.6385 15.959 18.6385 16.1236 18.6385C16.6179 18.6385 17.0711 18.4325 17.4421 18.103C17.9364 17.6088 18.1424 16.8672 17.8953 16.1671L16.9478 13.2838C18.5545 9.9061 17.8542 5.91082 15.2175 3.23347C11.757 -0.226422 6.11278 -0.226422 2.61097 3.23347C-0.891 6.69335 -0.849582 12.3365 2.61097 15.8376C5.24763 18.4738 9.24382 19.1739 12.6632 17.5676L15.5469 18.5561Z" fill="#C2F1FB"/>
<path d="M10 13.6387C10 14.1908 9.55225 14.6385 9.0001 14.6385C8.44772 14.6385 8 14.1908 8 13.6387C8 13.0863 8.44775 12.6385 9.0001 12.6385C9.55222 12.6385 10 13.0863 10 13.6387Z" fill="#000091"/>
<path d="M9.02893 5.63867C7.08274 5.63867 6.20891 6.92712 6.01054 8.03113C5.97092 8.17826 6.05015 8.32564 6.12966 8.39933C6.24879 8.50974 6.36792 8.58343 6.52694 8.58343H7.20209C7.44035 8.58343 7.6786 8.39933 7.71849 8.17851C7.798 7.73688 8.07588 7.22154 8.98956 7.22154C9.70432 7.22154 9.98248 7.55277 10.1016 7.77358C10.2604 8.06808 10.2208 8.3993 10.062 8.65706C9.86337 8.91485 9.66473 9.06197 9.42648 9.20909C8.83085 9.57729 8.35406 9.98221 8.27484 11.1232C8.27484 11.2704 8.31446 11.381 8.43359 11.4914C8.55272 11.6018 8.67185 11.6385 8.83087 11.6385H9.50601C9.78417 11.6385 10.0224 11.4545 10.0224 11.1969C10.062 10.7553 10.1415 10.7183 10.4593 10.4975C10.7375 10.3134 11.1345 10.0559 11.4919 9.57725C12.0875 8.84114 12.167 7.84723 11.6905 7.00068C11.2134 6.19088 10.2205 5.63855 9.029 5.63855L9.02893 5.63867Z" fill="#000091"/>
</svg>
