<svg width="21" height="16" viewBox="0 0 21 16" fill="none" xmlns="http://www.w3.org/2000/svg">
<line x1="14.25" y1="3.25" x2="14.25" y2="12.75" stroke="#BFD3D6" stroke-width="0.5" stroke-linecap="round"/>
<line x1="4.25" y1="3.25" x2="4.25" y2="12.75" stroke="#BFD3D6" stroke-width="0.5" stroke-linecap="round"/>
<line x1="9.25" y1="2.75" x2="9.25" y2="12.25" stroke="#BFD3D6" stroke-width="0.5" stroke-linecap="round"/>
<ellipse cx="9" cy="13.5" rx="8" ry="1.5" fill="#F28989"/>
<path d="M16.875 13.5C16.875 13.555 16.8457 13.6252 16.753 13.7101C16.6605 13.7949 16.517 13.8825 16.3207 13.9696C15.9288 14.1433 15.3539 14.3028 14.6338 14.4378C13.1958 14.7074 11.2038 14.875 9 14.875C6.79616 14.875 4.80424 14.7074 3.36618 14.4378C2.64613 14.3028 2.07124 14.1433 1.67934 13.9696C1.48296 13.8825 1.33947 13.7949 1.24698 13.7101C1.15425 13.6252 1.125 13.555 1.125 13.5C1.125 13.445 1.15425 13.3748 1.24698 13.2899C1.33947 13.2051 1.48296 13.1175 1.67934 13.0304C2.07124 12.8567 2.64613 12.6972 3.36618 12.5622C4.80424 12.2926 6.79616 12.125 9 12.125C11.2038 12.125 13.1958 12.2926 14.6338 12.5622C15.3539 12.6972 15.9288 12.8567 16.3207 13.0304C16.517 13.1175 16.6605 13.2051 16.753 13.2899C16.8457 13.3748 16.875 13.445 16.875 13.5Z" stroke="#BFD3D6" stroke-width="0.25"/>
<path d="M16.875 8.5C16.875 8.555 16.8457 8.62518 16.753 8.71014C16.6605 8.79489 16.517 8.88254 16.3207 8.96959C15.9288 9.14332 15.3539 9.30279 14.6338 9.4378C13.1958 9.70744 11.2038 9.875 9 9.875C6.79616 9.875 4.80424 9.70744 3.36618 9.4378C2.64613 9.30279 2.07124 9.14332 1.67934 8.96959C1.48296 8.88254 1.33947 8.79489 1.24698 8.71014C1.15425 8.62518 1.125 8.555 1.125 8.5C1.125 8.445 1.15425 8.37482 1.24698 8.28986C1.33947 8.20511 1.48296 8.11746 1.67934 8.03041C2.07124 7.85668 2.64613 7.69721 3.36618 7.5622C4.80424 7.29256 6.79616 7.125 9 7.125C11.2038 7.125 13.1958 7.29256 14.6338 7.5622C15.3539 7.69721 15.9288 7.85668 16.3207 8.03041C16.517 8.11746 16.6605 8.20511 16.753 8.28986C16.8457 8.37482 16.875 8.445 16.875 8.5Z" stroke="#BFD3D6" stroke-width="0.25"/>
<path d="M1 4.5H17V13.5H1V4.5Z" fill="#F28989"/>
<path d="M17 7.5C17 8.32843 13.4183 9 9 9C4.58172 9 1 8.32843 1 7.5" stroke="#BFD3D6" stroke-width="0.25"/>
<path d="M16.875 4.5C16.875 4.555 16.8457 4.62518 16.753 4.71014C16.6605 4.79489 16.517 4.88254 16.3207 4.96959C15.9288 5.14332 15.3539 5.30279 14.6338 5.4378C13.1958 5.70744 11.2038 5.875 9 5.875C6.79616 5.875 4.80424 5.70744 3.36618 5.4378C2.64613 5.30279 2.07124 5.14332 1.67934 4.96959C1.48296 4.88254 1.33947 4.79489 1.24698 4.71014C1.15425 4.62518 1.125 4.555 1.125 4.5C1.125 4.445 1.15425 4.37482 1.24698 4.28986C1.33947 4.20511 1.48296 4.11746 1.67934 4.03041C2.07124 3.85668 2.64613 3.69721 3.36618 3.5622C4.80424 3.29256 6.79616 3.125 9 3.125C11.2038 3.125 13.1958 3.29256 14.6338 3.5622C15.3539 3.69721 15.9288 3.85668 16.3207 4.03041C16.517 4.11746 16.6605 4.20511 16.753 4.28986C16.8457 4.37482 16.875 4.445 16.875 4.5Z" fill="url(#paint0_radial_856_15994)" stroke="#BFD3D6" stroke-width="0.25"/>
<line x1="1.25" y1="4.25" x2="1.25" y2="13.75" stroke="#BFD3D6" stroke-width="0.5" stroke-linecap="round"/>
<line x1="16.75" y1="4.25" x2="16.75" y2="13.75" stroke="#BFD3D6" stroke-width="0.5" stroke-linecap="round"/>
<line x1="14.25" y1="5.25" x2="14.25" y2="14.75" stroke="#BFD3D6" stroke-width="0.5" stroke-linecap="round"/>
<line x1="4.25" y1="5.25" x2="4.25" y2="14.75" stroke="#BFD3D6" stroke-width="0.5" stroke-linecap="round"/>
<line x1="9.25" y1="5.75" x2="9.25" y2="15.25" stroke="#BFD3D6" stroke-width="0.5" stroke-linecap="round"/>
<path d="M17.2755 15.4576L11.634 1.82385C11.5702 1.66961 11.6836 1.5 11.8505 1.5C11.9417 1.5 12.0246 1.55291 12.063 1.63562L18.2764 15.0184C18.4009 15.2866 18.2896 15.6052 18.0251 15.7375C17.7413 15.8793 17.3968 15.7507 17.2755 15.4576Z" fill="#D0A67F"/>
<path d="M19.019 13.8322L10.2093 1.99611C10.1096 1.86221 10.178 1.67 10.3398 1.6291C10.4282 1.60676 10.5215 1.63775 10.579 1.70853L19.8818 13.1612C20.0682 13.3908 20.0383 13.727 19.8142 13.92C19.5739 14.127 19.2084 14.0867 19.019 13.8322Z" fill="#D0A67F"/>
<defs>
<radialGradient id="paint0_radial_856_15994" cx="0" cy="0" r="1" gradientUnits="userSpaceOnUse" gradientTransform="translate(9 4.5) rotate(90) scale(1.5 8)">
<stop offset="0.625" stop-color="#FAE8BB"/>
<stop offset="1" stop-color="#CEC1A0"/>
</radialGradient>
</defs>
</svg>
