<svg width="20" height="14" viewBox="0 0 20 14" fill="none" xmlns="http://www.w3.org/2000/svg">
<rect y="4" width="20" height="10" rx="1" fill="#484747"/>
<path d="M4.8905 0.875965C4.95306 0.375536 5.37846 0 5.88278 0H14.1172C14.6215 0 15.0469 0.375536 15.1095 0.875965L15.8595 6.87597C15.9341 7.47282 15.4687 8 14.8672 8H5.13278C4.53128 8 4.0659 7.47282 4.1405 6.87597L4.8905 0.875965Z" fill="#484747"/>
<path d="M6.58046 1.90519C6.62934 1.39195 7.0604 1 7.57595 1H12.424C12.9396 1 13.3707 1.39196 13.4195 1.90519L13.8957 6.90519C13.9516 7.49228 13.49 8 12.9002 8H7.09976C6.51002 8 6.04835 7.49228 6.10427 6.90519L6.58046 1.90519Z" fill="#8A8A79"/>
<circle cx="10" cy="8" r="5" fill="#668792" stroke="#676B6C" stroke-width="1.5"/>
<circle cx="10" cy="8" r="2" stroke="#6F8E98"/>
<rect y="6" width="2" height="7" fill="#666B6C"/>
<circle cx="18.5" cy="5.5" r="0.5" fill="#D77979"/>
</svg>
