<svg width="9" height="20" viewBox="0 0 9 20" fill="none" xmlns="http://www.w3.org/2000/svg">
<rect x="3" width="3" height="7" fill="#589449"/>
<rect x="3" width="3" height="2" fill="#DD4B4B"/>
<path d="M0 8.5C0 6.01472 2.01472 4 4.5 4C6.98528 4 9 6.01472 9 8.5V20H0V8.5Z" fill="#589449"/>
<rect x="1" y="8" width="8" height="6" fill="#F9EED1"/>
<mask id="mask0_740_14072" style="mask-type:alpha" maskUnits="userSpaceOnUse" x="1" y="8" width="8" height="6">
<rect x="1" y="8" width="8" height="6" fill="#F9EED1"/>
</mask>
<g mask="url(#mask0_740_14072)">
<path d="M1.625 9.125H10.0178V12.875H1.625V9.125Z" stroke="#DD4C4C" stroke-width="0.25"/>
</g>
<rect x="1" y="15" width="8" height="2" fill="#F9EED1"/>
<path d="M3.06 11.049V11.418H3.87V11.049H3.06ZM4.00155 12H5.45355V11.634H4.49655L5.00355 11.145C5.21055 10.944 5.39955 10.722 5.39955 10.434C5.39955 10.074 5.10555 9.84 4.73955 9.84C4.37355 9.84 4.11255 10.02 3.93555 10.308L4.26555 10.509C4.37655 10.323 4.49955 10.2 4.70055 10.2C4.86555 10.2 4.98555 10.302 4.98555 10.476C4.98555 10.647 4.88355 10.761 4.72155 10.926L4.00155 11.634V12ZM5.69923 12H7.15123V11.634H6.19423L6.70123 11.145C6.90823 10.944 7.09723 10.722 7.09723 10.434C7.09723 10.074 6.80323 9.84 6.43723 9.84C6.07123 9.84 5.81023 10.02 5.63323 10.308L5.96323 10.509C6.07423 10.323 6.19723 10.2 6.39823 10.2C6.56323 10.2 6.68323 10.302 6.68323 10.476C6.68323 10.647 6.58123 10.761 6.41923 10.926L5.69923 11.634V12ZM7.79388 9.84C7.48788 9.84 7.27788 10.059 7.27788 10.341C7.27788 10.623 7.48788 10.842 7.79388 10.842C8.09688 10.842 8.30388 10.623 8.30388 10.341C8.30388 10.059 8.09688 9.84 7.79388 9.84ZM7.79388 10.59C7.65888 10.59 7.56288 10.488 7.56288 10.341C7.56288 10.194 7.65888 10.095 7.79388 10.095C7.92588 10.095 8.02188 10.194 8.02188 10.341C8.02188 10.485 7.92588 10.59 7.79388 10.59Z" fill="#911D1D"/>
</svg>
