<svg width="9" height="20" viewBox="0 0 9 20" fill="none" xmlns="http://www.w3.org/2000/svg">
<rect x="3" width="3" height="7" fill="#33542B"/>
<rect x="3" width="3" height="2" fill="#772D29"/>
<path d="M0 8.5C0 6.01472 2.01472 4 4.5 4C6.98528 4 9 6.01472 9 8.5V20H0V8.5Z" fill="#33542B"/>
<rect x="1" y="8" width="8" height="6" fill="#F9EED1"/>
<mask id="mask0_740_14041" style="mask-type:alpha" maskUnits="userSpaceOnUse" x="1" y="8" width="8" height="6">
<rect x="1" y="8" width="8" height="6" fill="#F9EED1"/>
</mask>
<g mask="url(#mask0_740_14041)">
<path d="M1.625 9.125H10.0178V12.875H1.625V9.125Z" stroke="#3B3131" stroke-width="0.25"/>
</g>
<rect x="1" y="15" width="8" height="2" fill="#F9EED1"/>
<path d="M4.05302 11.406V11.082H3.46202V10.488H3.13802V11.082H2.54402V11.406H3.13802V12H3.46202V11.406H4.05302ZM4.30685 12H5.75885V11.634H4.80185L5.30885 11.145C5.51585 10.944 5.70485 10.722 5.70485 10.434C5.70485 10.074 5.41085 9.84 5.04485 9.84C4.67885 9.84 4.41785 10.02 4.24085 10.308L4.57085 10.509C4.68185 10.323 4.80485 10.2 5.00585 10.2C5.17085 10.2 5.29085 10.302 5.29085 10.476C5.29085 10.647 5.18885 10.761 5.02685 10.926L4.30685 11.634V12ZM6.00452 12H7.45652V11.634H6.49952L7.00652 11.145C7.21352 10.944 7.40252 10.722 7.40252 10.434C7.40252 10.074 7.10852 9.84 6.74252 9.84C6.37652 9.84 6.11552 10.02 5.93852 10.308L6.26852 10.509C6.37952 10.323 6.50252 10.2 6.70352 10.2C6.86852 10.2 6.98852 10.302 6.98852 10.476C6.98852 10.647 6.88652 10.761 6.72452 10.926L6.00452 11.634V12ZM8.09918 9.84C7.79318 9.84 7.58318 10.059 7.58318 10.341C7.58318 10.623 7.79318 10.842 8.09918 10.842C8.40218 10.842 8.60918 10.623 8.60918 10.341C8.60918 10.059 8.40218 9.84 8.09918 9.84ZM8.09918 10.59C7.96418 10.59 7.86818 10.488 7.86818 10.341C7.86818 10.194 7.96418 10.095 8.09918 10.095C8.23118 10.095 8.32718 10.194 8.32718 10.341C8.32718 10.485 8.23118 10.59 8.09918 10.59Z" fill="#772D29"/>
</svg>
