<svg width="20" height="6" viewBox="0 0 20 6" fill="none" xmlns="http://www.w3.org/2000/svg">
<path d="M19.3839 0.996594C19.4097 0.49757 18.8993 0.390835 18.8993 0.390835C15.0214 -0.785217 11.7897 1.06786 11.7897 1.06786C11.1067 1.57511 10.4899 1.69246 10.0133 1.66872V1.66829C10.0098 1.66843 10.0063 1.66829 10.0027 1.66829C9.99914 1.66829 9.99571 1.66843 9.99212 1.66829V1.66872C9.51539 1.69248 8.89889 1.57525 8.21576 1.06786C8.21576 1.06786 4.98404 -0.785253 1.10615 0.390835C1.10615 0.390835 0.595602 0.49784 0.621391 0.996594H0V1.73799H0.726552C0.948434 2.92212 1.61063 5.16583 3.48969 5.73571C3.48969 5.73571 5.99423 6.5552 7.69109 5.3081C7.69109 5.3081 8.4586 4.98752 9.26632 2.74253C9.26632 2.74253 9.58061 2.36506 10.0032 2.39919C10.4254 2.36505 10.74 2.74253 10.74 2.74253C11.5477 4.98753 12.3152 5.3081 12.3152 5.3081C14.0117 6.55517 16.5162 5.73571 16.5162 5.73571C18.3951 5.16583 19.0571 2.92216 19.2793 1.73799H20V0.996594H19.3839Z" fill="url(#paint0_radial_259_12550)"/>
<mask id="mask0_259_12550" style="mask-type:alpha" maskUnits="userSpaceOnUse" x="0" y="0" width="20" height="6">
<path d="M19.3839 0.996594C19.4097 0.49757 18.8993 0.390835 18.8993 0.390835C15.0214 -0.785217 11.7897 1.06786 11.7897 1.06786C11.1067 1.57511 10.4899 1.69246 10.0133 1.66872V1.66829C10.0098 1.66843 10.0063 1.66829 10.0027 1.66829C9.99914 1.66829 9.99571 1.66843 9.99212 1.66829V1.66872C9.51539 1.69248 8.89889 1.57525 8.21576 1.06786C8.21576 1.06786 4.98404 -0.785253 1.10615 0.390835C1.10615 0.390835 0.595602 0.49784 0.621391 0.996594H0V1.73799H0.726552C0.948434 2.92212 1.61063 5.16583 3.48969 5.73571C3.48969 5.73571 5.99423 6.5552 7.69109 5.3081C7.69109 5.3081 8.4586 4.98752 9.26632 2.74253C9.26632 2.74253 9.58061 2.36506 10.0032 2.39919C10.4254 2.36505 10.74 2.74253 10.74 2.74253C11.5477 4.98753 12.3152 5.3081 12.3152 5.3081C14.0117 6.55517 16.5162 5.73571 16.5162 5.73571C18.3951 5.16583 19.0571 2.92216 19.2793 1.73799H20V0.996594H19.3839Z" fill="url(#paint1_radial_259_12550)"/>
</mask>
<g mask="url(#mask0_259_12550)">
<rect x="-1" y="0.376953" width="2" height="6" transform="rotate(-10.8628 -1 0.376953)" fill="#571CD3"/>
<rect x="-0.914062" y="0.635498" width="2.4375" height="10.659" transform="rotate(-85.892 -0.914062 0.635498)" fill="#571CD3"/>
<rect width="2.4375" height="10.659" transform="matrix(-0.0716372 -0.997431 -0.997431 0.0716372 21.8063 0.635498)" fill="#571CD3"/>
<rect x="18.9324" y="0.032959" width="2" height="6" transform="rotate(7.21958 18.9324 0.032959)" fill="#571CD3"/>
<path d="M8 -0.5H12L10 5V5.5L8 -0.5Z" fill="#571CD3"/>
</g>
<defs>
<radialGradient id="paint0_radial_259_12550" cx="0" cy="0" r="1" gradientUnits="userSpaceOnUse" gradientTransform="translate(1 6.5) scale(19 63.3333)">
<stop stop-color="#1A44AE"/>
<stop offset="0.218495" stop-color="#4AF1F1"/>
<stop offset="0.463134" stop-color="#1A44AE"/>
<stop offset="0.724453" stop-color="#4AF1F1"/>
<stop offset="1" stop-color="#1A44AE"/>
</radialGradient>
<radialGradient id="paint1_radial_259_12550" cx="0" cy="0" r="1" gradientUnits="userSpaceOnUse" gradientTransform="translate(1 6.5) scale(19 63.3333)">
<stop stop-color="#1B2584"/>
<stop offset="0.218495" stop-color="#4AF1F1"/>
<stop offset="0.463134" stop-color="#1B2584"/>
<stop offset="0.724453" stop-color="#4AF1F1"/>
<stop offset="1" stop-color="#1B2584"/>
</radialGradient>
</defs>
</svg>
