<svg width="19" height="23" viewBox="0 0 19 23" fill="none" xmlns="http://www.w3.org/2000/svg">
<line x1="12.1019" y1="13.3292" x2="6.51418" y2="10.1031" stroke="#625D5D" stroke-width="0.5"/>
<line x1="13.0919" y1="2.43652" x2="7.04296" y2="12.9135" stroke="#625D5D" stroke-width="0.5"/>
<line x1="15.5364" y1="3.8479" x2="9.48748" y2="14.3249" stroke="#625D5D" stroke-width="0.5"/>
<line x1="15.5364" y1="3.8479" x2="9.48748" y2="14.3249" stroke="#625D5D" stroke-width="0.5"/>
<line x1="14.0103" y1="11.637" x2="7.02563" y2="7.60443" stroke="#625D5D" stroke-width="0.5"/>
<line x1="15.9185" y1="9.9449" x2="7.5369" y2="5.10577" stroke="#625D5D" stroke-width="0.5"/>
<line x1="16.4299" y1="7.44624" x2="9.44519" y2="3.41363" stroke="#625D5D" stroke-width="0.5"/>
<line x1="16.5378" y1="5.64607" x2="10.95" y2="2.41998" stroke="#625D5D" stroke-width="0.5"/>
<path d="M15.2073 10.1769C14.3653 11.6353 13.1688 12.6826 11.9353 13.2095C10.702 13.7363 9.46385 13.7339 8.47344 13.162C7.48303 12.5902 6.86182 11.5192 6.7014 10.1877C6.54096 8.85606 6.84973 7.29613 7.69173 5.83775C8.53373 4.37936 9.73028 3.33199 10.9638 2.80509C12.1971 2.27827 13.4352 2.28077 14.4256 2.85258C15.416 3.42439 16.0372 4.49538 16.1977 5.82688C16.3581 7.15857 16.0493 8.71849 15.2073 10.1769Z" stroke="#370A0A"/>
<path d="M12.2269 13.1127C11.2416 13.4751 7.91648 15.0943 7.71196 16.0937M6.63916 9.8866C6.81796 10.9211 7.0783 14.6103 6.315 15.2872" stroke="#370A0A"/>
<rect x="6.0199" y="14.1855" width="3.22609" height="6.45217" transform="rotate(30 6.0199 14.1855)" fill="#67CDC7"/>
<line x1="5.06024" y1="15.8479" x2="7.85412" y2="17.4609" stroke="#A7A5FA"/>
<line x1="3.85034" y1="17.9433" x2="6.64422" y2="19.5563" stroke="#A7A5FA"/>
<circle cx="15.7272" cy="11.6946" r="2.82283" fill="#E1CC5B"/>
<mask id="mask0_132_8108" style="mask-type:alpha" maskUnits="userSpaceOnUse" x="12" y="8" width="7" height="7">
<circle cx="15.7272" cy="11.6946" r="2.82283" fill="#E1CC5B"/>
</mask>
<g mask="url(#mask0_132_8108)">
<path d="M19.0066 10.4848C19.0066 10.7768 18.829 11.084 18.4538 11.3342C18.0809 11.5827 17.5457 11.7479 16.937 11.7479C16.3283 11.7479 15.7931 11.5827 15.4203 11.3342C15.045 11.084 14.8675 10.7768 14.8675 10.4848C14.8675 10.1928 15.045 9.88562 15.4203 9.63543C15.7931 9.38688 16.3283 9.22177 16.937 9.22177C17.5457 9.22177 18.0809 9.38688 18.4538 9.63543C18.829 9.88562 19.0066 10.1928 19.0066 10.4848Z" stroke="white" stroke-width="0.7"/>
</g>
</svg>
