<svg width="7" height="19" viewBox="0 0 7 19" fill="none" xmlns="http://www.w3.org/2000/svg">
<path d="M2 1.1875H5L7 16.8277L3.5 19L0 16.8277L2 1.1875Z" fill="#B070D7"/>
<mask id="mask0_116_9758" style="mask-type:alpha" maskUnits="userSpaceOnUse" x="0" y="1" width="7" height="18">
<path d="M2 1.1875H5L7 16.8277L3.5 19L0 16.8277L2 1.1875Z" fill="#B070D7"/>
</mask>
<g mask="url(#mask0_116_9758)">
<line y1="-0.5" x2="8.90987" y2="-0.5" transform="matrix(0.916586 -0.399837 0.388057 0.921635 0 7.125)" stroke="#D79FFA"/>
<line y1="-0.5" x2="8.90987" y2="-0.5" transform="matrix(0.916586 -0.399837 0.388057 0.921635 0 4.75)" stroke="#D79FFA"/>
<line y1="-0.5" x2="8.90987" y2="-0.5" transform="matrix(0.916586 -0.399837 0.388057 0.921635 0 9.5)" stroke="#D79FFA"/>
<line y1="-0.5" x2="8.90987" y2="-0.5" transform="matrix(0.916586 -0.399837 0.388057 0.921635 0 11.875)" stroke="#D79FFA"/>
<line y1="-0.5" x2="8.90987" y2="-0.5" transform="matrix(0.916586 -0.399837 0.388057 0.921635 0 14.25)" stroke="#D79FFA"/>
<line y1="-0.5" x2="8.90987" y2="-0.5" transform="matrix(0.916586 -0.399837 0.388057 0.921635 0 16.625)" stroke="#D79FFA"/>
<line y1="-0.5" x2="8.90987" y2="-0.5" transform="matrix(0.916586 -0.399837 0.388057 0.921635 0 19)" stroke="#D79FFA"/>
<line y1="-0.5" x2="8.90987" y2="-0.5" transform="matrix(0.916586 -0.399837 0.388057 0.921635 0 21.375)" stroke="#D79FFA"/>
<path d="M2 1.1875L5 1.18751L6.39662 1.1875C6.58917 1.1875 6.67051 1.4329 6.51609 1.5479L3.61946 3.70523C3.54857 3.75803 3.45143 3.75803 3.38054 3.70523L0.483908 1.5479C0.329488 1.43289 0.410828 1.1875 0.60337 1.1875H2Z" fill="#0C0B0B" fill-opacity="0.3"/>
</g>
<path d="M2 0L5 1.23818e-05L6.52313 2.95226e-06C6.70046 1.85442e-06 6.79008 0.213672 6.6658 0.340167L3.64267 3.41728C3.56429 3.49706 3.43571 3.49706 3.35733 3.41728L0.334198 0.340165C0.209922 0.21367 0.299536 0 0.476865 0H2Z" fill="#B070D7"/>
<mask id="mask1_116_9758" style="mask-type:alpha" maskUnits="userSpaceOnUse" x="0" y="0" width="7" height="4">
<path d="M2 0L5 1.23818e-05L6.52313 2.95226e-06C6.70046 1.85442e-06 6.79008 0.213672 6.6658 0.340167L3.64267 3.41728C3.56429 3.49706 3.43571 3.49706 3.35733 3.41728L0.334198 0.340165C0.209922 0.21367 0.299536 0 0.476865 0H2Z" fill="#B070D7"/>
</mask>
<g mask="url(#mask1_116_9758)">
<line y1="-0.5" x2="9.50784" y2="-0.5" transform="matrix(0.85894 -0.512076 0.294431 0.955673 0 3.5625)" stroke="#D79FFA"/>
</g>
</svg>
