<svg width="22" height="19" viewBox="0 0 22 19" fill="none" xmlns="http://www.w3.org/2000/svg">
<circle cx="16" cy="11" r="6" fill="url(#paint0_linear_154_9097)"/>
<circle cx="16" cy="11" r="2" fill="#D4CEE2"/>
<circle cx="16" cy="11" r="1" fill="white"/>
<rect x="2" width="12" height="19" rx="0.5" fill="#0F0F0F"/>
<rect x="2" y="13" width="5" height="6" fill="#4543B0"/>
<rect x="3" width="11" height="19" rx="0.5" fill="#424040"/>
<path d="M4.7125 8.8375V7.25H4.2675V8.8625C4.2675 8.9925 4.21 9.0625 4.06 9.0625C4.025 9.0625 3.9975 9.06 3.975 9.055V9.4475C4.0125 9.455 4.065 9.455 4.13 9.455C4.535 9.455 4.7125 9.235 4.7125 8.8375ZM5.14709 9H6.22709V8.6325H5.59209V8.2925H6.12709V7.925H5.59209V7.6175H6.22709V7.25H5.14709V9ZM7.57094 8.34C7.57094 8.52 7.46844 8.6325 7.28594 8.6325C7.10094 8.6325 6.99844 8.52 6.99844 8.34V7.25H6.55344V8.2975C6.55344 8.7625 6.82344 9.05 7.28344 9.05C7.74594 9.05 8.01594 8.7625 8.01594 8.2975V7.25H7.57094V8.34ZM8.69967 9L9.08467 8.4275L9.46967 9H9.99717L9.39467 8.1L9.96467 7.25H9.43467L9.08467 7.7725L8.73217 7.25H8.20467L8.77217 8.1L8.16967 9H8.69967ZM4.015 10.25L4.65 12H5.23L5.865 10.25H5.3925L4.94 11.4975L4.4875 10.25H4.015ZM6.07238 12H6.51738V10.25H6.07238V12ZM6.95256 12H7.65256C8.21006 12 8.59006 11.5975 8.59006 11.125C8.59006 10.6525 8.21006 10.25 7.65256 10.25H6.95256V12ZM7.65506 10.6525C7.93006 10.6525 8.13006 10.8525 8.13006 11.125C8.13006 11.395 7.93006 11.5975 7.65506 11.5975H7.39756V10.6525H7.65506ZM9.60771 10.1L9.93521 9.7625H9.48521L9.20271 10.1H9.60771ZM8.87521 12H9.95521V11.6325H9.32021V11.2925H9.85521V10.925H9.32021V10.6175H9.95521V10.25H8.87521V12ZM11.0702 10.2C10.5127 10.2 10.1327 10.625 10.1327 11.125C10.1327 11.625 10.5127 12.05 11.0702 12.05C11.6252 12.05 12.0052 11.625 12.0052 11.125C12.0052 10.625 11.6252 10.2 11.0702 10.2ZM11.0702 11.6325C10.7902 11.6325 10.5902 11.42 10.5902 11.125C10.5902 10.8325 10.7902 10.6175 11.0702 10.6175C11.3477 10.6175 11.5477 10.83 11.5477 11.125C11.5477 11.4175 11.3477 11.6325 11.0702 11.6325Z" fill="white"/>
<defs>
<linearGradient id="paint0_linear_154_9097" x1="20" y1="6.5" x2="11" y2="14" gradientUnits="userSpaceOnUse">
<stop stop-color="#FBF3AE"/>
<stop offset="1" stop-color="#AEFBF6"/>
</linearGradient>
</defs>
</svg>
