<svg width="12" height="22" viewBox="0 0 12 22" fill="none" xmlns="http://www.w3.org/2000/svg">
<line x1="9.76285" y1="4.46414" x2="5.99582" y2="3.11896" stroke="black" stroke-width="0.5"/>
<line x1="10.0992" y1="3.52237" x2="6.33213" y2="2.17719" stroke="black" stroke-width="0.5"/>
<line x1="9.42655" y1="5.40591" x2="5.65952" y2="4.06073" stroke="black" stroke-width="0.5"/>
<line x1="9.09024" y1="6.34762" x2="5.32322" y2="5.00244" stroke="black" stroke-width="0.5"/>
<line x1="8.75394" y1="7.28939" x2="4.98691" y2="5.94422" stroke="black" stroke-width="0.5"/>
<line x1="8.41764" y1="8.23117" x2="4.65061" y2="6.88599" stroke="black" stroke-width="0.5"/>
<line x1="8.08133" y1="9.17294" x2="4.3143" y2="7.82776" stroke="black" stroke-width="0.5"/>
<line x1="7.74503" y1="10.1147" x2="3.978" y2="8.76947" stroke="black" stroke-width="0.5"/>
<line x1="7.40872" y1="11.0564" x2="3.6417" y2="9.71125" stroke="black" stroke-width="0.5"/>
<line x1="7.07242" y1="11.9982" x2="3.30539" y2="10.653" stroke="black" stroke-width="0.5"/>
<path fill-rule="evenodd" clip-rule="evenodd" d="M3.99496 11.6956L4.41603 11.846C5.26638 12.1496 6.21285 11.8109 6.67737 11.0366L6.85544 10.7398C7.94219 8.92834 8.65948 6.91964 8.96593 4.82957L9.00356 4.5729C9.14186 3.62963 8.59514 2.71986 7.69731 2.39925L6.88703 2.1099C6.62697 2.01704 6.49143 1.73094 6.58429 1.47088C6.67716 1.21082 6.96326 1.07528 7.22332 1.16815L9.32313 1.91798C9.78764 2.08385 10.1672 2.42744 10.3784 2.87318C10.5588 3.25395 10.6323 3.67658 10.5911 4.09588L10.5297 4.7198C10.4783 5.24245 10.363 5.75684 10.1864 6.25143L7.25755 14.4534C6.30471 17.1217 4.0896 22.1355 2.85183 20.844C1.64975 19.5898 2.444 17.9802 3.03503 17.2722C3.06921 17.2313 3.10781 17.1946 3.14903 17.1607L5.22546 15.456C5.30171 15.3934 5.36887 15.3205 5.42053 15.2364C5.79363 14.6293 6.24429 13.5607 5.54218 13.31L3.6585 12.6373C3.39844 12.5445 3.26307 12.2584 3.35594 11.9984C3.4488 11.7383 3.7349 11.6028 3.99496 11.6956ZM3.42356 19.9863C3.81365 20.1256 4.2428 19.9223 4.3821 19.5322C4.5214 19.1422 4.31809 18.713 3.928 18.5737C3.53791 18.4344 3.10876 18.6377 2.96946 19.0278C2.83017 19.4179 3.03347 19.847 3.42356 19.9863Z" fill="#DD58E0"/>
<path d="M6.67737 11.0366L6.46299 10.908L6.67737 11.0366ZM6.85544 10.7398L7.06982 10.8684L6.85544 10.7398ZM8.96593 4.82957L9.21328 4.86584L8.96593 4.82957ZM9.00356 4.5729L8.7562 4.53664L9.00356 4.5729ZM10.3784 2.87318L10.6043 2.76615L10.6043 2.76615L10.3784 2.87318ZM10.5911 4.09588L10.3423 4.07142L10.3423 4.07142L10.5911 4.09588ZM10.5297 4.7198L10.2809 4.69534L10.5297 4.7198ZM2.85183 20.844L3.03232 20.671L2.85183 20.844ZM3.03503 17.2722L3.22695 17.4325L3.03503 17.2722ZM3.14903 17.1607L3.30766 17.354L3.30766 17.354L3.14903 17.1607ZM5.22546 15.456L5.38409 15.6493L5.38409 15.6493L5.22546 15.456ZM5.42053 15.2364L5.20753 15.1056L5.20753 15.1056L5.42053 15.2364ZM4.5001 11.6105L4.07903 11.4602L3.91089 11.9311L4.33196 12.0814L4.5001 11.6105ZM6.46299 10.908C6.05978 11.5801 5.23822 11.8741 4.5001 11.6105L4.33196 12.0814C5.29454 12.4252 6.36592 12.0417 6.89175 11.1652L6.46299 10.908ZM6.64106 10.6112L6.46299 10.908L6.89175 11.1652L7.06982 10.8684L6.64106 10.6112ZM8.71857 4.7933C8.41691 6.85072 7.71083 8.82803 6.64106 10.6112L7.06982 10.8684C8.17355 9.02865 8.90205 6.98856 9.21328 4.86584L8.71857 4.7933ZM8.7562 4.53664L8.71857 4.7933L9.21328 4.86584L9.25092 4.60917L8.7562 4.53664ZM7.61323 2.63469C8.39884 2.91522 8.87722 3.71127 8.7562 4.53664L9.25092 4.60917C9.40651 3.54799 8.79144 2.5245 7.78138 2.16381L7.61323 2.63469ZM6.80295 2.34534L7.61323 2.63469L7.78138 2.16381L6.9711 1.87446L6.80295 2.34534ZM6.34886 1.3868C6.20956 1.77689 6.41286 2.20605 6.80295 2.34534L6.9711 1.87446C6.84107 1.82803 6.7733 1.68498 6.81973 1.55495L6.34886 1.3868ZM7.30739 0.932708C6.9173 0.79341 6.48815 0.996716 6.34886 1.3868L6.81973 1.55495C6.86617 1.42492 7.00922 1.35715 7.13925 1.40359L7.30739 0.932708ZM9.40721 1.68254L7.30739 0.932708L7.13925 1.40359L9.23906 2.15341L9.40721 1.68254ZM10.6043 2.76615C10.3648 2.26049 9.93415 1.8707 9.40721 1.68254L9.23906 2.15341C9.64112 2.29699 9.96968 2.5944 10.1525 2.98022L10.6043 2.76615ZM10.8399 4.12034C10.8855 3.65594 10.8041 3.18786 10.6043 2.76615L10.1525 2.98022C10.3134 3.32003 10.379 3.69721 10.3423 4.07142L10.8399 4.12034ZM10.7785 4.74426L10.8399 4.12034L10.3423 4.07142L10.2809 4.69534L10.7785 4.74426ZM10.4219 6.3355C10.6053 5.82166 10.7251 5.28726 10.7785 4.74426L10.2809 4.69534C10.2315 5.19765 10.1207 5.69201 9.95098 6.16735L10.4219 6.3355ZM7.49299 14.5375L10.4219 6.3355L9.95098 6.16735L7.02211 14.3694L7.49299 14.5375ZM2.67134 21.017C2.87243 21.2268 3.11599 21.326 3.38315 21.2983C3.63438 21.2724 3.87221 21.1376 4.08835 20.9577C4.52056 20.598 4.96131 19.9765 5.37775 19.2592C6.21627 17.8148 7.01422 15.8782 7.49299 14.5375L7.02211 14.3694C6.54804 15.6969 5.76201 17.6014 4.94533 19.0081C4.53417 19.7164 4.12951 20.2729 3.76848 20.5734C3.588 20.7236 3.44226 20.7896 3.33171 20.801C3.2371 20.8108 3.14067 20.7841 3.03232 20.671L2.67134 21.017ZM2.84312 17.112C2.52818 17.4893 2.15745 18.1067 2.02535 18.8069C1.89122 19.518 2.00404 20.3208 2.67134 21.017L3.03232 20.671C2.49754 20.1131 2.40645 19.484 2.51668 18.8996C2.62894 18.3045 2.95085 17.7632 3.22695 17.4325L2.84312 17.112ZM2.9904 16.9675C2.93991 17.009 2.88944 17.0565 2.84312 17.112L3.22695 17.4325C3.24898 17.4061 3.2757 17.3802 3.30766 17.354L2.9904 16.9675ZM5.06683 15.2628L2.9904 16.9675L3.30766 17.354L5.38409 15.6493L5.06683 15.2628ZM5.20753 15.1056C5.17271 15.1622 5.12532 15.2148 5.06683 15.2628L5.38409 15.6493C5.47811 15.5721 5.56502 15.4788 5.63352 15.3673L5.20753 15.1056ZM5.45811 13.5454C5.56283 13.5828 5.61024 13.6406 5.63584 13.7139C5.66606 13.8003 5.6707 13.9268 5.639 14.0926C5.57571 14.4238 5.38747 14.8127 5.20753 15.1056L5.63352 15.3673C5.82668 15.053 6.05033 14.604 6.13012 14.1865C6.16996 13.978 6.17893 13.7523 6.10784 13.5489C6.03214 13.3323 5.87259 13.1625 5.62625 13.0745L5.45811 13.5454ZM3.57443 12.8728L5.45811 13.5454L5.62625 13.0745L3.74257 12.4019L3.57443 12.8728ZM3.1205 11.9143C2.98124 12.3043 3.18423 12.7334 3.57443 12.8728L3.74257 12.4019C3.61265 12.3555 3.5449 12.2126 3.59137 12.0824L3.1205 11.9143ZM4.07903 11.4602C3.68895 11.3209 3.25979 11.5242 3.1205 11.9143L3.59137 12.0824C3.63781 11.9524 3.78086 11.8846 3.91089 11.9311L4.07903 11.4602ZM4.14666 19.4482C4.05379 19.7082 3.76769 19.8438 3.50763 19.7509L3.33949 20.2218C3.8596 20.4075 4.43181 20.1364 4.61754 19.6163L4.14666 19.4482ZM3.84393 18.8091C4.10399 18.902 4.23952 19.1881 4.14666 19.4482L4.61754 19.6163C4.80327 19.0962 4.53219 18.524 4.01207 18.3383L3.84393 18.8091ZM3.2049 19.1119C3.29777 18.8518 3.58387 18.7163 3.84393 18.8091L4.01207 18.3383C3.49196 18.1525 2.91975 18.4236 2.73402 18.9437L3.2049 19.1119ZM3.50763 19.7509C3.24757 19.658 3.11204 19.3719 3.2049 19.1119L2.73402 18.9437C2.54829 19.4638 2.81937 20.036 3.33949 20.2218L3.50763 19.7509Z" fill="#DD58E0"/>
</svg>
