<svg width="17" height="21" viewBox="0 0 17 21" fill="none" xmlns="http://www.w3.org/2000/svg">
<path d="M14.1278 19.2341L13.1055 19.6953C13.0713 19.7107 13.0472 19.7442 13.0551 19.7809C13.143 20.1875 14.2673 20.665 15.0135 20.9202C15.0998 20.9497 15.174 20.8569 15.1282 20.778L14.2555 19.2753C14.2297 19.2308 14.1745 19.213 14.1278 19.2341Z" fill="#338AC9"/>
<path d="M14.1666 1C10.0867 5.65872 9.06665 14.5879 9.06665 18.4702C10.4267 18.0043 14.1666 17.8879 15.8666 17.8879L17 16.1408L15.8666 2.74702L14.1666 1Z" fill="#EA86FB"/>
<mask id="mask0_132_8038" style="mask-type:alpha" maskUnits="userSpaceOnUse" x="9" y="1" width="8" height="18">
<path d="M14.096 1.08142C10.1216 5.70763 9.0905 14.4053 9.06706 18.3336C9.06665 18.4022 9.13421 18.4473 9.2 18.4278C10.6413 18.0018 14.1441 17.8902 15.8136 17.8879C15.8475 17.8878 15.8778 17.8707 15.8962 17.8423L16.9813 16.1696C16.9934 16.1509 16.999 16.1288 16.9971 16.1067L15.8697 2.78268C15.8677 2.75962 15.8578 2.73796 15.8417 2.72137L14.2422 1.07763C14.2015 1.03579 14.1341 1.03714 14.096 1.08142Z" fill="#EA86FB"/>
</mask>
<g mask="url(#mask0_132_8038)">
<line y1="-0.5" x2="22.3578" y2="-0.5" transform="matrix(0.995831 0.091213 -0.0864064 0.99626 4.16772 2.89203)" stroke="#E8D7FF"/>
<line y1="-0.5" x2="22.3681" y2="-0.5" transform="matrix(0.987041 0.160471 -0.152152 0.988357 3.1275 4.44635)" stroke="#E8D7FF"/>
<line y1="-0.5" x2="22.4023" y2="-0.5" transform="matrix(0.9576 0.288102 -0.273981 0.961735 2.30713 5.34332)" stroke="#E8D7FF"/>
<line y1="-0.5" x2="22.437" y2="-0.5" transform="matrix(0.926791 0.375577 -0.358254 0.933624 1.50275 6.68634)" stroke="#E8D7FF"/>
<line y1="-0.5" x2="22.4678" y2="-0.5" transform="matrix(0.898758 0.438446 -0.419351 0.907824 0.670105 8.30371)" stroke="#E8D7FF"/>
<line y1="-0.5" x2="22.5134" y2="-0.5" transform="matrix(0.855787 0.517328 -0.496777 0.867878 0 9.73511)" stroke="#E8D7FF"/>
<line y1="-0.5" x2="22.5134" y2="-0.5" transform="matrix(0.855787 0.517328 -0.496777 0.867878 -1.13336 12.0645)" stroke="#E8D7FF"/>
</g>
<path d="M13.9786 0.835291C12.2332 2.82828 8.81665 9.21752 8.81665 19.0525H9.31665C9.31665 9.32094 12.7001 3.05399 14.3547 1.16471L13.9786 0.835291Z" fill="#44ADF9"/>
<path d="M15.7759 18.7097L0.324951 17.9003C0.236427 17.8957 0.195314 17.9899 0.268246 18.0406C0.938753 18.5067 3.10864 19.3687 7.9289 20.0332C13.0329 20.7368 15.2634 19.6099 15.8481 18.8509C15.8932 18.7924 15.8499 18.7136 15.7759 18.7097Z" fill="#44ADF9"/>
<mask id="mask1_132_8038" style="mask-type:alpha" maskUnits="userSpaceOnUse" x="0" y="17" width="16" height="4">
<path d="M15.7759 18.7097L0.324951 17.9003C0.236427 17.8957 0.195314 17.9899 0.268246 18.0406C0.938753 18.5067 3.10864 19.3687 7.9289 20.0332C13.0329 20.7368 15.2634 19.6099 15.8481 18.8509C15.8932 18.7924 15.8499 18.7136 15.7759 18.7097Z" fill="#44ADF9"/>
</mask>
<g mask="url(#mask1_132_8038)">
<line y1="-0.5" x2="4.16475" y2="-0.5" transform="matrix(0.502775 0.865855 -0.851413 0.522069 0.711975 16.7538)" stroke="#F6C2FF"/>
<line y1="-0.2" x2="4.16475" y2="-0.2" transform="matrix(0.502775 0.865855 -0.851413 0.522069 2.97577 16.8702)" stroke="#F6C2FF" stroke-width="0.4"/>
</g>
</svg>
