<svg width="20" height="20" viewBox="0 0 20 20" fill="none" xmlns="http://www.w3.org/2000/svg">
<rect x="9.89941" y="0.353553" width="6.5" height="6.5" transform="rotate(45 9.89941 0.353553)" fill="#242220" stroke="white" stroke-width="0.5"/>
<rect x="14.8491" y="5.30338" width="6.5" height="6.5" transform="rotate(45 14.8491 5.30338)" fill="#DAD5D1" stroke="white" stroke-width="0.5"/>
<rect x="4.94971" y="5.30338" width="6.5" height="6.5" transform="rotate(45 4.94971 5.30338)" fill="#DAD5D1" stroke="white" stroke-width="0.5"/>
<rect x="9.89941" y="10.2531" width="6.5" height="6.5" transform="rotate(45 9.89941 10.2531)" fill="#242220" stroke="white" stroke-width="0.5"/>
<path d="M11.6672 3.18207L10.7744 4.94984L11.6672 6.71761L9.89941 5.82484L8.13165 6.71761L9.02441 4.94984L8.13165 3.18207L9.89941 4.07484L11.6672 3.18207Z" fill="white"/>
<path d="M11.6672 13.0815L10.7744 14.8493L11.6672 16.617L9.89941 15.7243L8.13165 16.617L9.02441 14.8493L8.13165 13.0815L9.89941 13.9743L11.6672 13.0815Z" fill="white"/>
</svg>
