<svg width="30" height="30" viewBox="0 0 30 30" fill="none" xmlns="http://www.w3.org/2000/svg">
<path d="M30 15C30 23.2843 23.2843 30 15 30C6.71573 30 0 23.2843 0 15C0 6.71573 6.71573 0 15 0C23.2843 0 30 6.71573 30 15Z" fill="#B67F4C"/>
<mask id="mask0_237_13340" style="mask-type:alpha" maskUnits="userSpaceOnUse" x="0" y="0" width="30" height="30">
<path d="M30 15C30 23.2843 23.2843 30 15 30C6.71573 30 0 23.2843 0 15C0 6.71573 6.71573 0 15 0C23.2843 0 30 6.71573 30 15Z" fill="#B67F4C"/>
</mask>
<g mask="url(#mask0_237_13340)">
<path d="M5.99997 -2C3.49997 5 1.5 17.3 11.5 16.5C21.5 15.7 27.8333 6 30 0.5" stroke="black" stroke-opacity="0.3"/>
<path d="M8.70457 -3C6.7988 2.59068 4.89303 13.6123 12.5161 12.9734C20.1392 12.3344 25.3483 3.38935 27 -1.00333" stroke="#70553D"/>
<path d="M11.1932 -8C9.85917 -2.40932 8.16384 7.63894 13.5 7C18.8362 6.36106 22.8438 -1.61065 24 -6.00333" stroke="black" stroke-opacity="0.3"/>
<path d="M34.5 6.5C31.1667 10.8333 22.6 20.3 15 23.5C7.4 26.7 1.5 33.5 -0.5 36.5" stroke="black" stroke-opacity="0.3"/>
<path d="M33.5 16C29.5 19.3333 20.5 26.4 16.5 28C12.5 29.6 7.83333 32 6 33" stroke="black" stroke-opacity="0.3"/>
<path d="M-0.402074 10C0.197581 14.1905 2.9629 18.6857 8 19C13.0371 19.3143 1.99654 29.119 -4 32" stroke="black" stroke-opacity="0.3"/>
<path d="M17.5 1.5C16.8081 3.59798 14.0339 5.0582 13.2472 4.79873C12.4604 4.53925 12.3836 2.62816 13.0755 0.530176C13.7674 -1.56781 14.9661 -3.05821 15.7529 -2.79873C16.5396 -2.53926 18.1919 -0.597981 17.5 1.5Z" fill="#141313" fill-opacity="0.3"/>
</g>
</svg>
