<svg width="71" height="22" viewBox="0 0 71 22" fill="none" xmlns="http://www.w3.org/2000/svg">
<path d="M9.8196 5.09292C9.8196 5.09292 11.159 8.10657 11.1221 9.28969C11.1221 9.28969 12.1265 7.78254 10.6196 4.90201C10.6196 4.90201 9.65208 2.78446 10.4145 1.54485C10.4145 1.54485 10.9731 0.32406 12.2571 3.33786e-05C12.2571 3.33786e-05 12.3685 0.0571766 12.1826 0.266917C12.1826 0.266917 11.3272 1.56368 12.5176 2.72732C12.5176 2.72732 14.043 4.36824 13.95 5.79877C13.95 5.79877 14.1175 8.16436 11.4749 10.4533L10.8431 10.4722C10.8431 10.4722 9.74969 8.89554 9.16867 7.83969C9.16867 7.83969 8.24208 6.20201 8.66548 4.90201C8.66548 4.90201 9.03941 3.43706 9.61647 2.9494C9.61647 2.9494 9.68308 2.92667 9.67187 3.00719C9.67187 3.00719 9.56569 4.5033 9.8196 5.09292Z" fill="#000091"/>
<path d="M16.5562 13.4389C16.8411 14.1577 17 14.9415 17 15.7636C17 19.2078 14.244 22 10.8443 22L10.1314 21.9584C6.55624 21.7857 4.2302 19.0688 4.2302 19.0688C1.8646 16.4143 1 12.6512 1 12.6512H5.50962H7.05482C6.38873 13.5162 5.99106 14.6026 5.99106 15.7837C5.99106 18.1526 7.58703 20.1435 9.74886 20.7149C10.1551 20.8227 10.5818 20.8805 11.0217 20.8805C13.8001 20.8805 16.053 18.5987 16.053 15.7837C16.053 14.948 15.8525 14.1603 15.501 13.4649C15.3796 13.2246 15.2411 12.9961 15.0855 12.7805H16.2515L16.5562 13.4389Z" fill="#000091"/>
<path d="M14.3888 15.9249C14.3888 17.7288 12.8746 19.1918 11.0063 19.1918C9.13791 19.1918 7.62305 17.7288 7.62305 15.9249C7.62305 14.1203 9.13791 12.6573 11.0063 12.6573C12.8746 12.6573 14.3888 14.1203 14.3888 15.9249Z" fill="#ED1639"/>
<path d="M19.442 11H23.292C26.4 11 28.5 8.746 28.5 6.1C28.5 3.454 26.4 1.2 23.292 1.2H19.442V11ZM23.32 3.006C25.14 3.006 26.456 4.35 26.456 6.1C26.456 7.836 25.14 9.194 23.32 9.194H21.43V3.006H23.32ZM34.3223 2.824L36.0023 0.499999H34.0703L32.6143 2.824H34.3223ZM36.7163 9.852L35.4423 8.844C35.0643 9.348 34.3923 9.684 33.6223 9.684C32.5163 9.684 31.7043 9.152 31.5363 7.836H36.4783C36.5343 7.598 36.5903 7.234 36.5903 6.842C36.5903 4.994 35.3023 3.664 33.3423 3.664C31.0323 3.664 29.7163 5.386 29.7163 7.472C29.7163 9.53 31.1303 11.28 33.6363 11.28C34.9663 11.28 36.0583 10.734 36.7163 9.852ZM33.3003 5.12C34.2943 5.12 34.8123 5.834 34.8403 6.548H31.5923C31.7883 5.624 32.3903 5.12 33.3003 5.12ZM41.661 9.6C40.471 9.6 39.617 8.718 39.617 7.472C39.617 6.24 40.471 5.344 41.633 5.344C42.361 5.344 42.921 5.666 43.257 6.156L44.643 5.092C43.985 4.224 42.949 3.664 41.661 3.664C39.225 3.664 37.769 5.414 37.769 7.472C37.769 9.53 39.225 11.28 41.661 11.28C42.949 11.28 43.985 10.72 44.643 9.852L43.257 8.788C42.921 9.278 42.361 9.6 41.661 9.6ZM45.9703 11H47.7483V0.499999H45.9703V11ZM51.8684 11.21C52.6944 11.21 53.5344 10.86 53.9824 10.314V11H55.7604V6.436C55.7604 4.882 54.7104 3.664 52.6664 3.664C51.3784 3.664 50.3424 4.196 49.7124 5.064L51.0144 6.058C51.3924 5.54 51.9244 5.218 52.6104 5.218C53.4224 5.218 53.9824 5.694 53.9824 6.436V6.618L51.8264 6.982C50.3144 7.234 49.4884 8.032 49.4884 9.096C49.4884 10.398 50.4544 11.21 51.8684 11.21ZM51.2524 9.012C51.2524 8.578 51.5604 8.27 52.3024 8.144L53.9824 7.864V8.858C53.6324 9.418 53.0444 9.796 52.2324 9.796C51.6304 9.796 51.2524 9.488 51.2524 9.012ZM57.7964 11H59.5744V6.478C59.8404 6.03 60.4004 5.554 61.2684 5.554C61.5904 5.554 61.8284 5.596 62.0524 5.652V3.902C61.8844 3.846 61.6744 3.804 61.4364 3.804C60.6384 3.804 60.0364 4.168 59.5744 4.644V3.944H57.7964V11ZM69.6791 9.852L68.4051 8.844C68.0271 9.348 67.3551 9.684 66.5851 9.684C65.4791 9.684 64.6671 9.152 64.4991 7.836H69.4411C69.4971 7.598 69.5531 7.234 69.5531 6.842C69.5531 4.994 68.2651 3.664 66.3051 3.664C63.9951 3.664 62.6791 5.386 62.6791 7.472C62.6791 9.53 64.0931 11.28 66.5991 11.28C67.9291 11.28 69.0211 10.734 69.6791 9.852ZM66.2631 5.12C67.2571 5.12 67.7751 5.834 67.8031 6.548H64.5551C64.7511 5.624 65.3531 5.12 66.2631 5.12Z" fill="url(#paint0_linear_787_14911)"/>
<path d="M19.1861 21.7H23.0361C26.1441 21.7 28.2441 19.446 28.2441 16.8C28.2441 14.154 26.1441 11.9 23.0361 11.9H19.1861V21.7ZM23.0641 13.706C24.8841 13.706 26.2001 15.05 26.2001 16.8C26.2001 18.536 24.8841 19.894 23.0641 19.894H21.1741V13.706H23.0641ZM33.3244 14.364C31.0284 14.364 29.4604 16.058 29.4604 18.172C29.4604 20.286 31.0284 21.98 33.3244 21.98C35.6204 21.98 37.1884 20.286 37.1884 18.172C37.1884 16.058 35.6204 14.364 33.3244 14.364ZM33.3524 20.3C32.1764 20.3 31.3084 19.404 31.3084 18.172C31.3084 16.94 32.1764 16.044 33.3524 16.044C34.4864 16.044 35.3404 16.94 35.3404 18.172C35.3404 19.39 34.4864 20.3 33.3524 20.3ZM43.4581 18.648C43.4581 19.67 42.9261 20.3 41.9601 20.3C40.9801 20.3 40.4481 19.67 40.4481 18.648V14.644H38.6561V18.564C38.6561 20.678 39.8741 21.98 41.9461 21.98C44.0181 21.98 45.2501 20.678 45.2501 18.564V14.644H43.4581V18.648ZM49.0696 21.91C49.8956 21.91 50.7356 21.56 51.1836 21.014V21.7H52.9616V17.136C52.9616 15.582 51.9116 14.364 49.8676 14.364C48.5796 14.364 47.5436 14.896 46.9136 15.764L48.2156 16.758C48.5936 16.24 49.1256 15.918 49.8116 15.918C50.6236 15.918 51.1836 16.394 51.1836 17.136V17.318L49.0276 17.682C47.5156 17.934 46.6896 18.732 46.6896 19.796C46.6896 21.098 47.6556 21.91 49.0696 21.91ZM48.4536 19.712C48.4536 19.278 48.7616 18.97 49.5036 18.844L51.1836 18.564V19.558C50.8336 20.118 50.2456 20.496 49.4336 20.496C48.8316 20.496 48.4536 20.188 48.4536 19.712ZM54.9976 21.7H56.7756V17.094C57.0416 16.646 57.5176 16.044 58.4136 16.044C59.2816 16.044 59.8136 16.632 59.8136 17.57V21.7H61.6056V17.5C61.6056 15.414 60.3876 14.364 58.8616 14.364C57.9236 14.364 57.2656 14.728 56.7756 15.204V14.644H54.9976V21.7ZM70.1205 20.552L68.8465 19.544C68.4685 20.048 67.7965 20.384 67.0265 20.384C65.9205 20.384 65.1085 19.852 64.9405 18.536H69.8825C69.9385 18.298 69.9945 17.934 69.9945 17.542C69.9945 15.694 68.7065 14.364 66.7465 14.364C64.4365 14.364 63.1205 16.086 63.1205 18.172C63.1205 20.23 64.5345 21.98 67.0405 21.98C68.3705 21.98 69.4625 21.434 70.1205 20.552ZM66.7045 15.82C67.6985 15.82 68.2165 16.534 68.2445 17.248H64.9965C65.1925 16.324 65.7945 15.82 66.7045 15.82Z" fill="#000091"/>
<defs>
<linearGradient id="paint0_linear_787_14911" x1="23.5844" y1="1.2782" x2="55.9179" y2="14.192" gradientUnits="userSpaceOnUse">
<stop offset="0.0572917" stop-color="#ED1639"/>
<stop offset="1" stop-color="#000091"/>
</linearGradient>
</defs>
</svg>
