<svg width="134" height="122" viewBox="16 16 118 106" fill="none" xmlns="http://www.w3.org/2000/svg">
<rect width="44" height="16" transform="translate(16 16)" fill="white"/>
<path d="M30.2106 30.071C30.2159 30.071 30.2212 30.0632 30.2212 30.0632C30.2637 30.0318 30.3062 29.9926 30.3433 29.9455C30.338 29.9455 30.3327 29.9455 30.3274 29.9376C30.2902 29.9769 30.2477 30.0239 30.2106 30.071Z" fill="#000091"/>
<path d="M36.0958 28.0878L36.0029 28.1679C36.056 28.1545 36.0958 28.1412 36.0958 28.0878Z" fill="#000091"/>
<path fill-rule="evenodd" clip-rule="evenodd" d="M34.1931 30.1137C34.3635 29.9422 34.534 29.7603 34.7044 29.5732H34.6993C35.0195 29.2095 35.3295 28.8613 35.7014 28.5443C35.815 28.4404 35.9235 28.3521 36.0268 28.2793C36.042 28.264 36.0497 28.2413 36.0573 28.219C36.0652 28.1958 36.073 28.1731 36.0888 28.1598C36.0152 28.1879 35.9565 28.2323 35.8975 28.277C35.8364 28.3232 35.775 28.3698 35.6962 28.3988C35.6652 28.3988 35.6342 28.3677 35.6652 28.3365C35.7737 28.2585 35.8822 28.1754 35.9855 28.0922H35.9648C35.9338 28.0922 35.9338 28.0611 35.9338 28.0299C35.5493 27.9688 35.2539 28.2318 34.9896 28.4673L34.9731 28.482C34.9319 28.5027 34.893 28.4821 34.8625 28.466C34.847 28.4578 34.8337 28.4508 34.8232 28.4508C34.5893 28.5292 34.3876 28.6739 34.1845 28.8194C33.9975 28.9535 33.8093 29.0884 33.5939 29.1731V29.1108C33.5207 29.136 33.4484 29.1689 33.3759 29.2019C33.2692 29.2504 33.1622 29.2991 33.0515 29.3238C32.8493 29.3707 32.6618 29.3647 32.48 29.3588C32.4204 29.3569 32.3612 29.355 32.3025 29.355C31.9716 29.3878 31.645 29.4587 31.3188 29.5294L31.2125 29.5525C31.2074 29.5551 31.2022 29.5564 31.197 29.5576C31.1919 29.5589 31.1867 29.5602 31.1815 29.5628C30.9852 29.6148 30.8045 29.6876 30.6237 29.7915L30.603 29.8019C30.5959 29.8114 30.5888 29.8198 30.5822 29.8277C30.5744 29.8369 30.5673 29.8454 30.5617 29.8538C30.4997 29.9266 30.4429 29.989 30.3551 30.0357C30.2254 30.101 30.1133 30.2016 30.003 30.3006C29.9552 30.3435 29.9076 30.3862 29.8592 30.4255C29.8488 30.4359 29.8282 30.4411 29.8127 30.4411C29.6526 30.5969 29.4924 30.7529 29.3271 30.9035C29.3168 30.9139 29.2703 30.9191 29.2341 30.9139C29.2341 30.9139 29.2393 30.9139 29.2393 30.9087L29.2548 30.8776L29.3323 30.7528C29.3478 30.7295 29.362 30.7061 29.3762 30.6827C29.3904 30.6593 29.4046 30.6359 29.4201 30.6125C29.4614 30.5502 29.5028 30.4878 29.5492 30.4307C29.5596 30.4151 29.5596 30.3995 29.5492 30.3891C29.5389 30.3787 29.5234 30.3735 29.5079 30.3735C29.6577 30.228 29.8333 30.1033 30.0141 29.9942V29.989C29.9935 29.9942 29.9625 29.9786 29.978 29.9578C29.9931 29.9387 30.0055 29.9169 30.0171 29.8963L30.0296 29.8746C30.0322 29.8694 30.0335 29.8655 30.0348 29.8616C30.0361 29.8577 30.0374 29.8538 30.04 29.8487C30.0374 29.8435 30.0335 29.8396 30.0296 29.8357C30.0257 29.8318 30.0219 29.8279 30.0193 29.8227L29.988 29.8433C29.9505 29.8678 29.912 29.893 29.8798 29.9214C29.857 29.9411 29.8357 29.968 29.8139 29.9956C29.7665 30.0555 29.7165 30.1189 29.6422 30.1189C29.637 30.1189 29.6112 30.1189 29.5957 30.1137C29.5802 30.1137 29.5699 30.1085 29.5647 30.1033C29.5647 30.1007 29.5647 30.0994 29.5654 30.0987C29.566 30.0981 29.5673 30.0981 29.5699 30.0981C29.5699 30.0981 29.5751 30.0929 29.5751 30.0877C29.5751 30.0877 29.5751 30.0825 29.5802 30.0825C29.5828 30.0773 29.5854 30.0734 29.588 30.0695C29.5905 30.0656 29.5931 30.0617 29.5957 30.0565C29.5983 30.0513 29.6009 30.0474 29.6035 30.0435C29.606 30.0396 29.6086 30.0357 29.6112 30.0305C29.6138 30.0279 29.6151 30.024 29.6164 30.0201C29.6177 30.0162 29.619 30.0123 29.6215 30.0097L29.6274 29.999C29.6325 29.9899 29.6386 29.979 29.6422 29.9682C29.6448 29.963 29.6474 29.9591 29.65 29.9552C29.6525 29.9513 29.6551 29.9474 29.6577 29.9422C29.6655 29.9318 29.6719 29.9201 29.6784 29.9084C29.6848 29.8967 29.6913 29.885 29.699 29.8746C29.7042 29.8642 29.7094 29.8538 29.7197 29.8435C29.7249 29.8331 29.73 29.824 29.7352 29.8149C29.7404 29.8058 29.7455 29.7967 29.7507 29.7863C29.7662 29.7603 29.7507 29.7395 29.73 29.7343C29.7868 29.6616 29.854 29.5992 29.9366 29.5525H29.9263C29.9976 29.5166 30.071 29.4746 30.1438 29.4328C30.1868 29.4082 30.2303 29.3833 30.2724 29.3602C30.2879 29.3446 30.3034 29.329 30.3241 29.3186C30.1536 29.3758 29.9986 29.4537 29.8488 29.5576C29.8488 29.5576 29.8075 29.5732 29.7972 29.5836C29.7972 29.5836 29.7662 29.594 29.7249 29.5576C29.7197 29.5525 29.7197 29.5473 29.7197 29.5369C29.7376 29.5007 29.7747 29.4768 29.8147 29.451C29.8438 29.4322 29.8744 29.4124 29.9005 29.3862C29.9315 29.3862 29.9573 29.3862 29.9573 29.4173C30.5522 28.9508 31.2858 28.8429 32.0218 28.7345C32.4745 28.6679 32.9282 28.6012 33.3511 28.4508C33.395 28.4196 33.4402 28.3897 33.4854 28.3599C33.5306 28.33 33.5758 28.3001 33.6197 28.2689C33.695 28.2376 33.7625 28.1838 33.834 28.127C33.9047 28.0707 33.9792 28.0114 34.0691 27.9675C34.3067 27.7856 34.4875 27.5778 34.5805 27.2712C34.5805 27.24 34.5495 27.2088 34.5495 27.2088C34.1569 27.6298 33.7075 27.9623 33.2271 28.2066C32.769 28.4483 32.2782 28.4841 31.7923 28.5196C31.6097 28.5329 31.4279 28.5462 31.2487 28.5703C31.2797 28.508 31.3417 28.508 31.3985 28.508C31.3985 28.4342 31.4339 28.4024 31.4792 28.3617C31.4913 28.3508 31.5042 28.3392 31.5173 28.3261H31.6051C31.6206 28.3261 31.6284 28.3105 31.6361 28.2949C31.6439 28.2793 31.6516 28.2637 31.6671 28.2637C31.7291 28.2637 31.8169 28.2325 31.7859 28.2325C31.7385 28.1716 31.6697 28.1958 31.5937 28.2224C31.5206 28.248 31.441 28.2759 31.3675 28.2325C31.3948 28.2026 31.403 28.1666 31.4105 28.1338C31.4186 28.0985 31.4258 28.0669 31.4553 28.0507H31.5741C31.5741 27.9883 31.6361 27.9311 31.6361 27.9311C31.9055 27.7692 32.1656 27.6277 32.4209 27.4889C32.5914 27.3962 32.76 27.3045 32.9275 27.2088C32.8936 27.2088 32.8636 27.2228 32.8344 27.2363C32.788 27.2578 32.7438 27.2783 32.6899 27.24C32.7209 27.24 32.7209 27.2179 32.7209 27.1958C32.7209 27.1738 32.7209 27.1517 32.7519 27.1517C32.9457 27.0999 33.1181 27.016 33.2943 26.9303C33.4187 26.8698 33.5449 26.8083 33.6817 26.7567C33.6411 26.7567 33.6035 26.7677 33.5668 26.7783C33.4963 26.7988 33.4293 26.8183 33.3511 26.7567C33.3716 26.7464 33.3882 26.7332 33.4045 26.7202C33.4375 26.694 33.4697 26.6684 33.5319 26.6684V26.5801C33.5319 26.5489 33.5629 26.5489 33.5939 26.5489C33.5629 26.5489 33.5319 26.5177 33.5319 26.5177C33.5483 26.4847 33.5806 26.4779 33.6166 26.4703C33.6486 26.4636 33.6835 26.4563 33.7127 26.4294C33.6817 26.4294 33.6248 26.4294 33.6248 26.3982C33.7127 26.2787 33.8625 26.2475 34.0123 26.2163C33.9968 26.1851 33.9671 26.1851 33.9412 26.1851C33.9154 26.1851 33.8935 26.1851 33.8935 26.1539C33.8935 26.1228 33.9244 26.1228 33.9554 26.1228H33.8935C33.8448 26.0983 33.8534 26.0546 33.8594 26.0244C33.861 26.0161 33.8625 26.0088 33.8625 26.0032C33.9838 25.8602 34.0237 25.6915 34.0634 25.5237C34.0828 25.4415 34.1022 25.3595 34.1311 25.2809C34.1001 25.2809 34.0691 25.2809 34.0691 25.2498C33.7786 25.5722 33.3183 25.6944 32.8809 25.8104L32.8397 25.8214H32.6899C32.5401 25.8837 32.3283 25.8837 32.1785 25.7902C32.1073 25.7528 32.0565 25.7061 32.0016 25.6556C31.9649 25.6219 31.9265 25.5865 31.8789 25.5512C31.6361 25.4005 31.3985 25.2809 31.1299 25.1874C30.3809 24.9484 29.6009 24.8236 28.8209 24.8548C29.0387 24.735 29.27 24.6873 29.5044 24.6391C29.6257 24.6141 29.7479 24.5889 29.8695 24.5534C29.9462 24.5308 30.0222 24.5075 30.0978 24.4843C30.5262 24.353 30.9419 24.2255 31.3985 24.252C31.3387 24.2308 31.2622 24.2385 31.1917 24.2455C31.1587 24.2489 31.1269 24.252 31.0989 24.252C30.7536 24.2263 30.4048 24.3032 30.0409 24.3834C29.9638 24.4004 29.8861 24.4176 29.8075 24.4339C29.665 24.4636 29.5294 24.5062 29.3937 24.5489C29.2441 24.5959 29.0943 24.643 28.9345 24.6729C28.8652 24.6968 28.8096 24.7375 28.7554 24.7772C28.6682 24.841 28.5847 24.902 28.4541 24.886V24.7925C28.7537 24.4287 29.1153 24.0702 29.5957 24.039C30.0601 23.9633 30.4979 24.0172 30.9547 24.0734C31.0314 24.0829 31.1087 24.0924 31.1867 24.1013C31.5611 24.1315 31.9115 24.215 32.289 24.305L32.3283 24.3144C32.4109 24.3144 32.4574 24.3872 32.5024 24.4576C32.539 24.5149 32.5746 24.5706 32.6279 24.5846C32.7014 24.61 32.775 24.6147 32.8485 24.6194C32.9558 24.6263 33.063 24.6332 33.1703 24.7041C33.1703 24.6831 33.1668 24.6627 33.1633 24.6425C33.1564 24.6027 33.1497 24.5636 33.1703 24.5222C33.2369 24.4552 33.3133 24.4732 33.3885 24.4909C33.4474 24.5048 33.5055 24.5184 33.5577 24.4911C33.7215 24.3894 33.5679 24.2333 33.4141 24.0771C33.3399 24.0018 33.2657 23.9264 33.2271 23.8571C33.2271 23.8259 33.2581 23.7947 33.2581 23.7947C33.3259 23.8556 33.3891 23.9185 33.4518 23.9809C33.6086 24.1371 33.762 24.2899 33.9761 24.3975C34.1259 24.4599 34.4875 24.5482 34.4255 24.3664C34.3194 24.1308 34.1382 23.9265 33.9552 23.7203C33.8798 23.6354 33.8041 23.5501 33.7333 23.4622V23.3426C33.6862 23.3426 33.6749 23.3247 33.6609 23.3023C33.6564 23.2953 33.6517 23.2878 33.6455 23.2803V23.1608C33.5698 23.121 33.5528 23.0581 33.5358 22.9947C33.526 22.9587 33.5163 22.9226 33.4957 22.8905C33.4439 22.8066 33.4402 22.7034 33.4364 22.5969C33.4333 22.5122 33.4302 22.4255 33.4027 22.3449C33.3407 22.163 33.3149 22.0123 33.2839 21.8305C33.2503 21.6444 33.2133 21.4665 33.177 21.2923C33.1131 20.9849 33.0516 20.6891 33.0153 20.3806C32.9675 19.9397 33.1901 19.5669 33.4177 19.1857C33.4852 19.0727 33.5531 18.9589 33.6145 18.8425C33.8263 18.4787 34.0639 18.1202 34.4565 17.8759C34.5421 17.5212 34.7752 17.2257 35.0071 16.9317L35.0247 16.9094C35.2536 16.6241 35.6358 16.4497 35.9175 16.3211L35.9493 16.3066C36.3678 16.1195 36.7448 16 36.75 16H16V32H30.7218C31.1155 31.7145 31.5068 31.5344 31.9726 31.32C32.1852 31.2222 32.4132 31.1172 32.6641 30.9919C32.7172 30.9652 32.7803 30.9341 32.8504 30.8996C33.2708 30.6927 33.9407 30.3631 34.1931 30.1137ZM29.5217 27.955C29.4633 27.9609 29.4013 27.9671 29.4247 27.9202C29.4464 27.815 29.5541 27.7835 29.6592 27.7527C29.7043 27.7395 29.7488 27.7265 29.786 27.7078L29.8029 27.699L29.8154 27.6925C29.8736 27.6615 29.9449 27.6236 29.9975 27.6457C30.033 27.6961 30.077 27.7092 30.1198 27.7218C30.1516 27.7313 30.1827 27.7405 30.2091 27.7648C30.0975 27.8768 29.9672 27.8879 29.8351 27.8991C29.7474 27.9065 29.6588 27.9141 29.5744 27.9513C29.5592 27.9513 29.5406 27.9531 29.5217 27.955ZM24.9516 27.2243C24.9516 27.2555 24.9826 27.2866 24.9826 27.2866C25.7058 26.4708 26.3618 25.7745 27.2916 25.1976C27.3165 25.1872 27.3072 25.2002 27.2949 25.2176C27.2766 25.2434 27.2515 25.2787 27.3226 25.26C27.6304 25.1898 27.7687 24.9261 27.9032 24.6695C27.9379 24.6031 27.9725 24.5373 28.0096 24.4753C28.1507 24.2459 28.351 24.0989 28.5529 23.9507C28.6985 23.8439 28.8449 23.7365 28.9704 23.5971C28.9704 23.6283 28.9704 23.6595 28.9394 23.6907C28.9704 23.7218 29.0014 23.7218 29.0324 23.7218C29.0869 23.6807 29.1464 23.6637 29.2034 23.6474C29.2761 23.6266 29.3448 23.607 29.394 23.54C29.1564 23.4464 28.8516 23.4153 28.614 23.5088C27.9838 23.8102 27.4466 24.2935 26.9352 24.8391C26.6253 25.1665 26.305 25.4731 25.9124 25.6861C25.6438 26.2266 25.3442 26.7098 24.9516 27.2243ZM27.4734 25.2916C27.4572 25.3241 27.4411 25.341 27.4256 25.3572C27.4115 25.3719 27.398 25.3861 27.3857 25.4108C27.3547 25.4729 27.3238 25.4988 27.267 25.5299C27.236 25.5299 27.2051 25.5299 27.2051 25.4988C27.236 25.3797 27.3238 25.2606 27.4425 25.2295C27.4734 25.2347 27.4734 25.2657 27.4734 25.2916ZM28.7943 29.9065C28.8202 29.8805 28.8511 29.8493 28.8666 29.8181C28.8924 29.7558 28.7324 29.7713 28.7066 29.7869C28.6832 29.8058 28.6683 29.8247 28.6503 29.8474L28.6447 29.8545C28.6232 29.8793 28.598 29.9022 28.5724 29.9255C28.555 29.9413 28.5375 29.9572 28.5208 29.974C28.4486 30.0468 28.3763 30.1195 28.2989 30.1871C28.2473 30.2338 28.4125 30.2546 28.4486 30.2234C28.4899 30.1923 28.526 30.1559 28.5621 30.1195C28.5759 30.1195 28.5896 30.1172 28.5988 30.1157L28.6051 30.1146L28.6086 30.1143C28.6941 30.0856 28.7578 30.026 28.8197 29.9681L28.8356 29.9532C28.8563 29.9324 28.8305 29.9117 28.7943 29.9065ZM28.3273 29.5685C28.3267 29.5686 28.3263 29.5688 28.326 29.5691C28.3254 29.5697 28.3254 29.571 28.3254 29.5736C28.2937 29.5953 28.2624 29.6175 28.2312 29.6396C28.1505 29.6967 28.0702 29.7535 27.9845 29.8023C27.9025 29.8484 27.8185 29.8883 27.7337 29.9286C27.6849 29.9517 27.6358 29.975 27.5867 29.9997C27.5867 29.9997 27.5867 29.9945 27.5816 29.9945C27.5712 29.9789 27.5506 29.9737 27.5299 29.9841C27.4163 30.0465 27.3181 30.1296 27.2303 30.218C27.2148 30.2284 27.1993 30.244 27.189 30.2596L27.1425 30.3063V30.3115C27.1218 30.3323 27.1012 30.3531 27.0753 30.3843C27.07 30.3897 27.0658 30.3951 27.0619 30.4003C27.0544 30.41 27.0475 30.4191 27.034 30.4258C27.0133 30.4362 26.9617 30.4362 26.9669 30.4051V30.3999C26.9514 30.4103 26.9307 30.4206 26.9152 30.4258C26.9075 30.431 26.8997 30.4349 26.892 30.4388C26.8842 30.4427 26.8765 30.4466 26.8687 30.4518C26.8635 30.4466 26.8532 30.4466 26.848 30.4466C26.8429 30.4466 26.8326 30.4466 26.8274 30.4518C26.8153 30.4622 26.8033 30.472 26.7912 30.4818C26.7671 30.5015 26.743 30.5211 26.7189 30.5454C26.6569 30.6025 26.6001 30.6649 26.5433 30.7324C26.5433 30.7324 26.5433 30.7376 26.5381 30.7376C26.5381 30.7402 26.5368 30.7415 26.5355 30.7428C26.5342 30.7441 26.5329 30.7454 26.5329 30.748L26.5226 30.7584C26.5206 30.7604 26.5194 30.7624 26.5184 30.7641C26.5167 30.7668 26.5155 30.7688 26.5123 30.7688L26.5071 30.774C26.502 30.7844 26.4968 30.7948 26.4865 30.8052C26.4813 30.8104 26.471 30.8156 26.4606 30.8156C26.4555 30.8104 26.4503 30.8052 26.4503 30.8C26.4477 30.7974 26.4464 30.7948 26.4451 30.7922C26.4438 30.7896 26.4426 30.787 26.44 30.7844C26.4348 30.7766 26.4309 30.7688 26.4271 30.761C26.4232 30.7532 26.4193 30.7454 26.4141 30.7376V30.7324C26.4141 30.7298 26.4128 30.7272 26.4116 30.7246C26.4103 30.722 26.409 30.7194 26.409 30.7168L26.502 30.6077L26.5071 30.6025C26.5123 30.5973 26.5174 30.5908 26.5226 30.5844C26.5278 30.5779 26.5329 30.5713 26.5381 30.5661C26.5459 30.5558 26.5549 30.5454 26.5639 30.535C26.573 30.5246 26.582 30.5142 26.5898 30.5038C26.5924 30.4986 26.5949 30.4947 26.5975 30.4908C26.6001 30.4869 26.6027 30.483 26.6053 30.4778C26.6363 30.4362 26.6673 30.3947 26.6982 30.3479V30.3427C26.7034 30.3375 26.7086 30.3323 26.7086 30.3219C26.7241 30.3011 26.7396 30.2803 26.7499 30.2596L26.7809 30.1972V30.192L26.7861 30.1868C26.7861 30.1842 26.7874 30.1829 26.7886 30.1816C26.7899 30.1803 26.7912 30.179 26.7912 30.1764C26.7964 30.1634 26.8016 30.1517 26.8067 30.1401C26.8119 30.1284 26.8171 30.1166 26.8222 30.1037V30.0985L26.8274 30.0777C26.83 30.0725 26.8313 30.0673 26.8326 30.0621C26.8338 30.0569 26.8351 30.0517 26.8377 30.0465V30.0413C26.8403 30.0335 26.8416 30.0257 26.8429 30.0179C26.8442 30.0101 26.8455 30.0023 26.848 29.9945C26.848 29.9893 26.848 29.9789 26.8429 29.9737C26.8739 29.9166 26.9152 29.8646 26.9617 29.8127C26.9591 29.8127 26.9565 29.814 26.9539 29.8153C26.9525 29.816 26.951 29.8167 26.9495 29.8172C26.9484 29.8176 26.9473 29.8179 26.9462 29.8179C26.9232 29.8323 26.9034 29.8516 26.8833 29.8712C26.8672 29.8869 26.8509 29.9028 26.8326 29.9166C26.8016 29.9426 26.7396 29.901 26.7809 29.8698C26.8067 29.849 26.8274 29.8283 26.848 29.8075C26.848 29.8075 26.848 29.8023 26.8532 29.8023C26.8738 29.7836 26.8936 29.7625 26.9135 29.7412C26.9436 29.7091 26.974 29.6766 27.0082 29.6516C27.0443 29.6256 27.0702 29.6048 27.1012 29.5788C27.1063 29.5736 27.1115 29.5684 27.1167 29.5684C27.1373 29.5424 27.158 29.5165 27.1838 29.4905C27.1838 29.4905 27.189 29.4905 27.189 29.4853C27.3664 29.3132 27.6156 29.2525 27.8701 29.1906C28.0305 29.1515 28.193 29.1119 28.3409 29.0436C28.4244 29.0088 28.5175 29.0225 28.6096 29.036C28.6826 29.0467 28.755 29.0574 28.8213 29.0436C28.9091 29.0436 29.0021 29.0436 29.0899 29.1059C28.8856 29.2147 28.6907 29.3391 28.4979 29.4622C28.442 29.4978 28.3862 29.5334 28.3306 29.5684C28.3291 29.5684 28.3281 29.5684 28.3273 29.5685ZM28.9728 27.4506C28.9486 27.4534 28.933 27.4552 28.9464 27.4687C29.0342 27.557 29.215 27.5258 29.339 27.4583C29.4268 27.3959 29.5198 27.3959 29.6386 27.3959C29.6696 27.3959 29.6696 27.3388 29.6696 27.3076C29.7574 27.3388 29.8194 27.3388 29.9072 27.3388C30.6252 27.1881 31.3174 27.0374 31.9786 26.7048C31.3096 26.1878 30.4848 25.9575 29.6769 25.7319C29.5429 25.6945 29.4093 25.6572 29.277 25.6187C29.3061 25.6187 29.3352 25.6284 29.3644 25.6382C29.4235 25.6579 29.4834 25.6778 29.5456 25.6187C29.4636 25.5533 29.3724 25.5408 29.282 25.5284C29.2072 25.5182 29.133 25.508 29.0652 25.468C29.0723 25.468 29.0807 25.4696 29.0899 25.4714C29.1208 25.4774 29.1601 25.485 29.184 25.4368C29.0271 25.3579 28.8702 25.3311 28.7118 25.304C28.6303 25.2901 28.5485 25.2761 28.466 25.255C28.6158 25.2238 28.7088 25.1043 28.7088 24.9536C28.7088 24.9224 28.6468 24.9224 28.6158 24.9224C28.2594 25.1043 28.0166 25.4368 27.8668 25.8266C28.0019 25.9061 28.1474 25.8969 28.2901 25.8879C28.3711 25.8827 28.4513 25.8776 28.528 25.8889C28.4603 25.9533 28.3624 25.9708 28.2683 25.9876C28.2332 25.9938 28.1987 26 28.1664 26.0085C28.0734 26.0292 27.9856 26.0968 28.0166 26.1592C28.0373 26.1851 28.0579 26.1955 28.0838 26.2007C28.0166 26.2215 27.9546 26.2527 27.8978 26.3099C27.9828 26.3768 28.0705 26.3639 28.1571 26.3511C28.1914 26.3461 28.2256 26.341 28.2594 26.341C28.2594 26.3788 28.2842 26.3916 28.3099 26.4049C28.3232 26.4118 28.3367 26.4188 28.3472 26.4294C28.1974 26.4865 28.0786 26.6112 28.0476 26.6996C28.0106 26.7896 27.9422 26.8481 27.8744 26.9061C27.8288 26.9452 27.7834 26.984 27.748 27.0322V27.1257C27.6482 27.2142 27.5456 27.2932 27.4445 27.3711C27.2367 27.5312 27.0348 27.6867 26.875 27.9104C26.906 27.9104 26.906 27.9416 26.906 27.9727C26.8774 28.0159 26.8368 28.0457 26.7982 28.0741C26.7531 28.1072 26.7109 28.1382 26.6942 28.1858C26.6942 28.217 26.6942 28.2481 26.7252 28.2481C26.9148 28.1855 27.0788 28.08 27.2395 27.9766C27.3855 27.8827 27.5287 27.7906 27.686 27.7337C27.8146 27.7028 27.9265 27.6445 28.0357 27.5876C28.1283 27.5393 28.219 27.4921 28.3162 27.4635C28.3911 27.4479 28.4738 27.4258 28.5564 27.4037C28.6391 27.3816 28.7217 27.3595 28.7966 27.344C28.7966 27.3751 28.7966 27.4063 28.8276 27.4063H29.0652C29.0506 27.4416 29.0044 27.4469 28.9728 27.4506Z" fill="#000091"/>
<path d="M60.0003 16H42.7928C42.7928 16 42.8241 16.0052 42.9541 16.0728C43.0945 16.1456 43.2766 16.2445 43.3858 16.3017C43.6095 16.4161 43.8228 16.5618 43.9632 16.7854C44.0257 16.8739 44.1141 17.0559 44.0569 17.1756C43.9945 17.3264 43.9632 17.5709 43.8124 17.6281C43.6303 17.7217 43.391 17.7217 43.1778 17.6905C43.0581 17.6905 42.9385 17.6593 42.8137 17.6281C43.2662 17.8101 43.6927 18.0234 43.9945 18.4447C44.0257 18.5072 44.1453 18.5332 44.2649 18.5332C44.2962 18.5332 44.2962 18.5956 44.2962 18.6216C44.2337 18.684 44.1765 18.7152 44.2077 18.8036H44.2962C44.447 18.7412 44.4158 18.4395 44.6291 18.5332C44.7799 18.6216 44.8423 18.8349 44.7487 18.9857C44.6291 19.1053 44.5094 19.199 44.3846 19.2874C44.3534 19.3498 44.3534 19.4382 44.3846 19.5007C44.473 19.6203 44.5042 19.7399 44.5354 19.8648C44.6291 20.078 44.6551 20.3173 44.7487 20.5306C44.8684 20.9831 44.988 21.4356 44.962 21.8934C44.962 22.1326 44.8423 22.3459 44.9308 22.5904C44.9932 22.8296 45.144 23.0117 45.2637 23.225C45.3833 23.407 45.503 23.5267 45.5966 23.7087C45.7787 24.0104 46.1116 24.3121 45.9607 24.6762C45.8723 24.8895 45.5394 24.8583 45.3261 24.9779C45.144 25.1287 45.2949 25.3732 45.3885 25.5241C45.5394 25.7945 45.2065 25.9766 44.9932 26.0702C45.0556 26.1638 45.1753 26.1326 45.2065 26.1899C45.2377 26.3407 45.3885 26.4291 45.2949 26.5852C45.1753 26.7672 44.8111 26.8557 44.9932 27.1313C45.1128 27.3446 45.0348 27.5787 44.962 27.7971C44.8736 28.0676 44.6291 28.1873 44.4158 28.2497C44.2337 28.3121 44.0205 28.3121 43.8436 28.2809C43.7812 28.2497 43.724 28.2185 43.6615 28.2185C43.1466 28.156 42.6316 28.0104 42.1218 28.0104C41.971 28.0416 41.8201 28.0676 41.7005 28.13C41.5652 28.2289 41.4404 28.3381 41.3363 28.4525C41.3363 28.4525 41.3363 28.4525 41.3311 28.4577C41.3103 28.4837 41.2843 28.5046 41.2635 28.5306C41.2531 28.5462 41.2375 28.5618 41.2271 28.5774C41.2167 28.5878 41.2115 28.5982 41.2011 28.6086C41.1127 28.7178 41.0346 28.8375 40.9618 28.9571C40.9566 28.9675 40.9514 28.9727 40.9462 28.9779C40.941 28.9935 40.9306 29.0039 40.9202 29.0195C40.8214 29.2016 40.7485 29.3888 40.6913 29.5761C40.4833 30.2679 40.5769 30.8609 40.7225 31.0065C40.7642 31.0481 41.7213 31.3446 42.3871 31.6411C42.6992 31.7815 42.9177 31.8856 43.0997 32H59.9951V16H60.0003Z" fill="#E1000F"/>
<path d="M43.8134 21.8422C43.9334 21.8732 44.1158 21.8732 44.1158 21.9352C44.0533 22.173 43.6935 22.235 43.511 22.4779H43.4172C43.3285 22.54 43.3546 22.6899 43.266 22.6899C43.1773 22.6588 43.0835 22.6899 42.9949 22.7209C43.1148 22.8398 43.266 22.9328 43.4485 22.9018C43.4797 22.9018 43.5371 22.9638 43.5371 23.0207C43.5371 23.0207 43.5684 23.0207 43.5997 22.9897C43.6309 22.9897 43.6622 22.9897 43.6622 23.0207V23.1396C43.5736 23.2584 43.4172 23.2016 43.2973 23.2274C43.5423 23.2895 43.7822 23.2895 43.9959 23.2274C44.1784 23.1654 43.9959 22.8656 44.1158 22.7157C44.0533 22.7157 44.1158 22.6227 44.0533 22.6227C44.1158 22.5606 44.1732 22.4728 44.2358 22.4417C44.2983 22.4417 44.387 22.4107 44.4182 22.3487C44.4182 22.2867 44.2983 22.2608 44.3244 22.1988C44.5069 22.0799 44.6581 21.899 44.5955 21.7181C44.5642 21.6251 44.3244 21.6251 44.1732 21.5682C44.022 21.5113 43.8395 21.5682 43.657 21.5992C43.5058 21.5992 43.3546 21.6923 43.2034 21.7181C42.9896 21.7801 42.8072 21.899 42.6299 22.0179C42.8437 21.93 43.0522 21.899 43.2973 21.837C43.4797 21.8422 43.6309 21.8008 43.8134 21.8422Z" fill="#808080"/>
<path d="M17.648 53H19.92V48.472H21.088L24.08 53H26.752L23.248 48.04C24.4 47.512 25.056 46.504 25.056 45.144C25.056 43.064 23.536 41.8 21.072 41.8H17.648V53ZM21.2 43.688C22.16 43.688 22.72 44.264 22.72 45.112C22.72 46.024 22.16 46.584 21.2 46.584H19.92V43.688H21.2ZM32.7031 40.84L34.7831 38.68H32.4471L30.6391 40.84H32.7031ZM28.4311 53H34.9591V51.112H30.7031V48.232H34.3191V46.344H30.7031V43.688H34.9591V41.8H28.4311V53ZM37.8392 53H40.1112V48.472H41.5353C43.9993 48.472 45.5033 47.208 45.5033 45.144C45.5033 43.064 43.9993 41.8 41.5353 41.8H37.8392V53ZM41.6312 43.688C42.5912 43.688 43.1673 44.264 43.1673 45.112C43.1673 46.024 42.5912 46.584 41.6312 46.584H40.1112V43.688H41.6312ZM54.2274 48.808C54.2274 50.312 53.3634 51.192 51.9714 51.192C50.5474 51.192 49.6994 50.312 49.6994 48.808V41.8H47.4274V48.616C47.4274 51.56 49.1554 53.32 51.9554 53.32C54.7714 53.32 56.4994 51.56 56.4994 48.616V41.8H54.2274V48.808ZM59.5617 53H63.0977C65.6737 53 67.2578 51.752 67.2578 49.704C67.2578 48.536 66.6018 47.576 65.4177 47.048C66.2017 46.536 66.6178 45.752 66.6178 44.84C66.6178 42.952 65.1937 41.8 62.8577 41.8H59.5617V53ZM62.9057 43.688C63.7698 43.688 64.2818 44.152 64.2818 44.936C64.2818 45.752 63.7698 46.216 62.9057 46.216H61.8337V43.688H62.9057ZM63.2257 48.104C64.2818 48.104 64.9218 48.648 64.9218 49.608C64.9218 50.552 64.2818 51.112 63.2257 51.112H61.8337V48.104H63.2257ZM69.8293 53H76.3573V50.936H72.1013V41.8H69.8293V53ZM78.5967 53H80.8687V41.8H78.5967V53ZM93.6312 52.712L92.9592 52.072C94.3352 50.984 95.1672 49.272 95.1672 47.4C95.1672 44.2 92.7512 41.48 89.2312 41.48C85.6952 41.48 83.2792 44.2 83.2792 47.4C83.2792 50.6 85.6952 53.32 89.2312 53.32C89.7752 53.32 90.2872 53.256 90.7672 53.128L92.0952 54.312C93.1992 55.272 94.3512 55.784 95.5992 55.784C96.0952 55.784 96.4152 55.72 96.7832 55.576V53.656C96.5432 53.752 96.2232 53.784 95.9832 53.784C95.2632 53.784 94.4952 53.496 93.6312 52.712ZM89.2312 51.192C87.1192 51.192 85.6152 49.544 85.6152 47.4C85.6152 45.256 87.1192 43.608 89.2312 43.608C91.3272 43.608 92.8312 45.256 92.8312 47.4C92.8312 49.544 91.3272 51.192 89.2312 51.192ZM104.19 48.808C104.19 50.312 103.326 51.192 101.934 51.192C100.51 51.192 99.6619 50.312 99.6619 48.808V41.8H97.3899V48.616C97.3899 51.56 99.1179 53.32 101.918 53.32C104.734 53.32 106.462 51.56 106.462 48.616V41.8H104.19V48.808ZM109.524 53H116.052V51.112H111.796V48.232H115.412V46.344H111.796V43.688H116.052V41.8H109.524V53ZM17.648 69H19.92V64.232H23.536V62.344H19.92V59.688H24.176V57.8H17.648V69ZM26.4155 69H28.6875V64.472H29.8555L32.8475 69H35.5195L32.0155 64.04C33.1675 63.512 33.8235 62.504 33.8235 61.144C33.8235 59.064 32.3035 57.8 29.8395 57.8H26.4155V69ZM29.9675 59.688C30.9275 59.688 31.4875 60.264 31.4875 61.112C31.4875 62.024 30.9275 62.584 29.9675 62.584H28.6875V59.688H29.9675ZM36.275 69H38.691L39.763 66.088H44.243L45.315 69H47.731L43.491 57.8H40.515L36.275 69ZM40.467 64.152L42.003 59.944L43.539 64.152H40.467ZM49.7005 69H51.9725V60.904L56.9805 69H59.8925V57.8H57.6205V65.896L52.6125 57.8H49.7005V69ZM68.2569 67.192C66.1449 67.192 64.6409 65.544 64.6409 63.4C64.6409 61.256 66.1449 59.608 68.2569 59.608C69.5369 59.608 70.5449 60.232 71.1849 61.144L72.9769 59.752C71.9529 58.392 70.2889 57.48 68.2569 57.48C64.7209 57.48 62.3049 60.2 62.3049 63.4C62.3049 66.248 64.2249 68.712 67.1369 69.224L65.7289 71.576H67.7449L69.1369 69.256C70.7689 69.048 72.1129 68.216 72.9769 67.032L71.1849 65.656C70.5449 66.568 69.5369 67.192 68.2569 67.192ZM73.7025 69H76.1185L77.1905 66.088H81.6705L82.7425 69H85.1585L80.9185 57.8H77.9425L73.7025 69ZM77.8945 64.152L79.4305 59.944L80.9665 64.152H77.8945ZM87.128 69H89.4V57.8H87.128V69ZM91.7625 67.448C92.7545 68.632 94.0185 69.32 95.9065 69.32C97.9705 69.32 99.6025 68.056 99.6345 65.944C99.6345 62.104 94.5465 62.68 94.5465 60.648C94.5465 59.976 95.0745 59.464 95.8745 59.464C96.7225 59.464 97.4585 60.024 98.1145 60.872L99.7785 59.368C98.8185 58.232 97.5385 57.48 95.8585 57.48C93.7145 57.48 92.2425 58.952 92.2425 60.728C92.2425 64.52 97.3305 63.96 97.3305 66.024C97.3305 66.824 96.7865 67.304 95.8905 67.304C94.9785 67.304 94.0825 66.792 93.4105 65.928L91.7625 67.448ZM102.257 69H108.785V67.112H104.529V64.232H108.145V62.344H104.529V59.688H108.785V57.8H102.257V69Z" fill="#161616"/>
<path fill-rule="evenodd" clip-rule="evenodd" d="M57.57 98.162L56.0819 99.5219H55.6979L56.5779 97.97H57.57V98.162ZM56.498 103.425H56.1779C55.7779 103.905 55.3299 104.289 54.8979 104.289C54.4498 104.289 54.2258 104.017 54.2258 103.425C54.2258 103.185 54.2578 102.929 54.3058 102.705L56.914 101.841C57.426 100.625 56.818 100.097 56.0979 100.097C54.8659 100.097 53.4578 102.257 53.4578 103.985C53.4578 104.801 53.8418 105.249 54.4498 105.249C55.1539 105.233 55.8899 104.545 56.498 103.425ZM55.6029 100.802C55.9549 100.802 56.2589 101.074 56.0989 101.698L54.4828 102.13C54.7388 101.362 55.2189 100.802 55.6029 100.802ZM50.5153 100.833H51.3794L50.0033 104.609C49.8753 104.929 50.0513 105.249 50.3873 105.249C51.3634 105.249 52.5314 104.417 52.9795 103.233H52.7395C52.3874 103.729 51.6194 104.273 51.0434 104.369L52.3074 100.833H53.6035L53.7635 100.289H52.4994L52.9795 98.9295H52.4834L51.5874 100.289L50.5153 100.433V100.833ZM49.3144 100.114C49.4904 100.114 49.7304 100.306 49.6184 100.658L48.0663 104.418C48.4663 104.354 48.8823 103.97 49.1223 103.618H49.3784C49.0103 104.562 48.1783 105.25 47.4582 105.25C47.2822 105.25 47.0262 105.058 47.1542 104.706L48.5943 100.946C48.1943 101.01 47.7783 101.394 47.5382 101.746H47.2982C47.6663 100.786 48.5623 100.114 49.3144 100.114ZM49.7635 99.1539C50.0835 99.1539 50.3555 98.8979 50.3555 98.562C50.3555 98.242 50.0835 97.97 49.7635 97.97C49.4274 97.97 49.1714 98.242 49.1714 98.562C49.1714 98.8819 49.4434 99.1539 49.7635 99.1539ZM42.7708 102.274C43.1228 101.506 42.9948 101.154 42.7708 101.154C42.5788 101.154 42.3547 101.362 42.1307 101.746H41.8907C42.2587 100.93 42.7388 100.114 43.2668 100.114C43.7148 100.114 43.8748 100.562 43.8748 101.058V101.762C43.9469 101.678 44.017 101.596 44.0855 101.516L44.0867 101.514L44.0877 101.513C44.7637 100.72 45.2799 100.114 45.875 100.114C46.339 100.114 46.579 100.402 46.579 100.834C46.579 101.09 46.499 101.41 46.323 101.746L44.9949 104.418C45.3949 104.354 45.811 103.97 46.051 103.618H46.291C45.923 104.578 45.0269 105.25 44.2749 105.25C43.9388 105.25 43.7468 104.898 43.8908 104.61L45.4269 101.65C45.603 101.314 45.635 101.09 45.3629 101.09C44.9949 101.09 44.1309 101.698 43.6668 102.258L42.6588 104.914C42.5468 105.186 42.4348 105.25 42.1787 105.25C41.7627 105.25 41.5547 104.978 41.7467 104.546L42.7708 102.274ZM41.7295 101.249C41.9055 100.641 41.8095 100.097 41.3455 100.097C40.7668 100.097 40.5856 100.48 40.0248 101.662L39.9854 101.745V101.041C39.9854 100.545 39.8254 100.097 39.3774 100.097C38.8493 100.097 38.3693 100.913 38.0013 101.729H38.2413C38.4973 101.361 38.7373 101.137 38.9293 101.137C39.1534 101.137 39.2814 101.489 38.9293 102.257L37.9053 104.529C37.7133 104.961 37.9213 105.233 38.3373 105.233C38.5933 105.233 38.7053 105.169 38.8173 104.897L39.8254 102.241C40.1134 101.889 40.3694 101.585 40.6895 101.249H41.7295ZM36.6736 101.698C36.8336 101.074 36.5296 100.802 36.1775 100.802C35.7935 100.802 35.3135 101.362 35.0575 102.13L36.6736 101.698ZM37.0726 103.425H36.7526C36.3526 103.905 35.9045 104.289 35.4725 104.289C35.0245 104.289 34.8005 104.017 34.8005 103.425C34.8005 103.185 34.8325 102.929 34.8805 102.705L37.4886 101.841C38.0007 100.625 37.3926 100.097 36.6726 100.097C35.4405 100.097 34.0324 102.257 34.0324 103.985C34.0324 104.801 34.4164 105.249 35.0245 105.249C35.7285 105.233 36.4646 104.545 37.0726 103.425ZM31.954 100.833H31.09V100.433L32.162 100.289L33.0581 98.9295H33.5541L33.0741 100.289H34.3382L34.1782 100.833H32.8821L31.618 104.369C32.194 104.273 32.9621 103.729 33.3141 103.233H33.5541C33.1061 104.417 31.938 105.249 30.9619 105.249C30.6259 105.249 30.4499 104.929 30.5779 104.609L31.954 100.833ZM26.5145 103.762C26.5145 102.594 27.8105 101.026 28.5306 101.026C28.6906 101.026 28.8506 101.042 28.9786 101.09L28.2266 103.106C27.7945 103.634 27.1225 104.274 26.8025 104.274C26.6265 104.274 26.5145 104.114 26.5145 103.762ZM30.0831 99.8578L30.4831 99.8898L29.091 103.09C28.755 103.858 28.899 104.21 29.091 104.21C29.283 104.21 29.5231 103.986 29.7791 103.618H30.0191C29.6511 104.434 29.171 105.249 28.643 105.249C28.195 105.249 27.923 104.77 28.003 103.906L28.035 103.602L27.9478 103.723C27.3746 104.525 26.856 105.249 26.3228 105.249C25.8588 105.249 25.6188 104.962 25.6188 104.53C25.6188 102.674 27.6509 100.306 29.5551 100.306H29.6351L30.0831 99.8578ZM26.4179 101.249C26.5939 100.641 26.4979 100.097 26.0338 100.097C25.4551 100.097 25.2739 100.48 24.7131 101.662L24.6737 101.745V101.041C24.6737 100.545 24.5137 100.097 24.0657 100.097C23.5377 100.097 23.0576 100.913 22.6896 101.729H22.9296C23.1856 101.361 23.4257 101.137 23.6017 101.137C23.8257 101.137 23.9537 101.489 23.6017 102.257L22.5776 104.545C22.3856 104.977 22.5936 105.249 23.0096 105.249C23.2657 105.249 23.3777 105.185 23.4897 104.913L24.4977 102.257C24.7858 101.905 25.0418 101.601 25.3618 101.265H26.4179V101.249ZM19.8242 104.768L19.7282 105.056H16L16.096 104.752C17.2481 104.544 17.4401 104.448 17.9201 103.152L18.9602 100.368C19.4242 99.0725 19.3282 98.9765 18.3201 98.7685L18.4162 98.4805H23.2645L22.9765 100.032H22.6244C22.6244 99.1045 22.5284 98.8645 21.6484 98.8645H21.4244C20.5603 98.8645 20.4483 98.9925 20.2083 99.6644L19.5202 101.536H20.5283C21.2003 101.536 21.4564 101.12 21.7604 100.576H22.1124L21.2803 102.848H20.9283C21.0083 102.16 21.0083 101.888 20.3843 101.888H19.3762L18.9122 103.168C18.4106 104.5 18.5539 104.528 19.7484 104.754C19.7732 104.758 19.7985 104.763 19.8242 104.768Z" fill="black"/>
<path fill-rule="evenodd" clip-rule="evenodd" d="M22.9922 85.922L21.5041 86.9942V87.0102H21.1201L22.0002 85.73H22.9922V85.922ZM33.3943 93.4273L35.7785 87.0901L35.6985 86.9941L34.0504 87.1861V87.3782L34.3704 87.6182C34.6436 87.8307 34.5713 88.0289 34.3446 88.6497L34.3064 88.7544L32.4823 93.6193C32.3383 93.9074 32.5303 94.2594 32.8663 94.2594C33.6183 94.2594 34.4184 93.5713 34.7864 92.6271H34.5464C34.2904 92.9792 33.7784 93.3633 33.3943 93.4273ZM44.3219 88.5464L45.81 87.1861V86.9941H44.8179L43.9379 88.5464H44.3219ZM44.4169 92.4351H44.7369C44.1448 93.5713 43.4088 94.2594 42.7048 94.2594C42.0967 94.2594 41.7127 93.8113 41.7127 92.9952C41.7127 91.2669 43.1208 89.1065 44.3529 89.1065C45.0569 89.1065 45.6809 89.6346 45.1689 90.8508L42.5447 91.7149C42.4967 91.939 42.4647 92.195 42.4647 92.4351C42.4647 93.0272 42.6888 93.2992 43.1368 93.2992C43.5688 93.2992 44.0168 92.9152 44.4169 92.4351ZM44.3361 90.7068C44.4961 90.0987 44.1921 89.8267 43.8401 89.8267C43.472 89.8267 42.992 90.3868 42.72 91.1389L44.3361 90.7068ZM39.6318 89.8583H38.7677V89.4582L39.8398 89.3142L40.7358 87.9539H41.2319L40.7518 89.3142H42.0159L41.8559 89.8583H40.5598L39.2957 93.3949C39.8718 93.2989 40.6398 92.7548 40.9919 92.2587H41.2319C40.7838 93.4429 39.6158 94.2751 38.6397 94.2751C38.3037 94.2751 38.1277 93.955 38.2557 93.6349L39.6318 89.8583ZM37.8715 89.6662C37.9676 89.3141 37.7435 89.1221 37.5515 89.1221C36.7995 89.1221 35.9034 89.8102 35.5354 90.7544H35.7754C36.0154 90.4023 36.4315 90.0183 36.8315 89.9542L35.3914 93.7149C35.2634 94.067 35.5194 94.259 35.6954 94.259C36.4155 94.259 37.2475 93.5709 37.6155 92.6267H37.3755C37.1355 92.9788 36.7195 93.3629 36.3195 93.4269L37.8715 89.6662ZM38.6088 87.5862C38.6088 87.9063 38.3368 88.1783 38.0167 88.1783C37.6967 88.1783 37.4247 87.9063 37.4247 87.5862C37.4247 87.2662 37.6807 86.9941 38.0167 86.9941C38.3368 86.9941 38.6088 87.2662 38.6088 87.5862ZM30.5299 90.0506C29.8099 90.0506 28.5138 91.6189 28.5138 92.7871C28.5138 93.1392 28.6258 93.2992 28.8178 93.2992C29.1219 93.2992 29.7939 92.6591 30.2259 92.131L30.978 90.1147C30.834 90.0667 30.69 90.0506 30.5299 90.0506ZM32.4825 88.9145L32.0824 88.8825L31.6344 89.3306H31.5544C29.6503 89.3306 27.6182 91.699 27.6182 93.5553C27.6182 93.9874 27.8582 94.2754 28.3222 94.2754C28.8554 94.2754 29.374 93.5503 29.9472 92.7489L30.0343 92.6271L30.0023 92.9312C29.9223 93.7954 30.1943 94.2754 30.6424 94.2754C31.1704 94.2754 31.6504 93.4593 32.0184 92.6431H31.7784C31.5224 93.0112 31.2824 93.2353 31.0904 93.2353C30.8984 93.2353 30.7544 92.8832 31.0904 92.1151L32.4825 88.9145ZM24.4171 94.0996C23.729 94.3716 23.249 94.6917 23.249 95.1878C23.249 95.6518 23.681 95.8439 24.5771 95.8439C25.7771 95.8439 26.4332 95.4918 26.4332 95.0277C26.4332 94.8197 26.1612 94.7237 25.4411 94.4836C24.9771 94.3396 24.6411 94.2116 24.4171 94.0996ZM25.2161 92.1311C24.896 92.1311 24.784 91.8591 24.784 91.571C24.784 90.6429 25.2321 89.4907 25.9521 89.4907C26.2721 89.4907 26.3841 89.7627 26.3841 90.0508C26.3681 90.9949 25.9201 92.1311 25.2161 92.1311ZM25.8257 93.6353C26.7058 93.9073 27.2498 94.1154 27.2498 94.7235C27.2498 95.5076 25.8097 96.4358 24.0656 96.4198C23.0575 96.4198 22.1935 96.1477 22.1935 95.4916C22.1935 94.8675 22.7695 94.3554 24.1776 93.9393C23.9856 93.8113 23.9056 93.6513 23.9056 93.4272C23.9056 93.0432 24.2576 92.7391 24.8656 92.4511C24.2736 92.3711 23.8896 91.923 23.8896 91.2669C23.8896 90.2587 24.7216 89.1065 26.0337 89.1065C26.3057 89.1065 26.5458 89.1705 26.7378 89.2985H28.1779L28.0178 89.8426H27.1698C27.2178 89.9866 27.2498 90.1467 27.2498 90.3227C27.2498 91.2989 26.4657 92.4191 25.2177 92.4831C24.8976 92.6591 24.7376 92.8992 24.7376 93.0912C24.7376 93.3172 24.9994 93.3936 25.5779 93.5624C25.6548 93.5849 25.7374 93.609 25.8257 93.6353ZM20.7523 90.8989C21.3763 90.8989 21.3923 91.171 21.2963 91.8591H21.6484L22.4804 89.5867H22.1284C21.8244 90.1308 21.5684 90.5468 20.8963 90.5468H19.5202L20.1923 88.6745C20.4323 88.0024 20.5443 87.8744 21.4083 87.8744H22.0164C22.8964 87.8744 22.9924 88.1144 22.9924 89.0426H23.3445L23.6325 87.4903H18.4162L18.3201 87.7783C19.3282 87.9864 19.4242 88.0824 18.9602 89.3786L17.9201 92.1791C17.4401 93.4754 17.2481 93.5714 16.08 93.7794L16 94.0835H21.7924L22.8324 92.4352H22.4324C21.7604 93.0913 21.0883 93.6994 19.7762 93.6994C18.333 93.6994 18.3588 93.6288 18.7918 92.4391C18.8196 92.3625 18.8492 92.2813 18.8802 92.1951L19.3602 90.9149H20.7523V90.8989Z" fill="black"/>
<path fill-rule="evenodd" clip-rule="evenodd" d="M25.5339 77.1846C25.8539 77.1846 26.1259 76.9124 26.1259 76.5923C26.1259 76.2721 25.8539 76 25.5339 76C25.198 76 24.942 76.2721 24.942 76.5923C24.942 76.9284 25.198 77.1846 25.5339 77.1846ZM30.2713 79.2011C30.2713 78.4327 30.0793 78.1446 29.5353 78.1446C28.8634 78.1446 28.2394 78.8649 27.6155 79.7293L28.9594 76.1276L28.8794 76.0156L27.2315 76.2077V76.3998L27.5515 76.6399C27.8301 76.8567 27.7493 77.0735 27.512 77.7106L27.4875 77.7764L26.0316 81.5862C25.9036 81.9064 25.7596 82.2905 25.7596 82.3866C25.7596 82.8348 26.3676 83.267 26.9275 83.267C28.1754 83.283 30.2713 80.9779 30.2713 79.2011ZM44.1421 77.5683L45.63 76.2077V76.0156H44.6381L43.7582 77.5683H44.1421ZM44.2385 81.4582H44.5585C43.9505 82.5947 43.2146 83.283 42.5106 83.267C41.9027 83.267 41.5187 82.8348 41.5187 82.0184C41.5187 80.2896 42.9266 78.1286 44.1585 78.1286C44.8624 78.1286 45.4864 78.6569 44.9744 79.8734L42.3666 80.7378C42.3186 80.9619 42.2866 81.2181 42.2866 81.4582C42.2866 82.0505 42.5106 82.3226 42.9586 82.3226C43.3905 82.3226 43.8385 81.9384 44.2385 81.4582ZM44.1569 79.7294C44.3169 79.1211 44.0129 78.849 43.661 78.849C43.277 78.849 42.7971 79.4093 42.5411 80.1616L44.1569 79.7294ZM39.4355 78.8819H38.5716V78.4817L39.6435 78.3377L40.5394 76.977H41.0354L40.5554 78.3377H41.8193L41.6594 78.8819H40.3635L39.0996 82.4196C39.6755 82.3235 40.4435 81.7793 40.7954 81.2831H41.0354C40.5874 82.4676 39.4195 83.3 38.4436 83.3C38.1076 83.3 37.9317 82.9798 38.0596 82.6597L39.4355 78.8819ZM38.1267 79.2981C38.3027 78.6898 38.2067 78.1455 37.7427 78.1455C37.1641 78.1455 36.9829 78.5279 36.4222 79.7112L36.3828 79.7943V79.09C36.3828 78.5938 36.2228 78.1455 35.7749 78.1455C35.2469 78.1455 34.7669 78.9619 34.399 79.7783H34.639C34.8949 79.4101 35.1349 79.186 35.3109 79.186C35.5349 79.186 35.6629 79.5382 35.3109 80.3066L34.287 82.5796C34.095 83.0118 34.303 83.284 34.719 83.284C34.9749 83.284 35.0869 83.2199 35.1989 82.9478L36.2068 80.2906C36.4948 79.9384 36.7508 79.6342 37.0708 79.2981H38.1267ZM33.0555 79.7294C33.2154 79.1211 32.9115 78.849 32.5595 78.849C32.1755 78.849 31.7116 79.4093 31.4396 80.1616L33.0555 79.7294ZM33.4544 81.4582H33.1345C32.7345 81.9384 32.2865 82.3226 31.8546 82.3226C31.4066 82.3226 31.1826 82.0505 31.1826 81.4582C31.1826 81.2181 31.2146 80.9619 31.2626 80.7378L33.8704 79.8734C34.3824 78.6569 33.7744 78.1286 33.0545 78.1286C31.8226 78.1286 30.4147 80.2896 30.4147 82.0184C30.4147 82.8348 30.7986 83.267 31.4066 83.267C32.1105 83.283 32.8465 82.5947 33.4544 81.4582ZM26.7362 82.067C26.7362 82.2751 27.1041 82.5152 27.3601 82.5152C28.4 82.5152 29.376 80.6424 29.36 79.6019C29.36 79.2497 29.184 79.1056 28.944 79.1056C28.56 79.1056 27.8561 79.6819 27.4081 80.2262L26.9921 81.3467C26.8482 81.7149 26.7362 82.003 26.7362 82.067ZM25.0566 78.1455C25.2486 78.1455 25.4726 78.3376 25.3766 78.6898L23.8407 82.4516C24.2407 82.3875 24.6566 82.0034 24.8966 81.6512H25.1366C24.7686 82.5956 23.9367 83.284 23.2167 83.284C23.0248 83.284 22.7688 83.0919 22.8968 82.7397L24.3367 78.9779C23.9367 79.042 23.5207 79.4261 23.2807 79.7783H23.0408C23.4087 78.8339 24.3047 78.1455 25.0566 78.1455ZM18.4158 76.4807H21.8555L21.7595 76.7848C20.5916 76.9929 20.3996 77.089 19.9197 78.3856L18.8958 81.2029C18.3998 82.5476 18.5278 82.7076 19.4077 82.7076C20.4949 82.7076 21.2077 81.917 21.8302 81.2267C21.8764 81.1754 21.9222 81.1247 21.9675 81.0749H22.3675L21.2316 83.0918H16L16.096 82.8037C17.2479 82.5956 17.4399 82.4995 17.9198 81.2029L18.9598 78.3696C19.4237 77.073 19.3277 76.9769 18.3198 76.7688L18.4158 76.4807Z" fill="black"/>
</svg>
