<?xml version="1.0" encoding="UTF-8"?>
<svg id="svg2" xmlns="http://www.w3.org/2000/svg" xmlns:xlink="http://www.w3.org/1999/xlink" viewBox="0 0 180.36 220.87">
  <defs>
    <style>
      .cls-1 {
        fill: none;
      }

      .cls-2 {
        clip-path: url(#clippath);
      }

      .cls-3 {
        fill: #ed1639;
      }

      .cls-4 {
        fill: #fff;
      }

      .cls-5 {
        fill: #1d4e9e;
        stroke: #fff;
        stroke-miterlimit: 10;
        stroke-width: .53px;
      }
    </style>
    <clipPath id="clippath">
      <rect class="cls-1" x="-609.87" y="-1636.11" width="1414.25" height="1942.19"/>
    </clipPath>
  </defs>
  <g id="g10">
    <g id="g477">
      <path id="path282" class="cls-5" d="M177.69,218.21H2.67V2.67H177.69V218.21Z"/>
      <g id="g284">
        <g class="cls-2">
          <g id="g286">
            <g id="g292">
              <path id="path294" class="cls-4" d="M18.44,111.37c0-2.62-.28-3.02-1.05-3.02h-.72c-.53,0-.66-.17-.66-.54v-.24c0-.23,.06-.37,.17-.47,.94-.64,6.63-1,7.96-1,6.8,0,13.01,2.88,13.01,12.37,0,7.91-5.64,11.83-11.52,11.83-2.37,0-4.78-.17-5.94-.17s-2.57,.17-3.32,.17c-.3,0-.47,0-.47-.27v-.64c0-.27,.14-.44,.36-.44,1.52,0,2.18-.57,2.18-2.89v-14.72Zm3.67,14.42c0,2.31,1.49,3.02,3.56,3.02,4.72,0,7.46-4.83,7.46-10.26,0-5.87-2.6-10.93-7.76-10.93-1.6,0-3.26,.07-3.26,2.38v15.79Z"/>
            </g>
            <g id="g296">
              <path id="path298" class="cls-4" d="M50.44,108.32c6.02,0,11.13,4.26,11.13,10.72,0,7.31-5.28,11.75-11.69,11.75-5.64,0-10.41-4.26-10.41-10.93,0-6.88,4.95-11.54,10.97-11.54m.44,20.95c4.37,0,6.69-3.83,6.69-8.31,0-5.27-2.02-11.11-7.51-11.11-4.97,0-6.58,3.8-6.58,8.74,0,4.66,2.51,10.69,7.4,10.69"/>
            </g>
            <g id="g300">
              <path id="path302" class="cls-4" d="M69.86,123.61c0,3.66,1.94,4.93,4.95,4.93,3.92,0,6.27-1.64,6.27-6.15v-10.14c0-1.95-.55-2.22-2.16-2.22-.22,0-.41-.12-.41-.34v-.61c0-.15,.11-.27,.25-.27,.86,0,1.63,.15,2.76,.15,1.71,0,2.54-.15,3.54-.15,.14,0,.25,.03,.25,.21v.58c0,.36-.03,.43-.39,.43-2.07,0-2.18,.73-2.18,2.74v9.02c0,2.65-.22,4.9-2.13,6.7-1.63,1.52-3.92,2.31-6.05,2.31-4.59,0-8.37-1.4-8.37-7.06v-11.91c0-1.7-.69-1.8-2.24-1.8-.14,0-.33-.03-.33-.21v-.7c0-.21,.14-.3,.36-.3,1.27,0,3.45,.15,4.78,.15s2.18-.15,3.45-.15c.19,0,.25,.06,.25,.27v.7c0,.21-.14,.24-.39,.24-1.63,0-2.21,.3-2.21,2.16v11.42Z"/>
            </g>
            <g id="g304">
              <path id="path306" class="cls-4" d="M92.71,121.97c-.14,0-.25,0-.33,.09l-1.03,3.23c-.33,1-.63,1.98-.63,2.56,0,1,.69,1.25,2.04,1.25,.28,0,.3,.18,.3,.36v.61c0,.21-.14,.24-.5,.24-.91,0-1.85-.15-2.96-.15-1.77,0-2.54,.15-3.07,.15-.08,0-.22-.06-.22-.24v-.55c0-.21,.14-.39,.36-.39,1.08,0,1.8-.3,2.27-1.61,.58-1.61,1.14-3.26,1.69-4.9l2.93-9.44c.25-.79,.5-1.68,.83-2.93,.16-.55,.36-.79,1.35-1.55,.58-.43,.97-.79,1.08-.79,.14,0,.22,.39,.3,.58l6.58,17.91c.8,2.19,.99,2.46,2.01,2.71,.78,.15,.86,.15,.86,.36v.49c0,.12,0,.36-.33,.36-.77,0-2.37-.15-3.59-.15-1.57,0-3.01,.15-4.26,.15-.11,0-.22-.03-.22-.15v-.7c0-.33,.16-.36,.36-.36,1.44,0,1.77-.55,1.77-1.19,0-.7-1.57-4.54-2.07-5.94h-5.53Zm4.92-1.52l-2.63-6.94h-.05l-2.1,6.94h4.78Z"/>
            </g>
            <g id="g308">
              <path id="path310" class="cls-4" d="M117.49,112.34c.97,1.28,1.94,2.56,2.96,3.84l5.94,7.58c.17,.24,.28,.4,.36,.4,.08,0,.13-1.4,.13-2.1v-9.38c0-1.95-.13-2.65-2.07-2.65-.25,0-.52-.06-.52-.37v-.52c0-.27,.17-.33,.41-.33,1.41,0,2.68,.15,3.59,.15,1.16,0,1.88-.15,2.62-.15,.19,0,.33,.03,.33,.3v.61c0,.21-.22,.31-.97,.31-1.38,.06-1.8,.67-1.74,3.74v11.67c0,2.31,.03,4.14,.03,5.12,0,.18-.03,.24-.27,.24-1,0-1.11-.03-1.52-.4-.8-.91-1.22-1.46-1.66-2.01l-11.19-14.31c-.36-.46-.58-.79-.75-.79-.19,0-.14,1.19-.14,1.37v11.02c0,3.23,.52,3.41,2.21,3.41,.28,0,.5,0,.5,.27v.67c0,.21-.11,.27-.41,.27-1.16,0-1.63-.15-2.65-.15s-2.35,.15-3.65,.15c-.38,0-.49-.12-.49-.36v-.52c0-.18,.08-.33,.28-.33,1.63,0,2.57-.12,2.57-3.17v-10.66c0-4.96-.36-5.24-3.15-5.24-.17,0-.28-.12-.28-.27v-.64c0-.15,.08-.3,.3-.3,1,0,1.94,.15,2.87,.15,1.21,0,2.3-.15,3.51-.15,.36,0,.52,.49,.69,.7l2.16,2.83Z"/>
            </g>
            <g id="g312">
              <path id="path314" class="cls-4" d="M138.98,126.5c0,1.68,.33,2.44,2.18,2.44h3.78c1.24,0,1.47-.55,2.05-1.52l.86-1.43c.24-.4,.36-.46,.5-.46,.22,0,1.02,.12,1.02,.46,0,.15-.02,.3-.08,.46-.33,1.19-.69,2.34-1.14,3.87-1.68,0-3.4-.03-5.11-.09-1.71-.03-3.4-.06-5.11-.06-.83,0-1.66,.03-2.46,.06-.83,.06-1.66,.09-2.49,.09-.08,0-.22-.06-.22-.24v-.55c0-.3,.17-.37,.94-.43,.8-.06,1.6-.37,1.6-2.38v-15.1c0-1.58-1.11-1.58-1.96-1.58-.28,0-.47,0-.47-.31v-.61c0-.3,.25-.3,.52-.3,1.11,0,3.29,.12,4.7,.15,2.96,0,5.94-.15,8.9-.15,.25,0,.25,.21,.25,.36,0,.67-.03,1.37-.03,2.04s.03,1.31,.03,1.95c0,.21-.14,.33-.36,.33h-.55c-.14,0-.16-.15-.19-.61-.17-2.34-.88-2.71-2.71-2.71h-2.62c-1.49,0-1.83,.15-1.83,2.62v5.33h1.88c2.05,0,2.96,.12,3.37-2.38,.03-.15,.08-.21,.22-.21h.47c.25,0,.31,.09,.31,.21,0,1.13-.03,2.25-.03,3.38,0,.82,.03,1.8,.03,2.74,0,.27-.08,.46-.22,.46h-.63c-.17,0-.25-.06-.25-.25,0-.49,0-1.12-.22-1.76-.3-.85-1.11-.82-2.27-.82h-2.65v7Z"/>
            </g>
            <g id="g316">
              <path id="path318" class="cls-4" d="M153.02,125.44c.69,1.89,1.69,3.99,4.48,3.99,2.24,0,4.03-1.22,4.03-3.5,0-5.3-9.5-4.02-9.5-11.14,0-4.2,2.96-6.46,6.52-6.46,1.77,0,4.23,.91,4.69,1.68v3.77h-1.24c-.36-2.43-1.46-4.08-3.7-4.08-1.85,0-3.37,1.1-3.37,3.32,0,5.21,9.5,3.65,9.5,11.11,0,4.29-3.32,6.67-6.96,6.67-1.77,0-3.53-.33-5.14-1.25-.11-1.37-.28-2.74-.42-4.11h1.11Z"/>
            </g>
            <g id="g320">
              <path id="path322" class="cls-4" d="M22.44,147.97c-1.44-1.01-2.78-2.22-2.78-4.08,0-2.86,2.33-4.66,5.25-4.66,2.24,0,4.55,.94,4.55,3.53,0,1.8-1.79,3.11-3.3,3.84,2.43,1.25,4.45,3.11,5.98,5.21,1.03-1.49,2.85-3.44,2.85-5.3,0-1.13-.9-1.16-2.08-1.16-.19,0-.22-.28-.22-.46v-.46c0-.18,.03-.3,.29-.3,1.06,0,2.78,.15,4.42,.15,1.15,0,2.4-.15,3.46-.15,.16,0,.19,.09,.19,.25v.7c-.03,.21-.13,.28-.39,.28-1.6,0-2.33,.36-3.36,1.74-1.41,1.89-2.88,3.8-4.29,5.69,1.09,1.95,2.43,4.75,5.12,4.75,1.5,0,2.02-.49,2.94-1.58,.29,.15,.61,.33,.93,.46-.16,.33-.32,.67-.51,.97-1.12,1.73-3.04,2.77-5.15,2.77-.99,0-1.66-.12-2.72-.37-1.06-.24-1.15-.43-1.92-1.83-.41-.76-.7-1.52-1.02-2.28-2.21,2.55-3.65,4.47-7.39,4.47-3.52,0-6.11-2.01-6.11-5.51,0-3.2,2.56-5.3,5.28-6.67m-1.66,4.69c0,2.59,2.33,4.6,4.96,4.6,1.85,0,3.17-1.58,4.29-2.77-1.63-2.5-4.16-4.26-6.72-5.85-1.66,.94-2.53,2.13-2.53,4.02m5.79-9.07c0-1.67-.45-3.29-2.21-3.29-1.25,0-1.82,1.1-1.82,2.22,0,1.61,1.57,2.65,2.82,3.47,.83-.73,1.21-1.28,1.21-2.4"/>
            </g>
            <g id="g324">
              <path id="path326" class="cls-4" d="M54.1,140.97c0-2.58-.28-2.97-1.05-2.97h-.72c-.52,0-.66-.17-.66-.53v-.23c0-.23,.05-.37,.16-.46,.94-.63,6.63-.99,7.96-.99,6.8,0,13.01,2.85,13.01,12.21,0,7.81-5.64,11.68-11.52,11.68-2.38,0-4.78-.16-5.94-.16s-2.57,.16-3.32,.16c-.3,0-.47,0-.47-.26v-.63c0-.26,.14-.43,.36-.43,1.52,0,2.18-.56,2.18-2.85v-14.53Zm3.67,14.23c0,2.28,1.49,2.98,3.56,2.98,4.72,0,7.46-4.77,7.46-10.13,0-5.79-2.6-10.79-7.76-10.79-1.6,0-3.26,.07-3.26,2.35v15.58Z"/>
            </g>
            <g id="g328">
              <path id="path330" class="cls-4" d="M81.67,155.4c0,2.56,.89,3.05,2.13,3.05,.16,0,.22,.09,.22,.24v.73c0,.21-.14,.25-.3,.25-1.11,0-2.21-.15-3.32-.15-1.16,0-3.7,.15-4.67,.15-.3,0-.36-.03-.36-.21v-.58c0-.15,.05-.4,.33-.42,2.07-.15,2.29-.55,2.29-3.38v-11.75c0-3.08-.25-3.93-1.52-3.93h-.88c-.11,0-.17-.09-.17-.21v-.73c0-.18,.05-.28,.19-.28,1.24,0,3.26,.15,5.36,.15,3.1-.15,2.13-.09,4.45-.15,1.77,0,5.52,1.1,5.52,5.15,0,2.68-2.16,4.02-4.42,4.45,1.14,.88,1.99,2.25,2.71,3.53l2.79,4.93c.74,1.34,1.6,2.22,3.09,2.22,.11,.03,.17,.09,.17,.18v1.04c-1.11-.03-2.21-.15-3.32-.15-.69,0-1.41,.15-1.96,.15-.61,0-.86-.52-1.66-2.04l-3.62-6.94c-.75-1.34-1-1.83-3.07-1.83v6.55Zm0-7.95c.36,.03,.75,.03,1.11,.03,2.3,0,4.17-1.25,4.17-3.93,0-2.28-1.08-4.02-3.45-4.02-1.74,0-1.82,1.13-1.82,2.5v5.42Z"/>
            </g>
            <g id="g332">
              <path id="path334" class="cls-4" d="M107.86,137.68c6.02,0,11.13,4.26,11.13,10.72,0,7.31-5.28,11.75-11.69,11.75-5.64,0-10.41-4.26-10.41-10.93,0-6.88,4.94-11.54,10.97-11.54m.44,20.95c4.37,0,6.69-3.84,6.69-8.31,0-5.27-2.02-11.11-7.52-11.11-4.97,0-6.57,3.81-6.57,8.74,0,4.66,2.51,10.69,7.4,10.69"/>
            </g>
            <g id="g336">
              <path id="path338" class="cls-4" d="M123.83,141.21c0-1.64-.72-1.83-2.05-1.83-.22,0-.41-.06-.41-.21v-.7c0-.18,.03-.3,.22-.3,.39,0,1.99,.15,3.9,.15s3.51-.15,4.2-.15c.22,0,.36,.03,.36,.18v.85c0,.15-.25,.18-.56,.18-1.27,0-1.99,.46-1.99,1.83v15.32c0,1.71,.92,1.92,2.29,1.92,.22,0,.3,.09,.3,.27v.61c0,.27-.14,.33-.36,.33-1.3,0-2.6-.15-3.9-.15-1.44,0-2.9,.15-4.34,.15-.08,0-.19-.06-.19-.18v-.79c0-.15,.11-.24,.38-.24,1.3,0,2.13-.27,2.13-1.92v-15.32Z"/>
            </g>
            <g id="g340">
              <path id="path342" class="cls-4" d="M142.48,155.58c0,2.25,.75,2.86,2.27,2.86,.25,0,.39,.09,.39,.27v.73c0,.18-.14,.21-.36,.21-.66,0-3.23-.15-4.72-.15-1.69,0-2.6,.15-3.4,.15-.3,0-.5-.03-.5-.24v-.58c0-.24,.06-.39,.25-.39,2.05,0,2.4-.49,2.4-2.68v-16.08h-3.34c-1.63,0-2.24,1.98-2.73,2.83-.08,.15-.17,.21-.3,.21-.69,0-.8-.09-.8-.49,0-.24,.55-3.65,.69-5.21,0-.15,.08-.21,.19-.21h.91c.3,.7,.89,1.34,1.88,1.34h10.33c1.74,0,2.46-.55,2.71-1.34h.75c.28,0,.41,.09,.41,.37,0,.33-.55,2.5-.72,4.93,0,.18-.03,.27-.19,.27-.27,0-1.08-.12-1.08-.34,0-.24,.03-.52,.03-1.07,0-1.22-1.16-1.31-2.05-1.31h-3.01v15.9Z"/>
            </g>
            <g id="g344">
              <path id="path346" class="cls-4" d="M152.54,154.79c.69,1.89,1.68,3.99,4.48,3.99,2.24,0,4.03-1.22,4.03-3.5,0-5.3-9.5-4.02-9.5-11.14,0-4.2,2.95-6.46,6.52-6.46,1.77,0,4.23,.91,4.7,1.67v3.78h-1.24c-.36-2.44-1.46-4.08-3.7-4.08-1.85,0-3.37,1.09-3.37,3.32,0,5.2,9.5,3.65,9.5,11.11,0,4.29-3.32,6.67-6.96,6.67-1.77,0-3.53-.34-5.14-1.25-.11-1.37-.28-2.74-.41-4.11h1.1Z"/>
            </g>
            <g id="g348">
              <path id="path350" class="cls-4" d="M18.42,168.98c0-1.79-.66-1.99-1.89-1.99-.2,0-.38-.07-.38-.23v-.76c0-.2,.02-.33,.2-.33,.35,0,1.83,.16,3.59,.16s3.24-.16,3.87-.16c.2,0,.33,.03,.33,.2v.92c0,.17-.23,.2-.51,.2-1.17,0-1.84,.5-1.84,1.99v16.63c0,1.85,.84,2.08,2.12,2.08,.2,0,.28,.09,.28,.3v.66c0,.3-.13,.36-.33,.36-1.2,0-2.39-.16-3.59-.16-1.32,0-2.67,.16-4,.16-.07,0-.18-.06-.18-.2v-.86c0-.17,.1-.26,.36-.26,1.2,0,1.96-.3,1.96-2.08v-16.63Z"/>
            </g>
            <g id="g352">
              <path id="path354" class="cls-4" d="M34.34,171.34c.89,1.26,1.78,2.52,2.73,3.77l5.48,7.46c.15,.24,.25,.39,.33,.39s.13-1.38,.13-2.07v-9.22c0-1.92-.13-2.61-1.91-2.61-.23,0-.48-.06-.48-.36v-.51c0-.27,.15-.33,.38-.33,1.3,0,2.47,.15,3.31,.15,1.07,0,1.73-.15,2.42-.15,.18,0,.3,.03,.3,.3v.6c0,.21-.2,.3-.89,.3-1.27,.06-1.66,.66-1.6,3.68v11.47c0,2.28,.02,4.08,.02,5.03,0,.18-.02,.24-.25,.24-.92,0-1.02-.03-1.4-.39-.74-.9-1.12-1.44-1.53-1.98l-10.32-14.07c-.33-.45-.54-.78-.69-.78-.18,0-.13,1.17-.13,1.35v10.84c0,3.17,.49,3.35,2.04,3.35,.25,0,.46,0,.46,.27v.66c0,.21-.1,.27-.38,.27-1.07,0-1.5-.15-2.44-.15s-2.17,.15-3.36,.15c-.36,0-.46-.12-.46-.36v-.51c0-.18,.07-.33,.25-.33,1.5,0,2.37-.12,2.37-3.12v-10.48c0-4.88-.33-5.15-2.91-5.15-.15,0-.25-.12-.25-.27v-.63c0-.15,.07-.3,.28-.3,.92,0,1.78,.15,2.65,.15,1.12,0,2.11-.15,3.24-.15,.33,0,.48,.48,.64,.69l1.99,2.79Z"/>
            </g>
            <g id="g356">
              <path id="path358" class="cls-4" d="M50.4,172.09c0-2.34-.25-2.7-.97-2.7h-.66c-.48,0-.61-.15-.61-.48v-.21c0-.21,.05-.33,.15-.42,.87-.57,6.11-.9,7.34-.9,6.27,0,12,2.57,12,11.05,0,7.07-5.2,10.57-10.62,10.57-2.19,0-4.41-.15-5.48-.15s-2.37,.15-3.06,.15c-.28,0-.43,0-.43-.24v-.57c0-.24,.13-.39,.33-.39,1.4,0,2.02-.51,2.02-2.57v-13.15Zm3.39,12.88c0,2.07,1.38,2.7,3.29,2.7,4.36,0,6.88-4.31,6.88-9.17,0-5.24-2.39-9.76-7.16-9.76-1.48,0-3.01,.06-3.01,2.13v14.1Z"/>
            </g>
            <g id="g360">
              <path id="path362" class="cls-4" d="M71.67,170.86c0-1.62-.66-1.8-1.89-1.8-.2,0-.38-.06-.38-.21v-.69c0-.18,.02-.3,.2-.3,.36,0,1.83,.15,3.59,.15s3.24-.15,3.87-.15c.2,0,.33,.03,.33,.18v.84c0,.15-.23,.18-.51,.18-1.17,0-1.83,.45-1.83,1.8v15.06c0,1.68,.84,1.89,2.11,1.89,.2,0,.28,.09,.28,.27v.6c0,.27-.13,.33-.33,.33-1.2,0-2.39-.15-3.59-.15-1.32,0-2.67,.15-4,.15-.07,0-.18-.06-.18-.18v-.78c0-.15,.1-.24,.36-.24,1.2,0,1.96-.27,1.96-1.89v-15.06Z"/>
            </g>
            <g id="g364">
              <path id="path366" class="cls-4" d="M85.25,184.82c0,2.52,.82,2.99,1.96,2.99,.15,0,.2,.09,.2,.24v.72c0,.21-.13,.24-.28,.24-1.02,0-2.04-.15-3.06-.15-1.07,0-3.41,.15-4.31,.15-.28,0-.33-.03-.33-.21v-.57c0-.15,.05-.39,.31-.42,1.91-.15,2.12-.54,2.12-3.32v-11.56c0-3.02-.23-3.86-1.4-3.86h-.82c-.1,0-.15-.09-.15-.21v-.72c0-.18,.05-.27,.18-.27,1.15,0,3.01,.15,4.94,.15,2.86-.15,1.96-.09,4.1-.15,1.63,0,5.1,1.08,5.1,5.06,0,2.64-1.99,3.95-4.08,4.37,1.04,.87,1.83,2.22,2.49,3.47l2.57,4.85c.69,1.32,1.48,2.19,2.85,2.19,.1,.03,.15,.09,.15,.18v1.02c-1.02-.03-2.04-.15-3.06-.15-.64,0-1.3,.15-1.81,.15-.56,0-.79-.51-1.53-2.01l-3.34-6.83c-.69-1.32-.92-1.8-2.83-1.8v6.44Zm0-7.82c.33,.03,.69,.03,1.02,.03,2.11,0,3.85-1.23,3.85-3.86,0-2.25-.99-3.95-3.19-3.95-1.6,0-1.68,1.11-1.68,2.46v5.33Z"/>
            </g>
            <g id="g368">
              <path id="path370" class="cls-4" d="M104.41,185.27c0,1.65,.31,2.4,2.01,2.4h3.49c1.15,0,1.35-.54,1.88-1.5l.79-1.41c.23-.39,.33-.45,.46-.45,.21,0,.94,.12,.94,.45,0,.15-.02,.3-.07,.45-.31,1.17-.64,2.31-1.05,3.8-1.55,0-3.14-.03-4.71-.09-1.58-.03-3.14-.06-4.71-.06-.77,0-1.53,.03-2.27,.06-.76,.06-1.53,.09-2.29,.09-.08,0-.2-.06-.2-.24v-.54c0-.3,.15-.36,.87-.42,.74-.06,1.48-.36,1.48-2.34v-14.85c0-1.56-1.02-1.56-1.81-1.56-.25,0-.43,0-.43-.3v-.6c0-.3,.23-.3,.48-.3,1.02,0,3.03,.12,4.33,.15,2.73,0,5.48-.15,8.2-.15,.23,0,.23,.21,.23,.36,0,.66-.03,1.35-.03,2.01s.03,1.29,.03,1.92c0,.21-.13,.33-.33,.33h-.51c-.12,0-.15-.15-.18-.6-.15-2.31-.82-2.67-2.49-2.67h-2.42c-1.38,0-1.68,.15-1.68,2.58v5.24h1.73c1.89,0,2.73,.12,3.11-2.34,.03-.15,.08-.21,.21-.21h.43c.23,0,.28,.09,.28,.21,0,1.11-.02,2.22-.02,3.33,0,.81,.02,1.77,.02,2.69,0,.27-.07,.45-.2,.45h-.58c-.15,0-.23-.06-.23-.24,0-.48,0-1.11-.2-1.74-.28-.84-1.02-.81-2.09-.81h-2.44v6.89Z"/>
            </g>
            <g id="g372">
              <path id="path374" class="cls-4" d="M132.56,187.96c-1.99,1.02-3.98,1.53-6.14,1.53-6.01,0-10.78-3.95-10.78-11.44,0-6.59,5.48-10.66,10.62-10.66,1.86,0,4,.51,5.66,1.59,.28,.18,.48,.36,.51,.51,.15,1.26,.43,3.62,.43,3.83,0,.09-.02,.15-.15,.18l-.79,.24c-1.37-2.78-2.44-4.85-5.48-4.85-4.51,0-6.98,4.49-6.98,9.41s2.78,9.7,7.24,9.7c2.9,0,4.13-1.02,5.35-4.01,.08-.18,.2-.78,.41-.78s1,.24,1,.51c0,.09-.05,.39-.13,.72l-.77,3.53Z"/>
            </g>
            <g id="g376">
              <path id="path378" class="cls-4" d="M144.66,185c0,2.22,.69,2.82,2.09,2.82,.23,0,.36,.09,.36,.27v.72c0,.18-.13,.21-.33,.21-.61,0-2.98-.15-4.36-.15-1.55,0-2.39,.15-3.14,.15-.28,0-.46-.03-.46-.24v-.57c0-.24,.05-.39,.23-.39,1.89,0,2.22-.48,2.22-2.63v-15.81h-3.09c-1.5,0-2.06,1.95-2.52,2.79-.08,.15-.15,.21-.28,.21-.64,0-.74-.09-.74-.48,0-.24,.51-3.59,.64-5.12,0-.15,.08-.21,.18-.21h.84c.28,.69,.82,1.32,1.73,1.32h9.53c1.6,0,2.27-.54,2.49-1.32h.69c.25,0,.38,.09,.38,.36,0,.33-.51,2.46-.66,4.85,0,.18-.03,.27-.18,.27-.25,0-.99-.12-.99-.33,0-.24,.02-.51,.02-1.05,0-1.2-1.07-1.29-1.88-1.29h-2.78v15.63Z"/>
            </g>
            <g id="g380">
              <path id="path382" class="cls-4" d="M153.63,184.22c.64,1.86,1.55,3.92,4.13,3.92,2.06,0,3.72-1.2,3.72-3.45,0-5.21-8.77-3.95-8.77-10.96,0-4.13,2.73-6.35,6.01-6.35,1.63,0,3.9,.9,4.33,1.65v3.71h-1.15c-.33-2.4-1.35-4.01-3.42-4.01-1.71,0-3.11,1.08-3.11,3.27,0,5.12,8.76,3.59,8.76,10.93,0,4.22-3.05,6.56-6.42,6.56-1.63,0-3.26-.33-4.74-1.23-.1-1.35-.25-2.7-.38-4.05h1.02Z"/>
            </g>
            <g id="g384">
              <path id="path386" class="cls-4" d="M87.24,31.28s5.07,11.56,4.93,16.1c0,0,3.8-5.78-1.9-16.83,0,0-3.66-8.12-.78-12.88,0,0,2.11-4.68,6.97-5.93,0,0,.42,.22-.28,1.02,0,0-3.24,4.98,1.27,9.44,0,0,5.77,6.3,5.42,11.78,0,0,.63,9.08-9.36,17.86l-2.39,.07s-4.14-6.05-6.33-10.1c0,0-3.5-6.28-1.9-11.27,0,0,1.41-5.62,3.6-7.49,0,0,.25-.09,.21,.22,0,0-.4,5.74,.56,8"/>
            </g>
            <g id="g388">
              <path id="path390" class="cls-4" d="M112.72,63.3c1.08,2.76,1.68,5.77,1.68,8.92,0,13.21-10.42,23.93-23.28,23.93l-2.7-.16c-13.52-.66-22.32-11.09-22.32-11.09-8.95-10.19-12.22-24.62-12.22-24.62h22.9c-2.52,3.32-4.02,7.49-4.02,12.02,0,9.09,6.04,16.73,14.21,18.92,1.54,.41,3.15,.64,4.81,.64,10.51,0,19.03-8.76,19.03-19.56,0-3.21-.76-6.23-2.09-8.9-.46-.92-.98-1.8-1.57-2.63h4.41l1.15,2.53Z"/>
            </g>
            <g id="g392">
              <path id="path394" class="cls-3" d="M94.49,200.41c0,2.49-2,4.5-4.47,4.5s-4.47-2.01-4.47-4.5,2-4.5,4.47-4.5,4.47,2.02,4.47,4.5"/>
            </g>
            <g id="g396">
              <path id="path398" class="cls-3" d="M104.52,72.84c0,6.92-5.73,12.53-12.79,12.53s-12.8-5.61-12.8-12.53,5.73-12.54,12.8-12.54,12.79,5.61,12.79,12.54"/>
            </g>
          </g>
        </g>
      </g>
    </g>
  </g>
</svg>