<svg width="43" height="60" viewBox="0 0 43 60" fill="none" xmlns="http://www.w3.org/2000/svg">
<path d="M23.6028 13.8248C23.6028 13.8248 27.1872 22.0053 27.0883 25.2169C27.0883 25.2169 29.7762 21.1258 25.7435 13.3066C25.7435 13.3066 23.1545 7.55848 25.1947 4.19354C25.1947 4.19354 26.6895 0.879717 30.1257 0.000143051C30.1257 0.000143051 30.4239 0.15526 29.9262 0.724602C29.9262 0.724602 27.6372 4.24466 30.8228 7.40337C30.8228 7.40337 34.9049 11.8576 34.656 15.7408C34.656 15.7408 35.1043 22.1622 28.0325 28.3756L26.3418 28.4268C26.3418 28.4268 23.4157 24.147 21.8608 21.2809C21.8608 21.2809 19.3812 16.8354 20.5143 13.3066C20.5143 13.3066 21.5149 9.32997 23.0592 8.0062C23.0592 8.0062 23.2374 7.94451 23.2074 8.16308C23.2074 8.16308 22.9233 12.2243 23.6028 13.8248Z" fill="#000091"/>
<path d="M41.6294 36.4802C42.3918 38.4314 42.8171 40.559 42.8171 42.7905C42.8171 52.1397 35.4418 59.7192 26.344 59.7192L24.4362 59.6064C14.8689 59.1376 8.64425 51.7625 8.64425 51.7625C2.31372 44.5567 0 34.342 0 34.342H12.0681H16.2031C14.4206 36.6899 13.3564 39.6389 13.3564 42.8452C13.3564 49.2754 17.6274 54.6798 23.4125 56.2309C24.4997 56.5235 25.6416 56.6804 26.8187 56.6804C34.254 56.6804 40.2828 50.4864 40.2828 42.8452C40.2828 40.5766 39.7463 38.4385 38.8056 36.5507C38.4809 35.8985 38.1102 35.278 37.6937 34.6928H40.814L41.6294 36.4802Z" fill="#000091"/>
<path d="M35.8302 43.2282C35.8302 48.1249 31.7781 52.0962 26.7783 52.0962C21.7785 52.0962 17.7246 48.1249 17.7246 43.2282C17.7246 38.3297 21.7785 34.3584 26.7783 34.3584C31.7781 34.3584 35.8302 38.3297 35.8302 43.2282Z" fill="#ED1639"/>
</svg>
