<svg width="18" height="12" viewBox="0 0 18 12" fill="none" xmlns="http://www.w3.org/2000/svg">
<g opacity="0.5">
<path d="M17.083 4.93876C17.0835 4.93927 17.0838 4.93964 17.084 4.9399L17.084 4.93992L17.0901 4.94761C17.1072 4.9688 17.1111 4.98691 17.1111 5.00005C17.1111 5.01106 17.1084 5.02552 17.0975 5.04234C17.092 5.04828 17.0861 5.0548 17.0796 5.0619C16.8489 5.31497 15.9588 6.29154 14.6045 7.25781C13.1017 8.33 11.1016 9.33333 8.89593 9.33333C6.68925 9.33333 4.68407 8.33349 3.17946 7.26371C2.43278 6.73282 1.82445 6.19534 1.39458 5.7797C1.17995 5.57216 1.01087 5.39604 0.892384 5.26773C0.833129 5.20356 0.786916 5.15177 0.754327 5.11443C0.727174 5.08332 0.712945 5.06621 0.708832 5.06126C0.707554 5.05973 0.707252 5.05936 0.707843 5.06012L0.696649 5.04578L0.684684 5.03207C0.673967 5.01978 0.66983 5.01096 0.668278 5.0069C0.66671 5.0028 0.666667 5.00071 0.666667 5.00005C0.666667 4.99938 0.666711 4.99727 0.668294 4.99313C0.669676 4.98951 0.673082 4.98217 0.681259 4.97202C0.689731 4.9628 0.700068 4.95146 0.712243 4.9381C0.94292 4.68502 1.83303 3.70846 3.18736 2.74219C4.69013 1.67 6.69025 0.666667 8.89593 0.666667C11.1026 0.666667 13.1078 1.66651 14.6124 2.73629C15.3591 3.26718 15.9674 3.80466 16.3973 4.2203C16.6119 4.42784 16.781 4.60396 16.8995 4.73227C16.9587 4.79644 17.0049 4.84823 17.0375 4.88557C17.0647 4.91671 17.079 4.93383 17.083 4.93876ZM1.4503 4.52824L0.977724 5.00004L1.45031 5.47183C1.99497 6.01558 2.9906 6.92601 4.26991 7.70385C5.54466 8.47893 7.14814 9.15104 8.89593 9.15104C10.6437 9.15104 12.2472 8.47893 13.522 7.70385C14.8013 6.92601 15.7969 6.01558 16.3416 5.47183L16.8141 5.00002L16.3415 4.52823C15.7959 3.98348 14.7956 3.07338 13.5144 2.29592C12.2382 1.52145 10.6347 0.849022 8.89593 0.849022C7.15713 0.849022 5.55361 1.52145 4.2774 2.29592C2.99626 3.07338 1.99596 3.98348 1.4503 4.52824Z" fill="black" stroke="#929292" stroke-width="1.33333"/>
<path d="M10.4448 4.99995C10.4448 6.31231 9.61713 7.11106 8.88921 7.11106C8.1613 7.11106 7.33366 6.31231 7.33366 4.99995C7.33366 3.68758 8.1613 2.88883 8.88921 2.88883C9.61713 2.88883 10.4448 3.68758 10.4448 4.99995Z" fill="black" stroke="#929292" stroke-width="1.33333"/>
</g>
</svg>
