<svg width="16" height="17" viewBox="0 0 16 17" fill="none" xmlns="http://www.w3.org/2000/svg">
<path d="M0 0H16V10.6667L8.6576 11.8904C8.2222 11.963 7.7778 11.963 7.3424 11.8904L0 10.6667V0Z" fill="#564F4F"/>
<circle cx="8" cy="11" r="6" fill="url(#paint0_linear_250_12495)"/>
<circle cx="8" cy="11" r="2" fill="#D4CEE2"/>
<circle cx="8" cy="11" r="1" fill="white"/>
<path d="M0 5.25L3.08497 5.92484C6.32337 6.63324 9.67663 6.63324 12.915 5.92484L16 5.25V0H0V5.25Z" fill="#C4C4C4"/>
<path d="M2.28821 4H2.66621L2.78021 3.67H3.27621L3.39021 4H3.76821L3.26021 2.6H2.79621L2.28821 4ZM2.88421 3.37L3.02821 2.958L3.17221 3.37H2.88421ZM4.66905 3.472C4.66905 3.616 4.58705 3.706 4.44105 3.706C4.29305 3.706 4.21105 3.616 4.21105 3.472V2.6H3.85505V3.438C3.85505 3.81 4.07105 4.04 4.43905 4.04C4.80905 4.04 5.02505 3.81 5.02505 3.438V2.6H4.66905V3.472ZM5.2151 2.922H5.6231V4H5.9791V2.922H6.3871V2.6H5.2151V2.922ZM7.16771 2.56C6.72171 2.56 6.41771 2.9 6.41771 3.3C6.41771 3.7 6.72171 4.04 7.16771 4.04C7.61171 4.04 7.91571 3.7 7.91571 3.3C7.91571 2.9 7.61171 2.56 7.16771 2.56ZM7.16771 3.706C6.94371 3.706 6.78371 3.536 6.78371 3.3C6.78371 3.066 6.94371 2.894 7.16771 2.894C7.38971 2.894 7.54971 3.064 7.54971 3.3C7.54971 3.534 7.38971 3.706 7.16771 3.706ZM8.1442 4H8.5002V3.47H8.5842L8.9362 4H9.3522L8.9242 3.406C9.0642 3.334 9.1442 3.206 9.1442 3.036C9.1442 2.762 8.9422 2.6 8.6142 2.6H8.1442V4ZM8.6362 2.894C8.7262 2.894 8.7782 2.952 8.7782 3.032C8.7782 3.118 8.7262 3.176 8.6362 3.176H8.5002V2.894H8.6362ZM9.38313 4H9.76113L9.87513 3.67H10.3711L10.4851 4H10.8631L10.3551 2.6H9.89113L9.38313 4ZM9.97913 3.37L10.1231 2.958L10.2671 3.37H9.97913ZM11.029 4H11.589C12.035 4 12.339 3.678 12.339 3.3C12.339 2.922 12.035 2.6 11.589 2.6H11.029V4ZM11.591 2.922C11.811 2.922 11.971 3.082 11.971 3.3C11.971 3.516 11.811 3.678 11.591 3.678H11.385V2.922H11.591ZM12.5672 4H12.9232V2.6H12.5672V4ZM13.9013 2.56C13.4553 2.56 13.1513 2.9 13.1513 3.3C13.1513 3.7 13.4553 4.04 13.9013 4.04C14.3453 4.04 14.6493 3.7 14.6493 3.3C14.6493 2.9 14.3453 2.56 13.9013 2.56ZM13.9013 3.706C13.6773 3.706 13.5173 3.536 13.5173 3.3C13.5173 3.066 13.6773 2.894 13.9013 2.894C14.1233 2.894 14.2833 3.064 14.2833 3.3C14.2833 3.534 14.1233 3.706 13.9013 3.706Z" fill="white"/>
<defs>
<linearGradient id="paint0_linear_250_12495" x1="12" y1="6.5" x2="3" y2="14" gradientUnits="userSpaceOnUse">
<stop stop-color="#FBF3AE"/>
<stop offset="1" stop-color="#AEFBF6"/>
</linearGradient>
</defs>
</svg>
