<svg width="24" height="12" viewBox="0 0 24 12" fill="none" xmlns="http://www.w3.org/2000/svg">
<path d="M5.05555 0.736318C5.14675 0.589376 5.30742 0.5 5.48037 0.5H14.9195C15.0925 0.5 15.2531 0.589375 15.3444 0.736319L17.8271 4.73632C18.0338 5.0694 17.7943 5.5 17.4023 5.5H2.99761C2.60559 5.5 2.36605 5.06939 2.57279 4.73632L5.05555 0.736318Z" fill="#DEFBFF" stroke="#4C91D0"/>
<path d="M0 4H18.2857C21.4416 4 24 6.55837 24 9.71429H3C1.34315 9.71429 0 8.37114 0 6.71429V4Z" fill="#4C91D0"/>
<mask id="mask0_142_8539" style="mask-type:alpha" maskUnits="userSpaceOnUse" x="0" y="4" width="24" height="6">
<path d="M0 4H18.2857C21.4416 4 24 6.55837 24 9.71429H3C1.34315 9.71429 0 8.37114 0 6.71429V4Z" fill="#4C91D0"/>
</mask>
<g mask="url(#mask0_142_8539)">
<ellipse cx="23.4" cy="6.2857" rx="1.8" ry="1.71429" fill="#F9E166"/>
</g>
<path d="M8.25 9.14285C8.25 10.2725 7.27754 11.25 6 11.25C4.72246 11.25 3.75 10.2725 3.75 9.14285C3.75 8.01317 4.72246 7.03571 6 7.03571C7.27754 7.03571 8.25 8.01317 8.25 9.14285Z" fill="#D6CFCF" stroke="#504E4E" stroke-width="1.5"/>
<path d="M19.65 9.14285C19.65 10.2725 18.6776 11.25 17.4 11.25C16.1225 11.25 15.15 10.2725 15.15 9.14285C15.15 8.01317 16.1225 7.03571 17.4 7.03571C18.6776 7.03571 19.65 8.01317 19.65 9.14285Z" fill="#D6CFCF" stroke="#504E4E" stroke-width="1.5"/>
<rect y="5.14288" width="1.8" height="1.71429" fill="#F25D5D"/>
<line x1="10.7" y1="1.2489e-08" x2="10.7" y2="9.71428" stroke="#3D7BB4"/>
</svg>
