<svg width="21" height="24" viewBox="0 0 21 24" fill="none" xmlns="http://www.w3.org/2000/svg">
<rect x="12.9073" y="4.60925" width="4.64367" height="0.464367" rx="0.232183" transform="rotate(34.3641 12.9073 4.60925)" fill="#43403D"/>
<rect x="13.4315" y="3.84265" width="4.64367" height="0.464367" rx="0.232183" transform="rotate(34.3641 13.4315 3.84265)" fill="#43403D"/>
<rect x="13.9557" y="3.07605" width="4.64367" height="0.464367" rx="0.232183" transform="rotate(34.3641 13.9557 3.07605)" fill="#43403D"/>
<path fill-rule="evenodd" clip-rule="evenodd" d="M6.57557 10.5786C7.04509 9.65355 8.10851 8.31573 9.54991 6.68854L11.8402 10.2387C11.8471 10.2434 11.8541 10.2482 11.861 10.2529C13.7663 11.5557 14.4816 13.8247 13.4586 15.3207C13.3008 15.5516 13.1107 15.7506 12.8951 15.9172C12.3017 15.9164 11.7675 16.1484 11.4572 16.6023C10.9949 17.2783 11.1716 18.2385 11.8233 18.9628C11.7331 19.3513 11.5747 19.721 11.3439 20.0585C10.0936 21.887 7.19226 22.0784 4.86354 20.486C2.53482 18.8937 1.66058 16.1205 2.91088 14.2921C3.14166 13.9546 3.42868 13.6729 3.75798 13.4478C4.66943 13.7925 5.62837 13.6088 6.09068 12.9327C6.40103 12.4788 6.4234 11.8969 6.20741 11.3443C6.28449 11.083 6.40098 10.8336 6.55889 10.6027C6.56441 10.5946 6.56997 10.5866 6.57557 10.5786Z" fill="#EB4545"/>
<mask id="mask0_136_8168" style="mask-type:alpha" maskUnits="userSpaceOnUse" x="2" y="6" width="12" height="16">
<path fill-rule="evenodd" clip-rule="evenodd" d="M6.57557 10.5786C7.04509 9.65355 8.10851 8.31573 9.54991 6.68854L11.8402 10.2387C11.8471 10.2434 11.8541 10.2482 11.861 10.2529C13.7663 11.5557 14.4816 13.8247 13.4586 15.3207C13.3008 15.5516 13.1107 15.7506 12.8951 15.9172C12.3017 15.9164 11.7675 16.1484 11.4572 16.6023C10.9949 17.2783 11.1716 18.2385 11.8233 18.9628C11.7331 19.3513 11.5747 19.721 11.3439 20.0585C10.0936 21.887 7.19226 22.0784 4.86354 20.486C2.53482 18.8937 1.66058 16.1205 2.91088 14.2921C3.14166 13.9546 3.42868 13.6729 3.75798 13.4478C4.66943 13.7925 5.62837 13.6088 6.09068 12.9327C6.40103 12.4788 6.4234 11.8969 6.20741 11.3443C6.28449 11.083 6.40098 10.8336 6.55889 10.6027C6.56441 10.5946 6.56997 10.5866 6.57557 10.5786Z" fill="#EB4545"/>
</mask>
<g mask="url(#mask0_136_8168)">
<ellipse cx="8.2048" cy="21.6108" rx="6" ry="7" transform="rotate(53.6029 8.2048 21.6108)" fill="#FFDCDC"/>
</g>
<rect x="15.2466" y="2.83362" width="2.7862" height="3.71493" rx="1" transform="rotate(34.3641 15.2466 2.83362)" fill="#43403D"/>
<rect x="6.33484" y="15.8665" width="2.7862" height="0.928734" rx="0.464367" transform="rotate(34.3641 6.33484 15.8665)" fill="#43403D"/>
<path d="M16.0132 3.35784L16.7799 3.88206L10.9937 13.9893L8.69379 12.4166L16.0132 3.35784Z" fill="#43403D"/>
<mask id="mask1_136_8168" style="mask-type:alpha" maskUnits="userSpaceOnUse" x="8" y="3" width="9" height="11">
<path d="M16.0132 3.35784L16.7799 3.88206L10.9937 13.9893L8.69379 12.4166L16.0132 3.35784Z" fill="#43403D"/>
</mask>
<g mask="url(#mask1_136_8168)">
<line x1="11.9999" y1="5.93621" x2="15.8331" y2="8.55733" stroke="black" stroke-width="0.5"/>
<line x1="11.2136" y1="7.08624" x2="15.0468" y2="9.70735" stroke="black" stroke-width="0.5"/>
<line x1="10.1652" y1="8.61944" x2="13.9984" y2="11.2406" stroke="black" stroke-width="0.5"/>
<line x1="9.1167" y1="10.1528" x2="12.9499" y2="12.7739" stroke="black" stroke-width="0.5"/>
</g>
<circle cx="9.84379" cy="13.2029" r="1.3931" transform="rotate(34.3641 9.84379 13.2029)" fill="#43403D"/>
</svg>
