<?xml version="1.0" encoding="UTF-8"?>
<svg xmlns="http://www.w3.org/2000/svg" xmlns:xlink="http://www.w3.org/1999/xlink" width="24.498291pt" height="24.704979pt" viewBox="0 0 24.498291 24.704979" version="1.1">
<defs>
<clipPath id="clip1">
  <path d="M 0 0 L 24.5 0 L 24.5 24.703125 L 0 24.703125 Z M 0 0 "/>
</clipPath>
<filter id="alpha" filterUnits="objectBoundingBox" x="0%" y="0%" width="100%" height="100%">
  <feColorMatrix type="matrix" in="SourceGraphic" values="0 0 0 0 1 0 0 0 0 1 0 0 0 0 1 0 0 0 1 0"/>
</filter>
<clipPath id="clip2">
  <rect x="0" y="0" width="25" height="25"/>
</clipPath>
<g id="surface7" clip-path="url(#clip2)">
<path style=" stroke:none;fill-rule:nonzero;fill:rgb(97.915649%,53.788757%,13.05542%);fill-opacity:1;" d="M 11.359375 9.285156 C 12.085938 8.328125 13.488281 8.222656 14.347656 9.058594 L 15.898438 10.566406 C 16.757812 11.40625 16.691406 12.8125 15.75 13.5625 L 6.597656 20.875 C 5.957031 21.386719 5.039062 21.34375 4.449219 20.769531 C 3.863281 20.199219 3.792969 19.28125 4.289062 18.625 Z M 11.359375 9.285156 "/>
</g>
<mask id="mask0">
  <g filter="url(#alpha)">
<use xlink:href="#surface7"/>
  </g>
</mask>
<clipPath id="clip3">
  <rect x="0" y="0" width="25" height="25"/>
</clipPath>
<g id="surface6" clip-path="url(#clip3)">
<path style=" stroke:none;fill-rule:nonzero;fill:rgb(84.999084%,47.929382%,13.812256%);fill-opacity:1;" d="M 10.058594 10.21875 L 15.535156 15.554688 L 16.234375 14.839844 L 10.753906 9.503906 Z M 10.058594 10.21875 "/>
<path style=" stroke:none;fill-rule:nonzero;fill:rgb(84.999084%,47.929382%,13.812256%);fill-opacity:1;" d="M 8.058594 12.273438 L 13.535156 17.609375 L 14.234375 16.890625 L 8.753906 11.554688 Z M 8.058594 12.273438 "/>
<path style=" stroke:none;fill-rule:nonzero;fill:rgb(84.999084%,47.929382%,13.812256%);fill-opacity:1;" d="M 6.054688 14.328125 L 11.535156 19.664062 L 12.230469 18.945312 L 6.753906 13.609375 Z M 6.054688 14.328125 "/>
<path style=" stroke:none;fill-rule:nonzero;fill:rgb(84.999084%,47.929382%,13.812256%);fill-opacity:1;" d="M 4.054688 16.382812 L 9.535156 21.71875 L 10.230469 21 L 4.753906 15.664062 Z M 4.054688 16.382812 "/>
</g>
</defs>
<g id="surface1">
<path style=" stroke:none;fill-rule:nonzero;fill:rgb(49.421692%,78.33252%,44.714355%);fill-opacity:1;" d="M 18.152344 8.761719 C 16.308594 10.652344 14.355469 11.734375 13.789062 11.183594 C 13.222656 10.628906 14.253906 8.648438 16.097656 6.757812 C 17.9375 4.867188 19.890625 3.78125 20.457031 4.335938 C 21.027344 4.886719 19.992188 6.867188 18.152344 8.761719 Z M 18.152344 8.761719 "/>
<path style=" stroke:none;fill-rule:nonzero;fill:rgb(49.421692%,78.33252%,44.714355%);fill-opacity:1;" d="M 18.316406 11.355469 C 15.796875 12.140625 13.5625 12.167969 13.324219 11.410156 C 13.089844 10.65625 14.941406 9.40625 17.460938 8.617188 C 19.980469 7.832031 22.214844 7.808594 22.453125 8.5625 C 22.6875 9.320312 20.835938 10.570312 18.316406 11.355469 Z M 18.316406 11.355469 "/>
<path style=" stroke:none;fill-rule:nonzero;fill:rgb(49.421692%,78.33252%,44.714355%);fill-opacity:1;" d="M 16.085938 7.050781 C 15.535156 9.632812 14.460938 11.59375 13.6875 11.429688 C 12.914062 11.265625 12.730469 9.039062 13.277344 6.457031 C 13.828125 3.875 14.902344 1.914062 15.675781 2.078125 C 16.449219 2.242188 16.632812 4.46875 16.085938 7.050781 Z M 16.085938 7.050781 "/>
<path style=" stroke:none;fill-rule:nonzero;fill:rgb(97.915649%,53.788757%,13.05542%);fill-opacity:1;" d="M 11.359375 9.285156 C 12.085938 8.328125 13.488281 8.222656 14.347656 9.058594 L 15.898438 10.566406 C 16.757812 11.40625 16.691406 12.8125 15.75 13.5625 L 6.597656 20.875 C 5.957031 21.386719 5.039062 21.34375 4.449219 20.769531 C 3.863281 20.199219 3.792969 19.28125 4.289062 18.625 Z M 11.359375 9.285156 "/>
<g clip-path="url(#clip1)" clip-rule="nonzero">
<use xlink:href="#surface6" mask="url(#mask0)"/>
</g>
</g>
</svg>
