<svg width="20" height="17" viewBox="0 0 20 17" fill="none" xmlns="http://www.w3.org/2000/svg">
<ellipse cx="10" cy="14" rx="10" ry="3" fill="#86BC5C"/>
<ellipse rx="2" ry="0.5" transform="matrix(1 0 0 -1 10 13.5)" fill="#7B634C"/>
<mask id="mask0_132_8078" style="mask-type:alpha" maskUnits="userSpaceOnUse" x="8" y="0" width="5" height="14">
<path d="M12 13.5C12 13.2239 12.6046 0 11.5 0C10.3954 0 8 13.2239 8 13.5C8 13.7761 8.89543 14 10 14C11.1046 14 12 13.7761 12 13.5Z" fill="#7B634C"/>
</mask>
<g mask="url(#mask0_132_8078)">
<line x1="10.6527" y1="14.5992" x2="11.5992" y2="1.34733" stroke="#8E8484" stroke-width="0.75" stroke-linecap="round"/>
</g>
<path d="M11.4229 3.47704L11.5999 0.654159L17.9101 3.88392L11.2458 6.29992L11.4229 3.47704Z" fill="#FF6161"/>
<circle cx="6" cy="13" r="1" fill="white"/>
</svg>
