<svg width="19" height="24" viewBox="0 0 19 24" fill="none" xmlns="http://www.w3.org/2000/svg">
<line x1="12.1019" y1="13.8292" x2="6.51418" y2="10.6031" stroke="#625D5D" stroke-width="0.5"/>
<line x1="13.0918" y1="2.93652" x2="7.04284" y2="13.4135" stroke="#625D5D" stroke-width="0.5"/>
<line x1="15.5363" y1="4.3479" x2="9.48742" y2="14.8249" stroke="#625D5D" stroke-width="0.5"/>
<line x1="15.5363" y1="4.3479" x2="9.48742" y2="14.8249" stroke="#625D5D" stroke-width="0.5"/>
<line x1="14.0103" y1="12.137" x2="7.02557" y2="8.10443" stroke="#625D5D" stroke-width="0.5"/>
<line x1="15.9185" y1="10.4449" x2="7.53684" y2="5.60577" stroke="#625D5D" stroke-width="0.5"/>
<line x1="16.4298" y1="7.94624" x2="9.44513" y2="3.91363" stroke="#625D5D" stroke-width="0.5"/>
<line x1="16.5377" y1="6.14607" x2="10.95" y2="2.91998" stroke="#625D5D" stroke-width="0.5"/>
<path d="M15.2073 10.6769C14.3653 12.1353 13.1687 13.1826 11.9352 13.7095C10.7019 14.2363 9.46379 14.2339 8.47338 13.662C7.48297 13.0902 6.86176 12.0192 6.70134 10.6877C6.54089 9.35606 6.84967 7.79613 7.69167 6.33775C8.53366 4.87936 9.73022 3.83199 10.9637 3.30509C12.197 2.77827 13.4351 2.78077 14.4256 3.35258C15.416 3.92439 16.0372 4.99538 16.1976 6.32688C16.358 7.65857 16.0493 9.21849 15.2073 10.6769Z" stroke="#370A0A"/>
<path d="M12.2269 13.6127C11.2416 13.9751 7.91648 15.5943 7.71196 16.5937M6.63916 10.3866C6.81796 11.4211 7.0783 15.1103 6.315 15.7872" stroke="#370A0A"/>
<rect x="6.0199" y="14.6855" width="3.22609" height="6.45217" transform="rotate(30 6.0199 14.6855)" fill="#E33E3E"/>
<line x1="5.06018" y1="16.3479" x2="7.85405" y2="17.9609" stroke="#FAA5A5"/>
<line x1="3.85022" y1="18.4433" x2="6.64409" y2="20.0563" stroke="#FAA5A5"/>
<circle cx="15.7271" cy="12.1946" r="2.82283" fill="#E1CC5B"/>
<mask id="mask0_132_8110" style="mask-type:alpha" maskUnits="userSpaceOnUse" x="12" y="9" width="7" height="7">
<circle cx="15.7271" cy="12.1946" r="2.82283" fill="#E1CC5B"/>
</mask>
<g mask="url(#mask0_132_8110)">
<path d="M19.0065 10.9848C19.0065 11.2768 18.8289 11.584 18.4536 11.8342C18.0808 12.0827 17.5456 12.2479 16.9369 12.2479C16.3282 12.2479 15.793 12.0827 15.4202 11.8342C15.0449 11.584 14.8673 11.2768 14.8673 10.9848C14.8673 10.6928 15.0449 10.3856 15.4202 10.1354C15.793 9.88688 16.3282 9.72177 16.9369 9.72177C17.5456 9.72177 18.0808 9.88688 18.4536 10.1354C18.8289 10.3856 19.0065 10.6928 19.0065 10.9848Z" stroke="white" stroke-width="0.7"/>
</g>
</svg>
