<svg width="22" height="25" viewBox="0 0 22 25" fill="none" xmlns="http://www.w3.org/2000/svg">
<rect x="13.7286" y="4.19678" width="5" height="0.5" rx="0.25" transform="rotate(36.5657 13.7286 4.19678)" fill="#FAC359"/>
<rect x="14.3243" y="3.39355" width="5" height="0.5" rx="0.25" transform="rotate(36.5657 14.3243 3.39355)" fill="#FAC359"/>
<rect x="14.92" y="2.59039" width="5" height="0.5" rx="0.25" transform="rotate(36.5657 14.92 2.59039)" fill="#FAC359"/>
<path fill-rule="evenodd" clip-rule="evenodd" d="M12.2604 16.2476C11.6655 17.0496 11.7571 18.1693 12.4089 19.0019C12.2642 19.4587 12.045 19.8951 11.748 20.2955C10.1391 22.4646 6.85704 22.756 4.41735 20.9464C1.97766 19.1368 1.30418 15.9114 2.91311 13.7423C3.21007 13.3419 3.56403 13.0055 3.95918 12.7345C4.94512 13.1167 6.04332 12.8794 6.63824 12.0774C7.0376 11.5389 7.12759 10.8574 6.94643 10.2156C7.06219 9.90787 7.2209 9.61332 7.42411 9.33936C8.7405 7.56461 11.4258 7.32616 13.4219 8.80675C15.418 10.2873 15.9691 12.9263 14.6527 14.7011C14.4495 14.975 14.2137 15.2123 13.9528 15.4124C13.286 15.4252 12.6598 15.7091 12.2604 16.2476Z" fill="#D9A475"/>
<rect x="16.319" y="2.383" width="3" height="4" rx="1" transform="rotate(36.5657 16.319 2.383)" fill="#94704F"/>
<rect x="6.19141" y="16.0369" width="3" height="1" rx="0.5" transform="rotate(36.5657 6.19141 16.0369)" fill="#94704F"/>
<path d="M17.1221 2.97874L17.9253 3.57448L11.2817 14.2099L8.87216 12.4227L17.1221 2.97874Z" fill="#94704F"/>
<mask id="mask0_136_7805" style="mask-type:alpha" maskUnits="userSpaceOnUse" x="8" y="2" width="10" height="13">
<path d="M17.1221 2.97874L17.9253 3.57448L11.2817 14.2099L8.87216 12.4227L17.1221 2.97874Z" fill="#94704F"/>
</mask>
<g mask="url(#mask0_136_7805)">
<line x1="12.686" y1="5.60231" x2="16.7019" y2="8.58103" stroke="black" stroke-width="0.5"/>
<line x1="11.7924" y1="6.80708" x2="15.8082" y2="9.7858" stroke="black" stroke-width="0.5"/>
<line x1="10.601" y1="8.41346" x2="14.6168" y2="11.3922" stroke="black" stroke-width="0.5"/>
<line x1="9.40943" y1="10.0198" x2="13.4253" y2="12.9985" stroke="black" stroke-width="0.5"/>
</g>
<circle cx="10.077" cy="13.3163" r="1.5" transform="rotate(36.5657 10.077 13.3163)" fill="#634A33"/>
</svg>
