<svg width="19" height="23" viewBox="0 0 19 23" fill="none" xmlns="http://www.w3.org/2000/svg">
<line x1="12.1019" y1="13.3292" x2="6.51418" y2="10.1031" stroke="#625D5D" stroke-width="0.5"/>
<line x1="13.0918" y1="2.43652" x2="7.04284" y2="12.9135" stroke="#625D5D" stroke-width="0.5"/>
<line x1="15.5363" y1="3.8479" x2="9.48742" y2="14.3249" stroke="#625D5D" stroke-width="0.5"/>
<line x1="15.5363" y1="3.8479" x2="9.48742" y2="14.3249" stroke="#625D5D" stroke-width="0.5"/>
<line x1="14.0103" y1="11.637" x2="7.02557" y2="7.60443" stroke="#625D5D" stroke-width="0.5"/>
<line x1="15.9185" y1="9.9449" x2="7.53684" y2="5.10577" stroke="#625D5D" stroke-width="0.5"/>
<line x1="16.4298" y1="7.44624" x2="9.44513" y2="3.41363" stroke="#625D5D" stroke-width="0.5"/>
<line x1="16.5377" y1="5.64607" x2="10.95" y2="2.41998" stroke="#625D5D" stroke-width="0.5"/>
<path d="M15.2073 10.1769C14.3653 11.6353 13.1687 12.6826 11.9352 13.2095C10.7019 13.7363 9.46379 13.7339 8.47338 13.162C7.48297 12.5902 6.86176 11.5192 6.70134 10.1877C6.54089 8.85606 6.84967 7.29613 7.69167 5.83775C8.53366 4.37936 9.73022 3.33199 10.9637 2.80509C12.197 2.27827 13.4351 2.28077 14.4256 2.85258C15.416 3.42439 16.0372 4.49538 16.1976 5.82688C16.358 7.15857 16.0493 8.71849 15.2073 10.1769Z" stroke="#370A0A"/>
<path d="M12.2269 13.1127C11.2416 13.4751 7.91648 15.0943 7.71196 16.0937M6.63916 9.8866C6.81796 10.9211 7.0783 14.6103 6.315 15.2872" stroke="#370A0A"/>
<rect x="6.0199" y="14.1855" width="3.22609" height="6.45217" transform="rotate(30 6.0199 14.1855)" fill="#7BCD7E"/>
<line x1="5.06018" y1="15.8479" x2="7.85405" y2="17.4609" stroke="#1B7A1F"/>
<line x1="3.85022" y1="17.9433" x2="6.64409" y2="19.5563" stroke="#1B7A1F"/>
<circle cx="15.7271" cy="11.6946" r="2.82283" fill="#E1CC5B"/>
<mask id="mask0_136_7745" style="mask-type:alpha" maskUnits="userSpaceOnUse" x="12" y="8" width="7" height="7">
<circle cx="15.7271" cy="11.6946" r="2.82283" fill="#E1CC5B"/>
</mask>
<g mask="url(#mask0_136_7745)">
<path d="M19.0065 10.4848C19.0065 10.7768 18.8289 11.084 18.4536 11.3342C18.0808 11.5827 17.5456 11.7479 16.9369 11.7479C16.3282 11.7479 15.793 11.5827 15.4202 11.3342C15.0449 11.084 14.8673 10.7768 14.8673 10.4848C14.8673 10.1928 15.0449 9.88562 15.4202 9.63543C15.793 9.38688 16.3282 9.22177 16.9369 9.22177C17.5456 9.22177 18.0808 9.38688 18.4536 9.63543C18.8289 9.88562 19.0065 10.1928 19.0065 10.4848Z" stroke="white" stroke-width="0.7"/>
</g>
</svg>
