<svg width="20" height="10" viewBox="0 0 20 10" fill="none" xmlns="http://www.w3.org/2000/svg">
<rect width="20" height="10" rx="1" fill="#4B4B4B"/>
<rect x="1" y="5" width="18" height="4" fill="#F3F0F0"/>
<mask id="mask0_136_8131" style="mask-type:alpha" maskUnits="userSpaceOnUse" x="1" y="5" width="18" height="4">
<rect x="1" y="5" width="18" height="4" fill="#F3F0F0"/>
</mask>
<g mask="url(#mask0_136_8131)">
<line x1="3.32501" y1="5" x2="3.32501" y2="9" stroke="black" stroke-width="0.25"/>
<line x1="5.32501" y1="5" x2="5.32501" y2="9" stroke="black" stroke-width="0.25"/>
<line x1="7.32501" y1="5" x2="7.32501" y2="9" stroke="black" stroke-width="0.25"/>
<line x1="9.32501" y1="5" x2="9.32501" y2="9" stroke="black" stroke-width="0.25"/>
<line x1="11.325" y1="5" x2="11.325" y2="9" stroke="black" stroke-width="0.25"/>
<line x1="13.325" y1="5" x2="13.325" y2="9" stroke="black" stroke-width="0.25"/>
<line x1="15.325" y1="5" x2="15.325" y2="9" stroke="black" stroke-width="0.25"/>
<line x1="17.325" y1="5" x2="17.325" y2="9" stroke="black" stroke-width="0.25"/>
<rect x="2.20001" y="4" width="1.6" height="3" fill="#363636"/>
<rect x="5.20001" y="4" width="1.6" height="3" fill="#363636"/>
<rect x="9.20001" y="4" width="1.6" height="3" fill="#363636"/>
<rect x="13.2" y="4" width="1.6" height="3" fill="#363636"/>
</g>
<rect x="2" y="2" width="1" height="1" fill="#76E77B"/>
<rect x="4" y="2" width="1" height="1" fill="#8BD2F1"/>
<rect x="6" y="2" width="1" height="1" fill="#C731D5"/>
</svg>
