<svg width="22" height="24" viewBox="0 0 22 24" fill="none" xmlns="http://www.w3.org/2000/svg">
<rect x="12.629" y="3.13806" width="4" height="0.5" rx="0.25" transform="rotate(35.7898 12.629 3.13806)" fill="#FAC359"/>
<rect x="13.2139" y="2.3269" width="4" height="0.5" rx="0.25" transform="rotate(35.7898 13.2139 2.3269)" fill="#FAC359"/>
<path fill-rule="evenodd" clip-rule="evenodd" d="M10.7068 14.2208C10.1616 14.977 10.2019 15.9783 10.7392 16.6885C10.5974 17.1078 10.3915 17.5131 10.1193 17.8906C8.64474 19.936 5.78176 20.3918 3.72466 18.9087C1.66756 17.4256 1.19534 14.5653 2.66992 12.52C2.9421 12.1424 3.26158 11.8191 3.61456 11.5521C4.45813 11.8375 5.42098 11.5593 5.96622 10.803C6.33222 10.2954 6.43436 9.67722 6.29942 9.11088C6.41083 8.82742 6.5591 8.55325 6.74531 8.29497C7.95178 6.62152 10.2942 6.24859 11.9773 7.46201C13.6604 8.67543 14.0467 11.0157 12.8403 12.6891C12.6541 12.9474 12.4409 13.1747 12.2072 13.3699C11.6271 13.4208 11.0729 13.713 10.7068 14.2208Z" fill="#914F14"/>
<rect x="14.2042" y="1.80811" width="3" height="3" rx="1" transform="rotate(35.7898 14.2042 1.80811)" fill="#61350D"/>
<rect x="4.84723" y="14.7869" width="3" height="1" rx="0.5" transform="rotate(35.7898 4.84723 14.7869)" fill="#61350D"/>
<path d="M14.4958 3.11374L15.307 3.69856L8.51557 14.8286L6.08207 13.0741L14.4958 3.11374Z" fill="#61350D"/>
<mask id="mask0_136_8348" style="mask-type:alpha" maskUnits="userSpaceOnUse" x="6" y="3" width="10" height="12">
<path d="M14.4958 3.11374L15.307 3.69856L8.51557 14.8286L6.08207 13.0741L14.4958 3.11374Z" fill="#94704F"/>
</mask>
<g mask="url(#mask0_136_8348)">
</g>
<path d="M16.8682 10.988C17.1912 10.5401 17.8162 10.4387 18.2642 10.7617L11.8312 19.6845C11.3832 19.3616 11.2819 18.7366 11.6049 18.2886L16.8682 10.988Z" fill="#61350D"/>
<line x1="18.1179" y1="10.9644" x2="18.9291" y2="11.5493" stroke="black" stroke-width="0.5"/>
<line x1="11.9774" y1="19.4818" x2="12.7886" y2="20.0666" stroke="black" stroke-width="0.5"/>
<line x1="12.4396" y1="20.1232" x2="18.8725" y2="11.2004" stroke="black" stroke-width="0.5"/>
</svg>
