<svg width="16" height="14" viewBox="0 0 16 14" fill="none" xmlns="http://www.w3.org/2000/svg">
<mask id="path-1-inside-1_158_10861" fill="white">
<path fill-rule="evenodd" clip-rule="evenodd" d="M14 0.206076H2L0 5.20608L8 13.2061L16 5.20608L14 0.206076Z"/>
</mask>
<path fill-rule="evenodd" clip-rule="evenodd" d="M14 0.206076H2L0 5.20608L8 13.2061L16 5.20608L14 0.206076Z" fill="#8AE9FE"/>
<path d="M2 0.206076V-0.493924H1.52608L1.35007 -0.0538978L2 0.206076ZM14 0.206076L14.6499 -0.0538978L14.4739 -0.493924H14V0.206076ZM0 5.20608L-0.649934 4.9461L-0.821359 5.37467L-0.494975 5.70105L0 5.20608ZM8 13.2061L7.50503 13.7011L8 14.196L8.49498 13.7011L8 13.2061ZM16 5.20608L16.495 5.70105L16.8214 5.37467L16.6499 4.9461L16 5.20608ZM2 0.906076H14V-0.493924H2V0.906076ZM0.649934 5.46605L2.64993 0.466049L1.35007 -0.0538978L-0.649934 4.9461L0.649934 5.46605ZM8.49498 12.7111L0.494975 4.7111L-0.494975 5.70105L7.50503 13.7011L8.49498 12.7111ZM15.505 4.7111L7.50503 12.7111L8.49498 13.7011L16.495 5.70105L15.505 4.7111ZM13.3501 0.466049L15.3501 5.46605L16.6499 4.9461L14.6499 -0.0538978L13.3501 0.466049Z" fill="#65BACD" mask="url(#path-1-inside-1_158_10861)"/>
<mask id="mask0_158_10861" style="mask-type:alpha" maskUnits="userSpaceOnUse" x="0" y="0" width="16" height="14">
<mask id="path-3-inside-2_158_10861" fill="white">
<path fill-rule="evenodd" clip-rule="evenodd" d="M14 0.206076H2L0 5.20608L8 13.2061L16 5.20608L14 0.206076Z"/>
</mask>
<path fill-rule="evenodd" clip-rule="evenodd" d="M14 0.206076H2L0 5.20608L8 13.2061L16 5.20608L14 0.206076Z" fill="#8AE9FE"/>
<path d="M2 0.206076V-0.493924H1.52608L1.35007 -0.0538978L2 0.206076ZM14 0.206076L14.6499 -0.0538978L14.4739 -0.493924H14V0.206076ZM0 5.20608L-0.649934 4.9461L-0.821359 5.37467L-0.494975 5.70105L0 5.20608ZM8 13.2061L7.50503 13.7011L8 14.196L8.49498 13.7011L8 13.2061ZM16 5.20608L16.495 5.70105L16.8214 5.37467L16.6499 4.9461L16 5.20608ZM2 0.906076H14V-0.493924H2V0.906076ZM0.649934 5.46605L2.64993 0.466049L1.35007 -0.0538978L-0.649934 4.9461L0.649934 5.46605ZM8.49498 12.7111L0.494975 4.7111L-0.494975 5.70105L7.50503 13.7011L8.49498 12.7111ZM15.505 4.7111L7.50503 12.7111L8.49498 13.7011L16.495 5.70105L15.505 4.7111ZM13.3501 0.466049L15.3501 5.46605L16.6499 4.9461L14.6499 -0.0538978L13.3501 0.466049Z" fill="#65BACD" mask="url(#path-3-inside-2_158_10861)"/>
</mask>
<g mask="url(#mask0_158_10861)">
<mask id="mask1_158_10861" style="mask-type:alpha" maskUnits="userSpaceOnUse" x="0" y="0" width="16" height="6">
<path d="M2 0.206076H14L16 5.20608H0L2 0.206076Z" fill="#C4C4C4"/>
</mask>
<g mask="url(#mask1_158_10861)">
<line x1="2.33204" y1="0.095396" x2="4.33204" y2="6.0954" stroke="#65BACD" stroke-width="0.7"/>
<line x1="9.33204" y1="0.095396" x2="11.332" y2="6.0954" stroke="#65BACD" stroke-width="0.7"/>
<line y1="-0.35" x2="6.32456" y2="-0.35" transform="matrix(-0.316228 0.948683 0.948683 0.316228 7 0.206076)" stroke="#65BACD" stroke-width="0.7"/>
<line y1="-0.35" x2="6.32456" y2="-0.35" transform="matrix(-0.316228 0.948683 0.948683 0.316228 14 0.206076)" stroke="#65BACD" stroke-width="0.7"/>
<line x1="-1" y1="4.85608" x2="17" y2="4.85608" stroke="#65BACD" stroke-width="0.7"/>
</g>
</g>
<line y1="-0.35" x2="8" y2="-0.35" transform="matrix(-0.393919 -0.919145 0.950157 -0.31177 8 12.2061)" stroke="#65BACD" stroke-width="0.7"/>
<line y1="-0.35" x2="8" y2="-0.35" transform="matrix(0.393919 -0.919145 -0.950157 -0.31177 8 12.2061)" stroke="#65BACD" stroke-width="0.7"/>
</svg>
