<svg width="40" height="26" viewBox="0 0 40 26" fill="none" xmlns="http://www.w3.org/2000/svg">
<rect x="1" width="38" height="25" fill="#F2F7FF"/>
<path d="M1.81805 1.31802H1.31805V1.81802V3.16745V3.42465L1.52729 3.57422L19.7091 16.571L19.9999 16.7788L20.2906 16.571L38.4725 3.57422L38.6817 3.42465V3.16745V1.81802V1.31802H38.1817H1.81805ZM2.10878 4.99094L1.31805 4.42582V5.39773V22.4287V23.5633L2.15545 22.7977L12.61 13.2384L13.0657 12.8217L12.5633 12.4626L2.10878 4.99094ZM38.6817 5.39773V4.42583L37.891 4.99093L27.4364 12.4625L26.934 12.8216L27.3897 13.2383L37.8443 22.7976L38.6817 23.5633V22.4286V5.39773ZM14.0829 13.5421L13.7535 13.3066L13.4547 13.5798L2.85836 23.267L1.90777 24.136H3.19573H36.8037H38.0916L37.1411 23.267L26.5445 13.5795L26.2456 13.3063L25.9163 13.5418L20.2361 17.6032C20.2358 17.6034 20.2355 17.6036 20.2353 17.6038C20.0937 17.7037 19.9048 17.7036 19.7638 17.604C19.7635 17.6039 19.7633 17.6037 19.7631 17.6036L14.0829 13.5421ZM0.5 1.36372C0.5 0.900343 0.89091 0.5 1.34943 0.5H38.6506C39.109 0.5 39.5 0.900595 39.5 1.36372V24.091C39.5 24.5544 39.1091 24.9547 38.6506 24.9547H1.34943C0.890985 24.9547 0.5 24.5541 0.5 24.091V1.36372Z" stroke="#8EACDA"/>
</svg>
